<?xml version="1.0" encoding="UTF-8" standalone="no"?>
<!-- Created with Inkscape (http://www.inkscape.org/) -->
<svg
   xmlns:svg="http://www.w3.org/2000/svg"
   xmlns="http://www.w3.org/2000/svg"
   version="1.0"
   width="678"
   height="204"
   id="svg2"
   xml:space="preserve"><defs
     id="defs5" /><g
     transform="matrix(1.25,0,0,-1.25,42.6,1008.6)"
     id="g11"><path
       d="M 507.84,645.78285 L 507.84,698.06476 L 497.81334,698.06476 L 497.81334,670.84952 C 497.81334,667.26857 498.52953,662.97142 498.52953,662.97142 L 498.52953,662.97142 C 498.52953,662.97142 497.09714,666.55238 494.94857,670.13333 L 481.34096,698.06476 L 470.5981,698.06476 L 470.5981,645.78285 L 480.62476,645.78285 L 480.62476,675.14666 C 480.62476,678.72762 479.90857,683.74095 479.90857,683.74095 L 479.90857,683.74095 C 479.90857,683.74095 481.34096,679.4438 483.48952,675.86285 L 498.52953,645.78285 L 507.84,645.78285 z M 446.24762,645.78285 L 446.24762,698.06476 L 436.22096,698.06476 L 436.22096,645.78285 L 446.24762,645.78285 z M 414.73524,645.78285 L 414.73524,654.37714 L 391.81715,654.37714 L 391.81715,667.98476 L 409.00572,667.98476 L 409.00572,677.29524 L 391.81715,677.29524 L 391.81715,688.75428 L 414.73524,688.75428 L 414.73524,698.06476 L 381.07428,698.06476 L 381.07428,645.78285 L 414.73524,645.78285 z M 362.45334,688.75428 L 362.45334,698.06476 L 325.92762,698.06476 L 325.92762,688.75428 L 338.81905,688.75428 L 338.81905,645.78285 L 349.5619,645.78285 L 349.5619,688.75428 L 362.45334,688.75428 z M 288.68572,768.96762 C 288.68572,776.12952 282.24,779.71048 277.22667,779.71048 C 274.3619,779.71048 271.49714,778.99428 269.34857,778.27809 C 266.48381,782.57523 261.47048,784.00762 257.88952,784.00762 C 252.87619,784.00762 247.86286,783.29142 243.56572,781.14285 C 243.56572,782.57523 244.28191,784.00762 244.28191,785.44 C 244.28191,786.15619 242.13333,786.87237 241.41714,789.02095 C 241.41714,789.02095 244.28191,789.73714 244.28191,793.31809 C 244.28191,795.46666 242.84952,797.61524 240.70095,798.33142 C 240.70095,798.33142 239.98476,798.33142 239.98476,799.04761 C 239.98476,800.48 243.56572,799.7638 243.56572,801.19619 C 243.56572,802.62857 240.70095,802.62857 240.70095,803.34476 C 239.98476,803.34476 240.70095,806.20952 239.26858,806.20952 C 237.83619,806.20952 237.83619,803.34476 237.83619,803.34476 C 237.12,802.62857 234.25524,802.62857 234.25524,801.19619 C 234.25524,799.7638 237.83619,800.48 237.83619,799.04761 C 237.83619,798.33142 237.83619,798.33142 237.83619,798.33142 C 234.97142,797.61524 234.25524,795.46666 234.25524,793.31809 C 234.25524,789.73714 237.12,789.02095 237.12,789.02095 C 236.40381,787.58856 233.53905,786.15619 233.53905,785.44 C 233.53905,784.00762 234.97142,782.57523 234.97142,781.14285 C 230.67428,783.29142 225.66095,784.00762 220.64762,784.00762 C 216.35048,784.00762 211.33715,782.57523 209.18857,778.27809 C 207.04,778.99428 204.17524,779.71048 201.31047,779.71048 C 195.58095,779.71048 189.13524,776.12952 189.13524,768.96762 C 189.13524,762.5219 193.43238,759.65714 196.29714,756.07619 C 198.44572,753.92761 199.16191,751.77905 199.8781,748.91428 C 199.8781,748.91428 199.8781,747.4819 199.8781,747.4819 C 199.8781,746.76572 201.31047,746.04952 202.02666,746.04952 C 204.17524,744.61714 205.60762,742.46856 207.04,739.60381 L 210.62096,728.86095 C 210.62096,728.14476 211.33715,728.14476 211.33715,728.14476 C 212.05333,728.14476 212.05333,728.14476 212.05333,728.14476 C 220.64762,731.00952 229.95809,731.72571 239.26858,731.72571 C 247.86286,731.72571 257.17333,731.00952 265.76762,728.14476 C 265.76762,728.14476 266.48381,728.14476 266.48381,728.14476 C 267.2,728.14476 267.2,728.14476 267.2,728.86095 L 270.78095,739.60381 C 272.21334,742.46856 273.64572,743.90095 275.07809,745.33333 C 275.79428,745.33333 276.51048,746.04952 277.22667,746.76572 C 277.94286,746.76572 278.65905,747.4819 278.65905,748.19809 C 278.65905,749.63047 278.65905,750.34666 279.37524,751.77905 C 280.09142,754.6438 282.95619,756.79238 285.10476,759.65714 C 287.25333,761.80571 288.68572,764.67047 288.68572,768.96762 z M 280.80762,767.53524 C 280.80762,763.2381 277.94286,758.94094 275.07809,756.07619 C 272.92953,753.21142 270.06476,751.77905 270.06476,751.77905 C 270.06476,751.06286 270.06476,749.63047 269.34857,748.19809 C 269.34857,746.04952 267.2,743.18476 265.76762,743.18476 C 263.61904,743.18476 263.61904,745.33333 263.61904,746.76572 C 263.61904,747.4819 263.61904,747.4819 262.90285,747.4819 C 262.18667,747.4819 261.47048,744.61714 259.3219,744.61714 C 257.88952,744.61714 257.17333,746.04952 257.17333,747.4819 C 257.17333,751.06286 261.47048,753.21142 262.18667,753.92761 C 262.18667,753.92761 262.18667,755.36 262.18667,756.79238 C 262.90285,758.22476 263.61904,758.94094 265.05143,760.37333 C 267.9162,763.95428 270.06476,766.81904 270.06476,771.83238 C 271.49714,771.83238 273.64572,772.54857 275.07809,772.54857 C 278.65905,772.54857 280.80762,771.11618 280.80762,767.53524 z M 262.18667,770.39999 C 262.18667,762.5219 254.30857,756.79238 253.59238,756.07619 C 252.87619,756.07619 253.59238,753.92761 253.59238,752.49524 C 253.59238,750.34666 252.87619,746.04952 250.01143,746.04952 C 247.14666,746.04952 248.57905,749.63047 247.14666,749.63047 C 245.71428,749.63047 245.71428,746.04952 243.56572,746.04952 C 241.41714,746.04952 241.41714,748.19809 241.41714,750.34666 C 241.41714,753.92761 243.56572,756.07619 243.56572,756.79238 C 243.56572,758.22476 242.13333,760.37333 242.13333,766.81904 C 242.13333,768.96762 242.13333,771.11618 242.13333,773.26476 C 245.71428,775.41332 251.4438,776.84571 255.02476,776.84571 C 259.3219,776.84571 262.18667,774.69714 262.18667,770.39999 z M 237.12,750.34666 C 237.12,748.19809 236.40381,746.04952 234.25524,746.04952 C 232.10667,746.04952 232.10667,749.63047 231.39048,749.63047 C 229.2419,749.63047 230.67428,746.04952 227.80953,746.04952 C 225.66095,746.04952 224.22857,750.34666 224.22857,752.49524 C 224.22857,753.92761 224.94476,756.07619 224.94476,756.07619 C 223.51238,756.79238 215.63429,762.5219 215.63429,770.39999 C 215.63429,774.69714 219.21524,776.84571 223.51238,776.84571 C 227.09334,776.84571 232.82286,775.41332 235.68762,773.26476 C 235.68762,771.11618 235.68762,768.96762 235.68762,766.81904 C 235.68762,760.37333 234.25524,758.22476 234.25524,756.79238 C 234.25524,756.07619 237.12,753.92761 237.12,750.34666 z M 220.64762,747.4819 C 220.64762,746.04952 219.93143,744.61714 218.49904,744.61714 C 217.06667,744.61714 216.35048,747.4819 214.9181,747.4819 C 214.2019,747.4819 214.2019,747.4819 214.2019,746.76572 C 214.2019,745.33333 214.2019,743.18476 212.76952,743.18476 C 210.62096,743.18476 209.18857,746.04952 208.47238,748.19809 C 208.47238,749.63047 208.47238,751.06286 208.47238,751.77905 C 207.75619,751.77905 204.89143,753.21142 202.74286,756.07619 C 200.59428,758.94094 197.72952,763.2381 197.72952,767.53524 C 197.72952,771.11618 199.8781,772.54857 203.45905,772.54857 C 204.89143,772.54857 206.3238,771.83238 207.75619,771.83238 C 207.75619,766.81904 210.62096,763.95428 213.48571,760.37333 C 214.2019,758.94094 214.9181,758.22476 215.63429,756.79238 C 216.35048,755.36 215.63429,753.92761 216.35048,753.92761 C 216.35048,753.21142 220.64762,751.06286 220.64762,747.4819 z M 310.17143,660.10666 C 310.17143,671.56571 303.00952,674.43047 296.5638,677.29524 C 290.83428,679.4438 287.96952,681.59238 287.96952,685.17332 C 287.96952,688.03809 289.40191,690.18667 293.69905,690.18667 C 298.71238,690.18667 299.42857,686.60571 299.42857,685.17332 C 299.42857,683.02476 299.42857,682.30857 299.42857,682.30857 L 308.73904,682.30857 C 308.73904,682.30857 308.73904,683.74095 308.73904,685.88952 C 308.73904,695.2 304.4419,699.49714 294.41524,699.49714 C 282.24,699.49714 277.22667,693.76762 277.22667,683.74095 C 277.22667,672.2819 288.68572,669.41714 291.55047,667.98476 C 295.84762,665.83619 300.14476,663.68761 300.14476,659.39047 C 300.14476,656.52572 297.99619,652.94476 292.98286,652.94476 C 289.40191,652.94476 286.53714,655.09333 286.53714,659.39047 C 286.53714,660.10666 286.53714,660.82286 286.53714,662.25524 L 277.22667,662.25524 C 277.22667,662.25524 277.22667,660.10666 277.22667,658.67428 C 277.22667,648.64762 282.24,644.35048 292.98286,644.35048 C 305.1581,644.35048 310.17143,650.79619 310.17143,660.10666 z M 257.17333,645.78285 L 257.17333,698.06476 L 246.43047,698.06476 L 246.43047,677.29524 L 231.39048,677.29524 L 231.39048,698.06476 L 220.64762,698.06476 L 220.64762,645.78285 L 231.39048,645.78285 L 231.39048,668.70094 L 246.43047,668.70094 L 246.43047,645.78285 L 257.17333,645.78285 z M 200.59428,660.82286 C 200.59428,661.53905 200.59428,662.97142 200.59428,663.68761 L 190.56762,663.68761 C 190.56762,662.25524 190.56762,662.25524 190.56762,661.53905 C 190.56762,655.80952 185.55428,654.37714 182.68953,654.37714 C 176.96,654.37714 174.81143,657.2419 174.81143,665.12 L 174.81143,679.4438 C 174.81143,686.60571 176.24381,690.18667 182.68953,690.18667 C 186.98667,690.18667 189.85142,687.3219 189.85142,683.02476 C 189.85142,681.59238 189.13524,680.87618 189.13524,679.4438 L 199.16191,679.4438 C 199.8781,680.87618 199.8781,682.30857 199.8781,683.74095 C 199.8781,690.18667 195.58095,699.49714 183.40572,699.49714 C 164.06857,699.49714 163.35238,686.60571 163.35238,670.84952 C 163.35238,651.51237 168.36571,644.35048 181.25714,644.35048 C 192.71619,644.35048 200.59428,649.36381 200.59428,660.82286 z M 144.73142,645.78285 L 144.73142,654.37714 L 121.81333,654.37714 L 121.81333,667.98476 L 139.0019,667.98476 L 139.0019,677.29524 L 121.81333,677.29524 L 121.81333,688.75428 L 144.73142,688.75428 L 144.73142,698.06476 L 111.07048,698.06476 L 111.07048,645.78285 L 144.73142,645.78285 z M 90.300952,660.10666 C 90.300952,665.83619 86.72,670.13333 81.706667,672.2819 L 81.706667,672.9981 C 83.855238,673.71428 89.584762,676.57904 89.584762,684.45714 C 89.584762,688.03809 88.152381,691.61904 86.00381,693.76762 C 82.422857,696.63237 78.125714,698.06476 70.96381,698.06476 L 55.20762,698.06476 L 55.20762,645.78285 L 73.112381,645.78285 C 80.274286,645.78285 83.139048,646.49904 86.00381,649.36381 C 88.868572,652.22856 90.300952,655.80952 90.300952,660.10666 z M 78.841905,683.02476 C 78.841905,678.01143 75.977143,675.86285 69.531428,675.86285 L 65.234286,675.86285 L 65.234286,689.47048 L 70.247619,689.47048 C 75.977143,689.47048 78.841905,688.03809 78.841905,683.02476 z M 79.558095,661.53905 C 79.558095,656.52572 75.977143,653.66095 70.247619,653.66095 L 65.234286,653.66095 L 65.234286,668.70094 L 69.531428,668.70094 C 74.544762,668.70094 79.558095,667.98476 79.558095,661.53905 z M 26.56,645.78285 L 26.56,657.2419 L 15.817143,657.2419 L 15.817143,645.78285 L 26.56,645.78285 z M 4.3580952,660.82286 C 4.3580952,661.53905 4.3580952,662.97142 4.3580952,663.68761 L -6.3847616,663.68761 C -5.668572,662.25524 -5.668572,662.25524 -5.668572,661.53905 C -5.668572,655.80952 -10.681905,654.37714 -13.546667,654.37714 C -19.27619,654.37714 -21.424762,657.2419 -21.424762,665.12 L -21.424762,679.4438 C -21.424762,686.60571 -19.992381,690.18667 -14.262857,690.18667 C -9.2495236,690.18667 -7.1009524,687.3219 -7.1009524,683.02476 C -7.1009524,681.59238 -7.1009524,680.87618 -7.1009524,679.4438 L 2.9257142,679.4438 C 3.6419048,680.87618 3.6419048,682.30857 3.6419048,683.74095 C 3.6419048,690.18667 -0.6552381,699.49714 -13.546667,699.49714 C -32.16762,699.49714 -33.6,686.60571 -33.6,670.84952 C -33.6,651.51237 -27.154285,644.35048 -14.979048,644.35048 C -2.8038095,644.35048 4.3580952,649.36381 4.3580952,660.82286 z"
       id="path87"
       style="fill:#ffffff;fill-opacity:1;fill-rule:nonzero;stroke:none" /></g></svg>
