<?xml version="1.0" encoding="utf-8"?>
<!-- Generator: Adobe Illustrator 22.0.0, SVG Export Plug-In . SVG Version: 6.00 Build 0)  -->
<svg version="1.1" id="Слой_1" xmlns="http://www.w3.org/2000/svg" xmlns:xlink="http://www.w3.org/1999/xlink" x="0px" y="0px" fill="#000"
         viewBox="0 0 156.7 151.3" style="enable-background:new 0 0 156.7 151.3;" xml:space="preserve">
<path d="M49.3,21c16.3,0,31.8,0,48.1,0c0,3.9-0.1,7.7,0,11.4c0.1,7.9,5.2,13.3,12.5,13.2c7.3-0.1,12.2-5.5,12.3-13.5
        c0.1-3.5,0-7,0-10.9c5,0,9.9-0.7,14.5,0.2c5.6,1,8.6,6.5,8.7,13.6c0,26.3,0,52.7,0,79c0,4.2,0.1,8.3,0,12.5
        c-0.2,8.3-5.3,13.4-13.5,13.4c-39.5,0-79,0-118.5,0c-8.3,0-13.3-4.7-13.4-12.9C0,95.9,0,64.8,0.1,33.6c0-8.3,4.9-12.7,13.3-12.8
        c3.5,0,6.9,0,11,0c0,4.3,0,8.1,0,11.9c0.1,7.6,5.1,12.8,12.2,12.9c6.8,0.1,12.2-5,12.6-12.2C49.5,29.4,49.3,25.4,49.3,21z M72.5,132
        c19.2,0,38.3,0,57.5,0c6.8,0,7.5-0.7,7.5-7.4c0-20,0-40,0-60c0-6.5-1-7.5-7.5-7.5c-38.3,0-76.6,0-114.9,0c-6.2,0-7.4,1.3-7.4,7.7
        c0,19.8,0,39.6,0,59.5c0,6.8,0.9,7.7,7.9,7.7C34.5,132,53.5,132,72.5,132z"/>
<path d="M74.2,151.2c-19.2,0-38.3,0-57.5,0c-1.3,0-2.8,0.3-4-0.1c-1.2-0.5-2.1-1.7-3.1-2.6c0.9-1,1.7-2.3,2.9-2.8
        c1.1-0.5,2.6-0.2,3.9-0.2c36.5,0,73,0,109.5,0c2.5,0,5-0.1,7.5-0.1c10.1-0.2,17.5-8.8,17.4-18.1c-0.3-29.8-0.1-59.7,0-89.5
        c0-2.7-1.4-7.1,3.1-7.1c4.3,0,2.6,4.3,2.6,6.8c0.1,29.5,0.1,59,0.1,88.5c0,15.4-9.8,25.2-25.3,25.2
        C112.2,151.2,93.2,151.2,74.2,151.2z"/>
<path d="M116.5,19.7c0,4.2,0.1,8.3,0,12.5c-0.1,4.6-3.1,8-6.8,7.6c-4.2-0.5-6.4-3-6.4-7.5c0.1-8.3,0-16.7,0.1-25
        c0-4.5,2.6-7.3,6.4-7.3c3.8,0,6.5,2.7,6.6,7.2C116.6,11.3,116.5,15.5,116.5,19.7z"/>
<path d="M30.3,19.7c0-4.2-0.1-8.3,0-12.5C30.4,2.7,33,0,36.9,0c3.8,0,6.5,2.9,6.6,7.3c0.1,8.3,0.1,16.7,0,25c0,4.3-2.2,7-6.5,7.5
        c-3.8,0.4-6.6-2.9-6.7-7.6C30.2,28,30.3,23.9,30.3,19.7z"/>
<path d="M70.6,104.5c1.8,8,0.9,9.9-6.3,11.1c-17.9,3-30.5-6-28.8-24.1c0.7-7.5,4.4-13.3,11.4-16.4c7.7-3.4,15.7-3.5,23,0.7
        c1.7,1,1.3,5.5,2.1,9.5c-8.6-4-16.1-7.4-22.4,0.5c-3.5,4.4-2.9,14.2,0.5,18.3C54.1,109,60.8,109.2,70.6,104.5z"/>
<path d="M107.5,116.5c-4.6-0.7-8.3-1.3-13.3-2c-1.9,0.3-5.3,1.4-8.8,1.5c-5.3,0.1-9.3-3.9-9.8-9.3c-0.5-5,2.7-9.5,7.9-10.6
        c4.2-0.8,8.5-1.1,12.8-1.6c-0.9-5.2-1.7-5.3-17.3-2.9c-1.2-7.5-0.8-8.1,6.4-8.5c16-0.9,23.1,1.2,22.1,20.2
        C107.3,107.2,107.5,111.2,107.5,116.5z M96.5,101.8c-3.8,1-8.6-2.2-9.7,3.7c-0.2,0.9,2.2,3.2,3.6,3.3
        C94.7,109.3,96.6,106.7,96.5,101.8z"/>
<path d="M116.7,115.6c0-14.5,0-28.7,0-43.2c3.3,0,6.3,0,9.6,0c0,14.5,0,28.7,0,43.2C123.1,115.6,120.2,115.6,116.7,115.6z"/>
<path d="M28.5,84.4c0,9.8,0.1,19.4-0.1,29c-0.1,4.2-3.7,2.4-5.8,2.5c-2,0.1-5.1,1.1-5.1-2.8c0-9.4,0-18.9,0-28.7
        C21.2,84.4,24.4,84.4,28.5,84.4z"/>
<path d="M17.8,80.6c-0.8-9.3-0.1-9.8,10.3-7.9c0,2.5,0,5,0,7.9C24.7,80.6,21.2,80.6,17.8,80.6z"/>
</svg>
