<?xml version="1.0" encoding="UTF-8" standalone="no"?>
<!-- Generator: Adobe Illustrator 16.0.0, SVG Export Plug-In . SVG Version: 6.00 Build 0)  -->

<svg
   version="1.1"
   id="Layer_1"
   x="0px"
   y="0px"
   width="12.083px"
   height="80.529px"
   viewBox="0 0 12.083 80.529"
   enable-background="new 0 0 12.083 80.529"
   xml:space="preserve"
   sodipodi:docname="klarinette.svg"
   inkscape:version="1.2.1 (9c6d41e410, 2022-07-14)"
   xmlns:inkscape="http://www.inkscape.org/namespaces/inkscape"
   xmlns:sodipodi="http://sodipodi.sourceforge.net/DTD/sodipodi-0.dtd"
   xmlns="http://www.w3.org/2000/svg"
   xmlns:svg="http://www.w3.org/2000/svg"><defs
   id="defs13" /><sodipodi:namedview
   id="namedview11"
   pagecolor="#ffffff"
   bordercolor="#000000"
   borderopacity="0.25"
   inkscape:showpageshadow="2"
   inkscape:pageopacity="0.0"
   inkscape:pagecheckerboard="0"
   inkscape:deskcolor="#d1d1d1"
   showgrid="false"
   inkscape:zoom="12.75317"
   inkscape:cx="6.0377147"
   inkscape:cy="40.225294"
   inkscape:window-width="1758"
   inkscape:window-height="2143"
   inkscape:window-x="1069"
   inkscape:window-y="16"
   inkscape:window-maximized="0"
   inkscape:current-layer="Layer_1" />
<path
   fill-rule="evenodd"
   clip-rule="evenodd"
   fill="#000000"
   d="m 6.293,-0.00153723 c 0.028,0.286 0.05,0.399 0.05,0.513 C 6.404,6.5044628 6.459,12.496463 6.531,18.489463 c 0.005,0.427 0.097,0.864 0.223,1.274 0.235,0.769 0.726,1.513 0.759,2.282 0.251,5.749 0.498,11.501 0.566,17.254 0.027,2.291 0.732,4.692 -0.588,6.891 -0.07,0.116 -0.002,0.314 0.004,0.475 0.24,7.469 0.486,14.938 0.721,22.408 0.1,3.166 0.341,6.297 1.87,9.173 0.289,0.543 0.52,1.05 1.306,0.989 0.213,-0.016 0.46,0.406 0.691,0.627 -0.246,0.216 -0.482,0.445 -0.746,0.638 -0.078,0.057 -0.232,0.011 -0.354,0.011 -3.276,-0.003 -6.555,0.016 -9.832,-0.03 -0.386,-0.006 -0.768,-0.367 -1.151,-0.563 0.327,-0.247 0.662,-0.483 0.978,-0.744 0.328,-0.271 0.779,-0.503 0.932,-0.857 1.068,-2.49 1.552,-5.106 1.466,-7.818 -0.009,-0.292 -0.066,-0.742 -0.251,-0.842 -1.246,-0.682 -1.275,-1.841 -1.275,-3.016 -0.008,-8.032 -0.018,-16.065 -0.005,-24.098 0.003,-1.915 0.076,-1.961 2.212,-2.486 -0.354,-0.402 -0.574,-0.736 -0.871,-0.977 -0.885,-0.72 -0.911,-1.889 -0.024,-2.543 0.919,-0.679 1.023,-1.943 0.198,-2.72 -0.654,-0.616 -0.578,-1.133 0.094,-1.677 0.699,-0.566 0.679,-1.442 -0.006,-2.012 -0.736,-0.61 -0.729,-1.177 0.02,-1.737 0.801,-0.6 0.799,-1.417 -0.006,-2.01 -0.715,-0.528 -0.798,-1.342 -0.054,-1.595 0.722,-0.244 0.657,-0.666 0.661,-1.171 0.042,-6.235 0.184,-12.473 0.066,-18.7050002 -0.04,-2.046 0.675,-3.488 2.158,-4.91200003 z"
   id="path2" />
<path
   fill-rule="evenodd"
   clip-rule="evenodd"
   fill="#000000"
   d="M 6.293,-0.00153723 C 4.81,1.4224628 4.095,2.8644628 4.134,4.9124628 4.251,11.144463 4.11,17.382463 4.068,23.617463 c -0.004,0.505 0.061,0.927 -0.661,1.171 -0.744,0.253 -0.661,1.066 0.054,1.595 0.805,0.593 0.807,1.41 0.006,2.01 -0.748,0.561 -0.756,1.127 -0.02,1.737 0.685,0.569 0.705,1.445 0.006,2.012 -0.672,0.544 -0.748,1.061 -0.094,1.677 0.825,0.776 0.721,2.041 -0.198,2.72 -0.887,0.654 -0.86,1.823 0.024,2.543 0.297,0.24 0.518,0.574 0.871,0.977 -2.136,0.525 -2.209,0.571 -2.212,2.486 -0.013,8.032 -0.003,16.065 0.005,24.098 0,1.175 0.029,2.334 1.275,3.016 0.186,0.101 0.242,0.55 0.252,0.842 0.086,2.71 -0.398,5.326 -1.467,7.815 -0.153,0.355 -0.604,0.587 -0.932,0.857 -0.315,0.261 -0.65,0.498 -0.977,0.745 0.384,0.196 0.766,0.558 1.151,0.563 3.277,0.046 6.556,0.027 9.833,0.028 0.121,0 0.275,0.046 0.354,-0.011 0.264,-0.192 0.5,-0.422 0.746,-0.638 -0.231,-0.221 -0.479,-0.643 -0.691,-0.627 -0.786,0.061 -1.017,-0.446 -1.306,-0.989 -1.529,-2.876 -1.771,-6.007 -1.87,-9.173 -0.234,-7.47 -0.48,-14.939 -0.721,-22.408 -0.006,-0.16 -0.074,-0.358 -0.004,-0.475 1.32,-2.198 0.615,-4.6 0.588,-6.891 -0.068,-5.753 -0.315,-11.505 -0.566,-17.254 -0.033,-0.77 -0.523,-1.514 -0.759,-2.282 -0.126,-0.41 -0.218,-0.848 -0.223,-1.274 C 6.46,12.495463 6.404,6.5034628 6.344,0.50946277 c -0.001,-0.112 -0.022,-0.225 -0.051,-0.511 z M 3.472,68.896463 c -0.109,0.059 -0.219,0.117 -0.328,0.176 -0.963,-0.547 -0.976,-1.526 -0.978,-2.469 -0.014,-8.116 -0.012,-16.232 -0.004,-24.348 0,-0.36 0.11,-0.721 0.146,-0.934 0.31,0.623 0.483,1.449 0.992,1.881 0.774,0.657 0.702,0.968 -0.065,1.479 -0.978,0.65 -1.043,1.842 -0.105,2.502 0.887,0.623 0.87,1.066 0.016,1.69 -0.852,0.623 -0.916,1.714 -0.106,2.358 0.905,0.722 0.784,1.444 0.224,2.235 -0.776,1.099 -0.759,2.429 0.029,3.549 0.492,0.701 0.58,1.37 -0.198,2.021 -0.817,0.685 -0.763,2.736 0.03,3.499 0.687,0.66 0.633,1.356 0.063,2.016 -0.766,0.883 -0.895,2.465 -0.234,3.432 0.194,0.288 0.345,0.607 0.518,0.913 z m 3.157,-48.109 c 0.147,0.012 0.294,0.023 0.44,0.035 0.246,7.961 0.49,15.923 0.736,23.885 -0.119,0.003 -0.238,0.007 -0.356,0.011 -0.273,-7.977 -0.546,-15.955 -0.82,-23.931 z"
   id="path4" />
<path
   fill-rule="evenodd"
   clip-rule="evenodd"
   fill="#999999"
   d="m 3.472,68.896463 c -0.173,-0.306 -0.324,-0.625 -0.521,-0.913 -0.66,-0.967 -0.531,-2.549 0.234,-3.432 0.57,-0.659 0.624,-1.355 -0.063,-2.016 -0.793,-0.763 -0.848,-2.814 -0.03,-3.499 0.778,-0.651 0.69,-1.32 0.198,-2.021 -0.788,-1.12 -0.806,-2.45 -0.029,-3.549 0.561,-0.791 0.682,-1.514 -0.224,-2.235 -0.81,-0.645 -0.745,-1.735 0.106,-2.358 0.854,-0.624 0.871,-1.067 -0.016,-1.69 -0.938,-0.66 -0.872,-1.852 0.105,-2.502 0.768,-0.511 0.84,-0.821 0.065,-1.479 -0.509,-0.432 -0.683,-1.258 -0.992,-1.881 -0.035,0.213 -0.146,0.573 -0.146,0.934 -0.008,8.116 -0.01,16.232 0.005,24.349 0.002,0.942 0.015,1.922 0.978,2.469 0.111,-0.06 0.221,-0.118 0.33,-0.177 z"
   id="path6" />
<path
   fill-rule="evenodd"
   clip-rule="evenodd"
   fill="#999999"
   d="m 6.629,20.787463 c 0.273,7.977 0.547,15.954 0.82,23.931 0.118,-0.004 0.237,-0.008 0.356,-0.011 -0.245,-7.962 -0.489,-15.924 -0.735,-23.885 -0.147,-0.012 -0.293,-0.024 -0.441,-0.035 z"
   id="path8" />
</svg>
