<?xml version="1.0" encoding="utf-8"?>
<!-- Generator: Adobe Illustrator 16.0.0, SVG Export Plug-In . SVG Version: 6.00 Build 0)  -->
<!DOCTYPE svg PUBLIC "-//W3C//DTD SVG 1.1//EN" "http://www.w3.org/Graphics/SVG/1.1/DTD/svg11.dtd">
<svg version="1.1" id="Layer_1" xmlns="http://www.w3.org/2000/svg" xmlns:xlink="http://www.w3.org/1999/xlink" x="0px" y="0px"
         width="79.45px" height="77.988px" viewBox="0 0 79.45 77.988" enable-background="new 0 0 79.45 77.988" xml:space="preserve">
<path fill-rule="evenodd" clip-rule="evenodd" fill="#000" d="M79.45,44.287c0,0.658,0.001,1.175,0,1.691
        c-0.023,8.076-0.052,16.152-0.065,24.228c-0.004,2.078,0.061,4.156,0.049,6.234c-0.007,1.231-0.411,1.543-1.602,1.499
        c-0.794-0.029-1.591,0.045-2.387,0.045c-24.471,0.003-48.942,0.003-73.413,0.004c-1.733,0-1.994-0.257-1.994-2.022
        C0.034,51.267,0.04,26.567,0,1.868c-0.002-1.211,0.364-1.521,1.531-1.624c10.947-0.962,21.326,0.874,30.946,6.295
        c5.862,3.304,10.722,7.784,14.534,13.333c2.098,3.054,3.899,6.313,6.036,9.338c3.47,4.909,8,8.645,13.381,11.332
        C70.49,42.571,74.752,43.932,79.45,44.287z M50.068,62.128c-2.08-0.273-2.081-0.273-2.082,1.574
        c-0.001,2.829-0.003,5.658,0.002,8.487c0.003,2.086,0.07,2.12,2.166,2.039c0.702-0.027,1.034-0.288,1.037-0.986
        c0.004-1.193,0.049-2.389,0.007-3.581c-0.01-0.286-0.248-0.76-0.46-0.809c-0.727-0.167-0.673-0.661-0.672-1.184
        C50.07,65.844,50.068,64.019,50.068,62.128z M29.079,62.069c0,1.726-0.032,3.429,0.013,5.131c0.023,0.889-0.017,1.662-1.09,1.821
        c0,1.17-0.005,2.247,0.001,3.325c0.012,1.914,0.016,1.865,1.897,1.89c1.029,0.013,1.297-0.413,1.279-1.365
        c-0.046-2.394-0.014-4.789-0.014-7.185c0-1.185,0-2.37,0-3.617C30.47,62.069,29.925,62.069,29.079,62.069z M4.135,62.073
        c-0.065,0.168-0.143,0.275-0.144,0.383c-0.048,3.618-0.112,7.236-0.088,10.854c0.001,0.304,0.56,0.704,0.942,0.872
        c0.334,0.147,0.786,0.011,1.184,0.036c0.827,0.053,1.143-0.323,1.124-1.141c-0.028-1.196,0.034-2.394,0.018-3.59
        c-0.003-0.239-0.157-0.664-0.289-0.684c-1.101-0.164-0.841-0.988-0.848-1.661c-0.017-1.694-0.006-3.389-0.006-5.07
        C5.222,62.073,4.677,62.073,4.135,62.073z M19.167,68.957c-1.074-0.127-1.223-0.791-1.189-1.699
        c0.064-1.731,0.019-3.466,0.019-5.185c-0.77,0-1.314,0-1.988,0c0,3.842-0.015,7.616,0.032,11.39
        c0.003,0.251,0.432,0.631,0.729,0.714c0.445,0.123,0.949,0.024,1.426,0.042c0.724,0.025,0.987-0.341,0.978-1.03
        C19.154,71.795,19.167,70.401,19.167,68.957z M13.079,62.072c0,1.763-0.037,3.469,0.015,5.173c0.027,0.882-0.06,1.598-1.145,1.735
        c0,1.374,0.055,2.694-0.018,4.008c-0.059,1.089,0.498,1.301,1.396,1.233c0.822-0.063,1.823,0.3,1.798-1.186
        c-0.058-3.438-0.02-6.875-0.032-10.313c0-0.222-0.089-0.443-0.133-0.65C14.343,62.072,13.797,62.072,13.079,62.072z M59.951,68.94
        c0,1.387,0.075,2.628-0.021,3.855c-0.099,1.251,0.495,1.447,1.565,1.45c1.096,0.002,1.744-0.157,1.646-1.486
        c-0.105-1.428-0.026-2.87-0.027-4.306c0-2.103,0-4.206,0-6.372c-0.694,0-1.266,0-1.957,0c0,1.82-0.044,3.567,0.019,5.311
        C61.207,68.287,60.982,68.86,59.951,68.94z M66.019,62.099c-1.976-0.184-1.976-0.184-1.977,1.581c0,2.83,0.001,5.659,0,8.488
        c-0.001,2.093,0.158,2.222,2.247,2.059c0.65-0.051,0.937-0.318,0.933-0.959c-0.01-1.43-0.003-2.859-0.003-4.256
        c-1.194-0.44-1.197-0.44-1.199-1.618C66.017,65.648,66.019,63.904,66.019,62.099z M32.02,62.045c0,3.857-0.02,7.599,0.04,11.34
        c0.004,0.282,0.538,0.657,0.901,0.803c0.344,0.138,0.787,0.02,1.185,0.033c0.768,0.027,1.078-0.362,1.072-1.099
        c-0.012-1.354-0.003-2.709-0.003-4.122c-1.096-0.12-1.211-0.808-1.18-1.704c0.061-1.738,0.018-3.48,0.018-5.251
        C33.32,62.045,32.768,62.045,32.02,62.045z M45.093,62.079c0,1.821-0.041,3.492,0.017,5.16c0.031,0.926-0.083,1.651-1.216,1.754
        c0,1.384,0.044,2.699-0.014,4.009c-0.049,1.089,0.543,1.28,1.425,1.22c0.815-0.057,1.811,0.319,1.785-1.174
        c-0.06-3.426-0.013-6.854-0.019-10.28c0-0.226-0.077-0.451-0.121-0.688C46.341,62.079,45.801,62.079,45.093,62.079z M71.962,68.927
        c0,1.427,0.063,2.706-0.018,3.975c-0.077,1.233,0.589,1.342,1.56,1.335c0.965-0.007,1.687,0.013,1.654-1.339
        c-0.081-3.309-0.023-6.621-0.031-9.932c-0.001-0.302-0.076-0.604-0.113-0.883c-0.636,0-1.177,0-1.852,0
        c0,1.818-0.041,3.564,0.018,5.307C73.209,68.266,73.064,68.888,71.962,68.927z M22.004,68.601c0-1.856,0.022-3.648-0.018-5.44
        c-0.008-0.374-0.243-0.744-0.374-1.116c-0.152,0.389-0.419,0.773-0.436,1.167c-0.055,1.354-0.014,2.713-0.024,4.07
        c-0.005,0.688,0.204,1.493-0.895,1.622c-0.134,0.016-0.307,0.437-0.313,0.674c-0.032,1.197-0.033,2.395-0.01,3.592
        c0.026,1.351,1.056,0.99,1.84,1.05c0.825,0.063,1.431-0.108,1.418-1.12c-0.017-1.354-0.004-2.708-0.004-4.09
        C22.81,68.878,22.478,68.764,22.004,68.601z M40.434,69.085c-0.138-0.004-0.275-0.008-0.413-0.013c0,1.396,0.012,2.791-0.006,4.187
        c-0.008,0.649,0.272,0.966,0.923,0.959c0.438-0.004,0.932,0.126,1.301-0.034c0.375-0.163,0.869-0.591,0.893-0.933
        c0.1-1.426,0.042-2.862,0.042-4.266c-1.197-0.423-1.199-0.423-1.201-1.592c-0.002-1.516,0.019-3.032-0.021-4.547
        c-0.007-0.272-0.262-0.539-0.402-0.808c-0.146,0.28-0.408,0.558-0.416,0.842c-0.042,1.555,0.033,3.114-0.055,4.665
        C41.048,68.069,40.659,68.572,40.434,69.085z M59.237,69.036c-1.205-0.485-1.207-0.485-1.209-1.706
        c-0.002-1.476,0.026-2.953-0.024-4.428c-0.011-0.295-0.318-0.58-0.489-0.87c-0.136,0.284-0.381,0.564-0.388,0.852
        c-0.038,1.595,0.003,3.191-0.032,4.787c-0.009,0.353-0.148,0.954-0.344,1.006c-0.847,0.227-0.71,0.847-0.72,1.422
        c-0.012,0.718,0.002,1.436,0.008,2.153c0.018,2.054,0.117,2.124,2.193,1.974c0.695-0.05,1.014-0.34,1.008-1.035
        C59.229,71.797,59.237,70.402,59.237,69.036z M68.089,68.912c0,1.534-0.049,2.971,0.038,4.398c0.02,0.315,0.47,0.744,0.813,0.866
        c0.425,0.15,0.983,0.148,1.411,0.001c0.353-0.122,0.831-0.539,0.851-0.85c0.09-1.463,0.04-2.935,0.04-4.372
        c-0.438-0.128-0.776-0.227-1.231-0.358c0-2.178,0-4.351,0-6.523c-0.146-0.045-0.293-0.091-0.44-0.137
        c-0.139,0.328-0.39,0.653-0.399,0.985c-0.043,1.515-0.043,3.031-0.01,4.546C69.178,68.252,69.137,68.927,68.089,68.912z
         M7.918,68.899c0,1.534-0.093,3.011,0.027,4.47c0.11,1.336,1.267,0.727,2,0.838c0.687,0.104,1.183-0.133,1.175-0.951
        c-0.011-1.237,0.009-2.476-0.038-3.711c-0.009-0.242-0.26-0.478-0.404-0.713c-0.216-0.356-0.603-0.701-0.625-1.068
        c-0.101-1.662-0.083-3.331-0.152-4.996c-0.01-0.247-0.253-0.485-0.389-0.728c-0.134,0.245-0.376,0.486-0.385,0.735
        c-0.051,1.475-0.114,2.955-0.04,4.427C9.136,68.135,9.164,68.897,7.918,68.899z M25.608,61.96c-0.159,0.029-0.317,0.059-0.476,0.089
        c0,1.696-0.041,3.395,0.016,5.089c0.031,0.944,0,1.756-1.187,1.87c0,1.42,0.033,2.735-0.011,4.049
        c-0.03,0.896,0.35,1.241,1.213,1.165c0.356-0.031,0.77,0.103,1.063-0.037c0.351-0.167,0.836-0.531,0.854-0.835
        c0.089-1.462,0.04-2.932,0.04-4.479c-1.049,0.014-1.238-0.553-1.206-1.407c0.057-1.514,0.033-3.031,0-4.546
        C25.907,62.596,25.715,62.278,25.608,61.96z M55.177,68.925c-1.145-0.075-1.245-0.776-1.21-1.673
        c0.058-1.478,0.031-2.959-0.001-4.438c-0.006-0.262-0.217-0.519-0.333-0.778c-0.149,0.269-0.42,0.532-0.428,0.805
        c-0.043,1.479-0.064,2.96-0.005,4.438c0.036,0.893-0.073,1.587-1.098,1.681c-0.03,0.146-0.061,0.224-0.062,0.302
        c-0.007,0.999-0.011,1.999-0.013,2.998c-0.004,2.012,0.053,2.041,2.09,1.972c0.751-0.026,1.09-0.281,1.068-1.067
        C55.15,71.806,55.177,70.447,55.177,68.925z M39.158,68.94c-1.145-0.041-1.249-0.742-1.211-1.643
        c0.059-1.433,0.024-2.869,0.009-4.305c-0.003-0.321-0.09-0.641-0.138-0.961c-0.124-0.014-0.247-0.026-0.37-0.04
        c-0.09,0.312-0.252,0.62-0.258,0.933c-0.028,1.475-0.073,2.953,0.008,4.424c0.051,0.937-0.165,1.542-1.219,1.627
        c0,1.457,0.009,2.85-0.002,4.242c-0.01,1.235,0.899,0.976,1.615,0.994c0.749,0.02,1.594,0.169,1.572-1.039
        C39.138,71.783,39.158,70.392,39.158,68.94z"/>
<path fill-rule="evenodd" clip-rule="evenodd" fill="#999" d="M50.068,62.128c0,1.891,0.002,3.716-0.002,5.541
        c-0.001,0.522-0.055,1.017,0.672,1.184c0.212,0.049,0.45,0.522,0.46,0.809c0.042,1.192-0.003,2.388-0.007,3.581
        c-0.003,0.698-0.335,0.959-1.037,0.986c-2.096,0.081-2.163,0.047-2.166-2.039c-0.005-2.829-0.003-5.658-0.002-8.487
        C47.987,61.854,47.988,61.854,50.068,62.128z"/>
<path fill-rule="evenodd" clip-rule="evenodd" fill="#999" d="M29.079,62.069c0.846,0,1.391,0,2.086,0c0,1.247,0,2.433,0,3.617
        c0,2.396-0.032,4.791,0.014,7.185c0.019,0.952-0.25,1.378-1.279,1.365c-1.882-0.024-1.886,0.024-1.897-1.89
        c-0.007-1.078-0.001-2.155-0.001-3.325c1.073-0.159,1.114-0.933,1.09-1.821C29.047,65.498,29.079,63.795,29.079,62.069z"/>
<path fill-rule="evenodd" clip-rule="evenodd" fill="#999" d="M4.135,62.073c0.542,0,1.087,0,1.894,0
        c0,1.682-0.011,3.376,0.006,5.07c0.007,0.673-0.252,1.497,0.848,1.661c0.132,0.02,0.286,0.444,0.289,0.684
        c0.016,1.196-0.046,2.394-0.018,3.59c0.019,0.817-0.297,1.193-1.124,1.141c-0.397-0.025-0.849,0.111-1.184-0.036
        c-0.382-0.168-0.941-0.568-0.942-0.872c-0.024-3.618,0.04-7.236,0.088-10.854C3.993,62.349,4.07,62.241,4.135,62.073z"/>
<path fill-rule="evenodd" clip-rule="evenodd" fill="#999" d="M19.167,68.957c0,1.444-0.014,2.838,0.006,4.231
        c0.01,0.689-0.253,1.056-0.978,1.03c-0.478-0.018-0.981,0.081-1.426-0.042c-0.297-0.083-0.725-0.463-0.729-0.714
        c-0.047-3.773-0.032-7.548-0.032-11.39c0.674,0,1.219,0,1.988,0c0,1.719,0.046,3.453-0.019,5.185
        C17.945,68.166,18.093,68.83,19.167,68.957z"/>
<path fill-rule="evenodd" clip-rule="evenodd" fill="#999" d="M13.079,62.072c0.718,0,1.265,0,1.881,0
        c0.044,0.207,0.133,0.429,0.133,0.65c0.012,3.438-0.026,6.876,0.032,10.313c0.025,1.485-0.976,1.123-1.798,1.186
        c-0.898,0.067-1.455-0.145-1.396-1.233c0.072-1.313,0.018-2.634,0.018-4.008c1.084-0.138,1.171-0.854,1.145-1.735
        C13.042,65.541,13.079,63.835,13.079,62.072z"/>
<path fill-rule="evenodd" clip-rule="evenodd" fill="#999" d="M59.951,68.94c1.031-0.08,1.256-0.653,1.224-1.548
        c-0.063-1.743-0.019-3.49-0.019-5.311c0.691,0,1.263,0,1.957,0c0,2.166,0,4.27,0,6.372c0.001,1.436-0.078,2.878,0.027,4.306
        c0.099,1.329-0.55,1.488-1.646,1.486c-1.07-0.003-1.664-0.199-1.565-1.45C60.026,71.568,59.951,70.327,59.951,68.94z"/>
<path fill-rule="evenodd" clip-rule="evenodd" fill="#999" d="M66.019,62.099c0,1.806-0.002,3.55,0.001,5.295
        c0.002,1.178,0.005,1.178,1.199,1.618c0,1.396-0.007,2.826,0.003,4.256c0.004,0.641-0.282,0.908-0.933,0.959
        c-2.089,0.163-2.248,0.034-2.247-2.059c0.001-2.829,0-5.658,0-8.488C64.043,61.915,64.043,61.915,66.019,62.099z"/>
<path fill-rule="evenodd" clip-rule="evenodd" fill="#999" d="M32.02,62.045c0.748,0,1.3,0,2.032,0
        c0,1.771,0.043,3.513-0.018,5.251c-0.031,0.896,0.083,1.584,1.18,1.704c0,1.413-0.008,2.768,0.003,4.122
        c0.006,0.736-0.304,1.126-1.072,1.099c-0.398-0.014-0.841,0.104-1.185-0.033c-0.363-0.146-0.896-0.521-0.901-0.803
        C32,69.644,32.02,65.902,32.02,62.045z"/>
<path fill-rule="evenodd" clip-rule="evenodd" fill="#999" d="M45.093,62.079c0.708,0,1.248,0,1.857,0
        c0.044,0.237,0.121,0.463,0.121,0.688c0.006,3.427-0.041,6.854,0.019,10.28c0.025,1.493-0.97,1.117-1.785,1.174
        c-0.882,0.061-1.474-0.131-1.425-1.22c0.058-1.31,0.014-2.625,0.014-4.009c1.133-0.103,1.247-0.828,1.216-1.754
        C45.052,65.571,45.093,63.9,45.093,62.079z"/>
<path fill-rule="evenodd" clip-rule="evenodd" fill="#999" d="M71.962,68.927c1.102-0.039,1.247-0.661,1.218-1.537
        c-0.059-1.742-0.018-3.488-0.018-5.307c0.675,0,1.216,0,1.852,0c0.037,0.279,0.112,0.581,0.113,0.883
        c0.008,3.311-0.05,6.623,0.031,9.932c0.032,1.352-0.689,1.332-1.654,1.339c-0.971,0.007-1.637-0.102-1.56-1.335
        C72.025,71.633,71.962,70.354,71.962,68.927z"/>
<path fill-rule="evenodd" clip-rule="evenodd" fill="#999" d="M22.004,68.601c0.474,0.163,0.806,0.277,1.185,0.408
        c0,1.382-0.013,2.736,0.004,4.09c0.013,1.012-0.594,1.184-1.418,1.12c-0.784-0.06-1.814,0.301-1.84-1.05
        c-0.022-1.197-0.021-2.395,0.01-3.592c0.006-0.237,0.179-0.658,0.313-0.674c1.099-0.129,0.889-0.935,0.895-1.622
        c0.01-1.357-0.03-2.716,0.024-4.07c0.016-0.394,0.283-0.778,0.436-1.167c0.13,0.372,0.365,0.742,0.374,1.116
        C22.026,64.952,22.004,66.744,22.004,68.601z"/>
<path fill-rule="evenodd" clip-rule="evenodd" fill="#999" d="M40.434,69.085c0.225-0.513,0.615-1.016,0.645-1.539
        c0.088-1.551,0.013-3.11,0.055-4.665c0.008-0.284,0.271-0.562,0.416-0.842c0.141,0.269,0.395,0.535,0.402,0.808
        c0.04,1.515,0.019,3.031,0.021,4.547c0.002,1.169,0.004,1.169,1.201,1.592c0,1.403,0.058,2.84-0.042,4.266
        c-0.023,0.342-0.517,0.77-0.893,0.933c-0.369,0.16-0.862,0.03-1.301,0.034c-0.65,0.007-0.931-0.31-0.923-0.959
        c0.018-1.396,0.006-2.791,0.006-4.187C40.158,69.077,40.296,69.081,40.434,69.085z"/>
<path fill-rule="evenodd" clip-rule="evenodd" fill="#999" d="M59.237,69.036c0,1.366-0.008,2.761,0.003,4.154
        c0.006,0.695-0.313,0.985-1.008,1.035c-2.076,0.15-2.176,0.08-2.193-1.974c-0.006-0.718-0.02-1.436-0.008-2.153
        c0.01-0.575-0.127-1.195,0.72-1.422c0.195-0.052,0.335-0.653,0.344-1.006c0.035-1.596-0.006-3.192,0.032-4.787
        c0.007-0.287,0.252-0.567,0.388-0.852c0.171,0.29,0.479,0.575,0.489,0.87c0.051,1.475,0.022,2.952,0.024,4.428
        C58.03,68.551,58.032,68.551,59.237,69.036z"/>
<path fill-rule="evenodd" clip-rule="evenodd" fill="#999" d="M68.089,68.912c1.048,0.015,1.089-0.66,1.071-1.443
        c-0.033-1.515-0.033-3.031,0.01-4.546c0.01-0.332,0.261-0.657,0.399-0.985c0.147,0.046,0.294,0.092,0.44,0.137
        c0,2.173,0,4.346,0,6.523c0.455,0.132,0.794,0.23,1.231,0.358c0,1.438,0.05,2.909-0.04,4.372c-0.02,0.311-0.498,0.728-0.851,0.85
        c-0.428,0.147-0.986,0.149-1.411-0.001c-0.343-0.122-0.793-0.551-0.813-0.866C68.041,71.883,68.089,70.446,68.089,68.912z"/>
<path fill-rule="evenodd" clip-rule="evenodd" fill="#999" d="M7.918,68.899c1.245-0.002,1.217-0.765,1.17-1.697
        c-0.075-1.472-0.012-2.952,0.04-4.427c0.009-0.249,0.251-0.49,0.385-0.735c0.135,0.242,0.379,0.48,0.389,0.728
        c0.069,1.665,0.051,3.334,0.152,4.996c0.022,0.367,0.409,0.712,0.625,1.068c0.144,0.235,0.395,0.471,0.404,0.713
        c0.047,1.235,0.027,2.474,0.038,3.711c0.008,0.818-0.488,1.056-1.175,0.951c-0.732-0.111-1.889,0.498-2-0.838
        C7.826,71.91,7.918,70.434,7.918,68.899z"/>
<path fill-rule="evenodd" clip-rule="evenodd" fill="#999" d="M25.608,61.96c0.107,0.318,0.299,0.636,0.306,0.957
        c0.033,1.515,0.057,3.032,0,4.546c-0.032,0.854,0.157,1.421,1.206,1.407c0,1.548,0.049,3.018-0.04,4.479
        c-0.019,0.304-0.504,0.668-0.854,0.835c-0.293,0.14-0.707,0.006-1.063,0.037c-0.863,0.076-1.243-0.27-1.213-1.165
        c0.044-1.313,0.011-2.629,0.011-4.049c1.187-0.114,1.218-0.926,1.187-1.87c-0.057-1.694-0.016-3.393-0.016-5.089
        C25.291,62.019,25.449,61.989,25.608,61.96z"/>
<path fill-rule="evenodd" clip-rule="evenodd" fill="#999" d="M55.177,68.925c0,1.522-0.027,2.881,0.01,4.238
        c0.021,0.786-0.317,1.041-1.068,1.067c-2.037,0.069-2.094,0.04-2.09-1.972c0.002-0.999,0.006-1.999,0.013-2.998
        c0.001-0.078,0.031-0.156,0.062-0.302c1.024-0.094,1.134-0.788,1.098-1.681c-0.06-1.478-0.038-2.959,0.005-4.438
        c0.008-0.272,0.278-0.536,0.428-0.805c0.116,0.26,0.327,0.517,0.333,0.778c0.032,1.479,0.059,2.96,0.001,4.438
        C53.932,68.148,54.033,68.85,55.177,68.925z"/>
<path fill-rule="evenodd" clip-rule="evenodd" fill="#999" d="M39.158,68.94c0,1.451-0.02,2.843,0.006,4.232
        c0.022,1.208-0.823,1.059-1.572,1.039c-0.716-0.019-1.625,0.241-1.615-0.994c0.011-1.393,0.002-2.785,0.002-4.242
        c1.054-0.085,1.271-0.69,1.219-1.627c-0.081-1.471-0.036-2.949-0.008-4.424c0.006-0.313,0.168-0.621,0.258-0.933
        c0.123,0.014,0.246,0.026,0.37,0.04c0.048,0.32,0.134,0.64,0.138,0.961c0.015,1.436,0.05,2.872-0.009,4.305
        C37.91,68.198,38.013,68.899,39.158,68.94z"/>
</svg>
