<svg id="Layer_1" data-name="Layer 1" xmlns="http://www.w3.org/2000/svg" viewBox="0 0 663.41 199.53"><path d="M34.35,99.8a118.87,118.87,0,0,0,4.78,30.94,104.57,104.57,0,0,0,23.31,41c1.14,1.25,2.18,2.58,3.15,3.74L41,199.53c-3.73-4.36-8-9-11.82-13.91a138.14,138.14,0,0,1-26.69-59.7C1.13,118.48.78,110.85,0,103.3a18.94,18.94,0,0,1,.26-3.5Z" style="fill:#fdc31b"/><path d="M34.35,99.8H.29c.15-4.69,0-9.41.51-14.07A139.82,139.82,0,0,1,39.23,2.33C40,1.58,40.65.8,41.38,0c.07-.07.25,0-.25,0l24.47,24-5,5.83A104.46,104.46,0,0,0,35.24,88.06C34.82,92,34.64,95.89,34.35,99.8Z" style="fill:#4967b1"/><path d="M109.3,67.91l-.41-3.52a7.17,7.17,0,0,0-4.26-1.32c-5.46,0-7.63,3.08-7.63,8.86,0,6,3.16,9.51,7.63,9.51,4.18,0,5.29-2,5.57-2.91V76.07h-5V72.13h10.34V85.58H112l-.66-2.09c-1.56,1.52-4.06,2.87-8.08,2.87-8.4,0-12.79-5.86-12.79-14.47,0-8.45,5.54-13.65,13.49-13.65a11.85,11.85,0,0,1,5.58,1.8l.7-1.39h3.6v9.26Z" style="fill:#fff"/><path d="M125.62,77.05c.49,3.53,2.38,4.93,5.45,4.93a7.35,7.35,0,0,0,5.17-2.26l2.75,3a10,10,0,0,1-8.2,3.69c-7,0-11.28-3.77-11.28-11.11S124,64.34,130,64.34s9.3,3.24,9.3,9.11a8,8,0,0,1-.82,3.6Zm0-3.89h8.2s0-.53,0-.9c0-2.22-1.07-3.73-3.81-3.73S126,70.08,125.58,73.16Z" style="fill:#fff"/><path d="M141.9,85.58l-.29-4.26,2.3-.25V69.59l-2.14-.24.25-4.27h7.13l.5,1.44h0s1.84-2.18,6.6-2.18,7.5,2,7.5,6.89V81.4l2.26.17-.25,4h-8V72.34c0-2.21-1-3.08-3.56-3.08a6.52,6.52,0,0,0-4.27,1.48V81.4l2.26.17-.25,4Z" style="fill:#fff"/><path d="M173.88,77.05c.49,3.53,2.37,4.93,5.45,4.93a7.35,7.35,0,0,0,5.17-2.26l2.74,3a10,10,0,0,1-8.2,3.69c-7,0-11.27-3.77-11.27-11.11s4.47-10.91,10.49-10.91,9.31,3.24,9.31,9.11a8,8,0,0,1-.82,3.6Zm0-3.89H182s.05-.53.05-.9c0-2.22-1.07-3.73-3.82-3.73S174.2,70.08,173.83,73.16Z" style="fill:#fff"/><path d="M190.15,85.58l-.28-4.26,2.29-.25V69.59l-2.5-.24.29-4.27h6.89l.61,2.46h.12a6.07,6.07,0,0,1,5.25-3.24,9.5,9.5,0,0,1,4,.78l0,7.46h-4.3L202.25,69h-.62a3.66,3.66,0,0,0-3.44,2.25V81.4l2.87.17-.25,4Z" style="fill:#fff"/><path d="M210.2,72l.25-7.26H214l.49,1.23a9.81,9.81,0,0,1,5.29-1.64c4.51,0,7.7,2.3,7.7,8V81.4l2.26.17-.29,4h-6.89l-.77-2s-1.36,2.79-6.11,2.79-7.43-2.42-7.43-6.23c0-6,7.79-6.72,13.21-7.26v-.41c0-2.95-.95-3.93-3.28-3.93A4.92,4.92,0,0,0,215,69.59L214.67,72Zm11.28,8.08V76.56c-4.31.33-7,.62-7,3,0,1.92,1.06,2.74,3.11,2.74A4.1,4.1,0,0,0,221.48,80.09Z" style="fill:#fff"/><path d="M231.69,85.58l-.25-4.26,2.25-.25V59.34l-2.13-.24.29-4.27h7.87V81.4l2.3.17-.29,4Z" style="fill:#fff"/><path d="M244.31,85.58l-.24-4.26,2.25-.25V59.34l-2.13-.24.29-4.27h7.87V73.2L255.1,72l1.72-2.83-.86-.12.24-4h9.6v4.27l-4.1.57-3,4.14,4.35,6.85,4,.12-.29,4.55h-7l-1.64-1.64-4.51-7.17-1.23.53v4.35l1.72.2-.29,3.73Z" style="fill:#fff"/><path d="M268.17,75.13c0-6.81,3.9-10.79,11-10.79s11,4,11,10.79-4.18,11.23-11,11.23C272.07,86.36,268.17,81.93,268.17,75.13Zm15.83.08c0-4.26-1.31-6.68-4.8-6.68s-4.79,2.46-4.79,6.68,1.31,7,4.79,7S284,79.47,284,75.21Z" style="fill:#fff"/><path d="M292.94,85.58l-.29-4.26,2.3-.25V69.59l-2.13-.24.24-4.27h7.14l.49,1.44h0s1.84-2.18,6.6-2.18,7.5,2,7.5,6.89V81.4l2.26.17-.25,4h-8V72.34c0-2.21-1-3.08-3.57-3.08A6.52,6.52,0,0,0,301,70.74V81.4l2.26.17-.25,4Z" style="fill:#fff"/><path d="M331.36,71.36,331,69.51a5.51,5.51,0,0,0-3.2-1.11c-1.48,0-2.63.62-2.63,1.73,0,3.19,10.87,2.37,10.87,9.06,0,4.18-2.66,7.17-9.68,7.17a21,21,0,0,1-6.8-1l-.53-6.15,3.69-.25.41,2.91a12.62,12.62,0,0,0,3.07.41c2.54,0,3.65-1,3.65-2.34,0-3.32-10.62-1.8-10.62-9.1,0-4,3.44-6.48,7.67-6.48a9.07,9.07,0,0,1,4.79,1.52l.66-1.11h2.95l0,6.61Z" style="fill:#fff"/><path d="M353.82,69.59l-2.13-.24.29-4.27h7.91V81.4l2.26.17-.29,4H354.6l-.45-1.39h-.08s-1.85,2.17-6.6,2.17-7.51-3-7.51-7.79v-9l-2.13-.24.29-4.27H346V77.46c0,2.26,1,3.94,3.57,3.94a6.31,6.31,0,0,0,4.22-1.48Z" style="fill:#fff"/><path d="M364.48,85.58l-.24-4.26,2.25-.25V59.34l-2.13-.24.29-4.27h7.87V81.4l2.29.17-.28,4Z" style="fill:#fff"/><path d="M378.83,72l.25-7.26h3.57l.49,1.23a9.81,9.81,0,0,1,5.29-1.64c4.51,0,7.7,2.3,7.7,8V81.4l2.26.17-.29,4h-6.89l-.77-2s-1.36,2.79-6.11,2.79-7.42-2.42-7.42-6.23c0-6,7.79-6.72,13.2-7.26v-.41c0-2.95-.95-3.93-3.28-3.93a4.92,4.92,0,0,0-3.24,1.06L383.3,72Zm11.28,8.08V76.56c-4.31.33-7,.62-7,3,0,1.92,1.06,2.74,3.11,2.74A4.09,4.09,0,0,0,390.11,80.09Z" style="fill:#fff"/><path d="M408.31,69.63v8.7c0,2.21.66,3.32,2.34,3.32a20.46,20.46,0,0,0,2.79-.25v3.81a10,10,0,0,1-4.68.82c-4.3,0-6.48-1.64-6.48-6.27V69.63H400V65.37l2.34-.21.86-6.23h5.12v6.15h5.41v4.55Z" style="fill:#fff"/><path d="M444.35,85.58l-.49-1.43s-1.64,2.21-6.28,2.21c-5.69,0-9.47-4.79-9.47-11,0-6.72,3.57-11,9.47-11,4.1,0,5.83,1.48,5.83,1.48h.2V59.34l-2.17-.24.29-4.27h7.87V81.4l2.25.17-.24,4Zm-.74-5.78V70.25a5.23,5.23,0,0,0-3.93-1.52c-3.78,0-5.29,2-5.29,6.44s1.56,6.72,5,6.72A5.15,5.15,0,0,0,443.61,79.8Z" style="fill:#fff"/><path d="M460.09,77.05c.5,3.53,2.38,4.93,5.46,4.93a7.31,7.31,0,0,0,5.16-2.26l2.75,3a10,10,0,0,1-8.2,3.69c-7,0-11.27-3.77-11.27-11.11s4.46-10.91,10.49-10.91,9.31,3.24,9.31,9.11a8,8,0,0,1-.82,3.6Zm0-3.89h8.2s0-.53,0-.9c0-2.22-1.06-3.73-3.81-3.73S460.42,70.08,460.05,73.16Z" style="fill:#fff"/><path d="M476.37,85.58l-.29-4.26,2.3-.25V69.59l-2.5-.24.28-4.27h6.89l.62,2.46h.12A6.07,6.07,0,0,1,489,64.3a9.5,9.5,0,0,1,4,.78l0,7.46h-4.31L488.47,69h-.62a3.66,3.66,0,0,0-3.44,2.25V81.4l2.87.17-.25,4Z" style="fill:#fff"/><path d="M516.26,63.16V74.23c0,4,1.56,6.88,5.74,6.88s5.79-2.91,5.79-6.88V63.4l-3.29-.2.29-4.27h11.69v4l-2.83.33V75.5c0,5.82-3.16,10.86-11.85,10.86S510,81.32,510,75.5V63.16l-3.12-.25.29-4h12v4Z" style="fill:#fff"/><path d="M538.53,85.58l-.25-4.26,2.26-.25V59.34l-2.14-.24.29-4.27h7.87V73.2L549.31,72,551,69.18l-.86-.12.25-4H560v4.27l-4.1.57-3,4.14,4.34,6.85,4,.12L561,85.58h-7l-1.64-1.64-4.51-7.17-1.23.53v4.35l1.72.2L548,85.58Z" style="fill:#fff"/><path d="M562.92,85.58l-.29-4.26,2.3-.25V69.59l-2.5-.24.29-4.27h6.88l.62,2.46h.12a6.07,6.07,0,0,1,5.25-3.24,9.5,9.5,0,0,1,4,.78l0,7.46h-4.31L575,69h-.62A3.66,3.66,0,0,0,571,71.27V81.4l2.87.17-.25,4Z" style="fill:#fff"/><path d="M583,72l.25-7.26h3.56l.49,1.23a9.83,9.83,0,0,1,5.29-1.64c4.51,0,7.71,2.3,7.71,8V81.4l2.26.17-.29,4h-6.89l-.78-2s-1.35,2.79-6.11,2.79S581,83.94,581,80.13c0-6,7.79-6.72,13.21-7.26v-.41c0-2.95-1-3.93-3.29-3.93a4.91,4.91,0,0,0-3.23,1.06L587.44,72Zm11.28,8.08V76.56c-4.31.33-7,.62-7,3,0,1.92,1.07,2.74,3.12,2.74A4.1,4.1,0,0,0,594.25,80.09Z" style="fill:#fff"/><path d="M604.78,85.58l-.29-4.26,2.3-.25V69.59l-2.13-.24.24-4.27h7.92V81.4l2.25.17-.24,4Zm5-23.49a3.23,3.23,0,0,1-3.52-3.24,3.5,3.5,0,0,1,7,0A3.13,3.13,0,0,1,609.82,62.09Z" style="fill:#fff"/><path d="M617.74,85.58l-.29-4.26,2.3-.25V69.59l-2.14-.24.25-4.27H625l.5,1.44h0s1.84-2.18,6.6-2.18,7.5,2,7.5,6.89V81.4l2.26.17-.25,4h-8V72.34c0-2.21-1-3.08-3.56-3.08a6.52,6.52,0,0,0-4.27,1.48V81.4l2.26.17-.25,4Z" style="fill:#fff"/><path d="M649.72,77.05c.49,3.53,2.37,4.93,5.45,4.93a7.31,7.31,0,0,0,5.16-2.26l2.75,3a10,10,0,0,1-8.2,3.69c-7,0-11.27-3.77-11.27-11.11s4.47-10.91,10.49-10.91,9.31,3.24,9.31,9.11a8,8,0,0,1-.82,3.6Zm-.05-3.89h8.2s0-.53,0-.9c0-2.22-1.07-3.73-3.82-3.73S650,70.08,649.67,73.16Z" style="fill:#fff"/><path d="M89.23,134.84l-.08-1.31,2.58,0v-17.8l-2.58,0,.08-1.31h4.23v19.23l2.54,0-.08,1.23Zm3.32-25.13a1,1,0,0,1-1.14-1.11,1.17,1.17,0,0,1,2.33,0C93.74,109.26,93.41,109.71,92.55,109.71Z" style="fill:#fff"/><path d="M99.61,134.84l-.09-1.31,2.59,0v-17.8l-2.59,0,.09-1.31h4l.17,2c.49-.49,2.62-2.5,7.25-2.5,4.35,0,7.22,1.72,7.22,6v13.65l2.54,0-.08,1.23H116.5v-14.6c0-3.52-2.38-4.87-6-4.87-4.67,0-6.68,2.41-6.68,2.41v15.79l2.54,0-.08,1.23Z" style="fill:#fff"/><path d="M135,133.53l3.36,0v-24l-3.44,0,.08-1.23h12.13c8.45,0,13.58,4.31,13.58,13s-5.05,13.69-13.53,13.69H135.07Zm5.17-23.86v23.7h7c7.34,0,11.68-4.39,11.68-12.22s-4.39-11.48-11.73-11.48Z" style="fill:#fff"/><path d="M181.85,115.69l-2.54,0,0-1.31h4.26v19.23l2.55,0-.09,1.23h-4l-.17-2.09c-.41.45-2.5,2.54-7.25,2.54-4.35,0-7.18-2.54-7.18-6.84V115.69l-2.58,0,.08-1.31h4.22v13.78c0,3.48,2.38,5.7,6,5.7,4.63,0,6.64-2.42,6.64-2.42Zm-9.59-6.19a.87.87,0,0,1-1-.9.9.9,0,0,1,1-.94.91.91,0,0,1,1,.94C173.28,109.34,172.71,109.5,172.26,109.5Zm6.43,0a.86.86,0,0,1-1-.9.89.89,0,0,1,1-.94.92.92,0,0,1,1,.94C179.72,109.34,179.14,109.5,178.69,109.5Z" style="fill:#fff"/><path d="M203.17,119.3l-.12-2.09a6.9,6.9,0,0,0-5-2.09c-3.16,0-5.33,1.39-5.33,3.65,0,6.15,12.91,3.28,12.91,10.45,0,3.08-2.34,6.07-8.32,6.07a16.57,16.57,0,0,1-6.68-1.11l-.17-4.63,1.11-.08.12,3.69a17.76,17.76,0,0,0,5.58.86c4.71,0,6.6-2.34,6.6-4.63,0-6.11-12.88-3-12.88-10.46,0-3.11,2.87-5,6.81-5a8.4,8.4,0,0,1,5.29,2l.29-1.6h.94v5Z" style="fill:#fff"/><path d="M222.73,119.3l-.13-2.09a6.88,6.88,0,0,0-5-2.09c-3.15,0-5.33,1.39-5.33,3.65,0,6.15,12.92,3.28,12.92,10.45,0,3.08-2.34,6.07-8.32,6.07a16.65,16.65,0,0,1-6.69-1.11l-.16-4.63,1.1-.08.13,3.69a17.69,17.69,0,0,0,5.57.86c4.72,0,6.61-2.34,6.61-4.63,0-6.11-12.88-3-12.88-10.46,0-3.11,2.87-5,6.81-5a8.43,8.43,0,0,1,5.29,2l.28-1.6h.95v5Z" style="fill:#fff"/><path d="M230.76,124.47v0c0,6.15,3.2,9.47,8.16,9.47a8,8,0,0,0,6.64-3l.87.9s-2.14,3.4-7.59,3.4c-5.94,0-9.8-3.85-9.8-10.74,0-6.72,3.53-10.66,9.43-10.66,5.13,0,8.08,2.71,8.08,8.69a6.26,6.26,0,0,1-.29,1.89Zm0-1.19h14.11s0-.53,0-1c0-4.83-2.3-7.09-6.48-7.09C233.72,115.16,231.13,118.24,230.8,123.28Z" style="fill:#fff"/><path d="M250.07,134.84l-.08-1.31,2.58,0V105.44l-2.58,0,.08-1.31h4.23v29.48l2.54,0-.08,1.23Z" style="fill:#fff"/><path d="M277,134.84l-.16-2.83c-.37.62-2.22,3.28-6.89,3.28-5.54,0-9.35-3.93-9.35-10.49,0-6.77,3.2-10.91,9.76-10.91,4.59,0,6.48,2.21,6.48,2.21V105.44l-2.63,0,.08-1.31h4.27v29.48l2.54,0-.08,1.23Zm-.16-4.39v-13a7.75,7.75,0,0,0-5.91-2.26c-6,0-8.53,3.53-8.53,9.55s3.12,9.19,8,9.19A7.1,7.1,0,0,0,276.85,130.45Z" style="fill:#fff"/><path d="M284.88,124.43c0-6.56,3.24-10.54,9.68-10.54s9.63,4,9.63,10.54-3.28,10.86-9.63,10.86S284.88,131.07,284.88,124.43Zm17.51,0c0-5.82-2.5-9.31-7.83-9.31s-7.87,3.49-7.87,9.31,2.54,9.55,7.87,9.55S302.39,130.33,302.39,124.47Z" style="fill:#fff"/><path d="M308.17,134.84l-.08-1.31,2.58,0v-17.8l-2.66,0,.08-1.31H312l.17,3.53c.16-.33,2.17-4,6.11-4a13,13,0,0,1,3.36.49v5.29h-1.31l-.08-4.18a17.53,17.53,0,0,0-2.3-.17c-3.73,0-5.58,3.73-5.58,3.73v14.56l2.71,0-.08,1.23Z" style="fill:#fff"/><path d="M337.2,109.13l-.13-2.62a4.26,4.26,0,0,0-3.28-1.52c-3,0-4.05,1.4-4.05,6.23v3.12h7.46v1.35h-7.46v17.88l2.54,0-.08,1.23h-6.69l-.08-1.31,2.58,0v-17.8h-2.62v-1.27l2.62-.08v-3.28c0-5.41,1.52-7.42,5.42-7.42a5.68,5.68,0,0,1,3.77,1.48l.24-1.11h1v5.12Z" style="fill:#fff"/></svg>