<?xml version="1.0" encoding="utf-8"?>
<!-- Generator: Adobe Illustrator 24.1.2, SVG Export Plug-In . SVG Version: 6.00 Build 0)  -->
<svg version="1.1" id="Layer_1" xmlns="http://www.w3.org/2000/svg" xmlns:xlink="http://www.w3.org/1999/xlink" x="0px" y="0px"
	 viewBox="0 0 448.8 364.2" style="enable-background:new 0 0 448.8 364.2;" xml:space="preserve">
<style type="text/css">
	.st0{fill:none;}
	.st1{fill-rule:evenodd;clip-rule:evenodd;fill:#FFFFFF;}
</style>
<rect id="backgroundrect" x="-24.8" y="-27.9" class="st0" width="495.1" height="416.4"/>
<g>
	<path id="svg_12" class="st1" d="M110.1,287.7l-4.1,11l-5,5l6-16.3L81.4,161l22.4-60.9l4.9-5l-24.2,66.1L110.1,287.7z M60.2,143.7
		l-1.8,1.8l-5,5l-0.6,0.7l16-79.2l-6.1-16.6l-5-5l8.1,21.8L49,155l-0.6,0.6l-5,5l-3.3,8.8l20.7-102l-8.1-22.1l-5-5l10,27.4
		L33.4,187.9l-0.2,0.4v0.1l-1.1,5.7l4.6,12.6l0.5,1.3l4,19.5l-14.1-38.2L52.8,62.9L42.6,35.2l-5-5l12.1,32.9L24.1,189.5l16.2,44.3
		l2.7,2.7l15.8,78.2l-18.1,49.5l4.9-5l16.3-44.3l-15.1-74.6l3.6,3.6l3.8,3.8l12.7,62.4l-16.2,44l5-5L70,310.4l-12-58.9l7.4,7.5
		l9.2,45.3l0.3,1.3L60.8,344l5-5l5.1-5l4.9-5L86,301.3L60.4,174.9l18.2-49.5l5-5.1l-18.3,49.8L91,296.5l-10.1,27.4l5-5l8.2-22.2
		L68.4,170.3l20.2-55l-3.8,3.9l23.9-24.1L67.8,60.4l6,16.3L60.2,143.7z M78,276.6l-2.5-7.6l-11.1-30.2l-10.2-50.4l4.1-8.9L78,276.6z
		 M44.7,58.4L32.5,25.1l-5-5l14.2,38.5L16,185l14.3,38.7l5,5l-16.2-43.9L44.7,58.4z M36.7,53.8L22.5,15.1l-5-5L33.6,54L8,180.5
		l12.2,33.2l5,5l-14.1-38.5L36.7,53.8z M102.1,292.2L96,308.8l-5,5l8-21.8L73.4,165.5l20.3-55.3l5-5l-22.3,60.6L102.1,292.2z
		 M28.7,49.3L12.4,5l-5-5l18.2,49.5L0,175.9l10.1,27.7l5,5L3,175.7L28.7,49.3z"/>
	<path id="svg_13" class="st1" d="M108.3,278.9l-2.2,2.2l1.7-4.6L108.3,278.9z M88.7,149.6l-1.1-5.5l2-5.4l1.1,5.6L88.7,149.6z
		 M86.5,138.4l10.6-29L86.5,138.4z M98.7,105.2l5.2-14.2l2.4,2.1l-2.6,7.1L98.7,105.2z M104.7,276.2l-1.1-5.6l0.5-1.2L81.9,159.7
		l1.9-5.3l1.1,5.6l-0.4,1.2l22.2,109.7L104.7,276.2z M60.2,143.7l-1.8,1.8l-5,5l-0.6,0.7l16-79.2l-1.6-4.5l-13.1,64.9l-0.6,0.6h-0.1
		L49,155l-0.6,0.6l-5,5l-3.3,8.8l20.7-102L59.2,63L38.4,165.3l-0.1,0.4v0.1l-1.1,5.7l4.6,12.6l0.5,1.3l3.9,19.5l-10.5-28.7l-1.1,5.6
		l10.8,29.4l2.7,2.7l15.8,78.2l-0.4,1.3l1.1,5.5l2-5.3L58,251.5l0.9,0.9l-7-34.7l3.6,3.6l3.8,3.8L72,287.6l-0.5,1.2l1.1,5.6l2.4-6.6
		l-9-44.7l-1.6-4.3l-10.2-50.4l4.1-8.9l11.3,56l0.9,0.9l9.2,45.3L80,283l-6.2,17l0.8,4.3l0.3,1.3l-4,10.8l5-5l5-5l4-10.7L60.4,174.9
		l0.4-1.3l-1.5-7.8l4.1-8.9l1.3,6.3l1.9-5.3l-1.1-5.6l18.1-49.5l5.1-5.1l-18.3,49.8l8.2-22.1l5-5l10.1-27.7l-3.8,3.9l9.4-9.5
		L76.2,67.5l-10.9,53.7l-0.7,0.6L60.2,143.7z M63.4,57.2l-0.7-1.8l-1.6-1.7l-0.8,3.7l2,5.3L63.4,57.2z M55.4,52.6l-2-5.3l-1.1,5.5
		l1.9,5.4L55.4,52.6z M48.7,41.3l-1-1l0.8,2.2L48.7,41.3z M33.4,187.4v0.5l-0.2,0.4v0.1l-0.9,4.5l3.1,8.3l4.9,5L33.4,187.4z
		 M29.2,195l-2.1-5.7l0.3-1.1l-2-5.4l-1.1,5.6l1,2.7L29.2,195z M28.5,182.6l1.1-5.6l-1.9-5.3l-1.1,5.5L28.5,182.6z M30.8,171.4
		l22-108.5l-1.7-4.4L29.1,167L30.8,171.4z M47.3,48.1l-1.9-5.3l-1.2,5.5l2,5.3L47.3,48.1z M41.3,33.9l-2.7-2.6l0.1,0.1l-0.2,1.2
		l1.9,5.3L41.3,33.9z M57.7,309.1l1.1,5.5l2-5.3l-1.1-5.6L57.7,309.1z M55.8,331.5l6.1-16.6L55.8,331.5z M65.7,304.5l1.2,5.6
		l1.9-5.4l-1.1-5.5L65.7,304.5z M65.9,321.4l4.1-11L65.9,321.4z M73.5,147.8l-1.9,5.3l1.1,5.6l1.9-5.4L73.5,147.8z M67.8,163.5
		l-2,5.3L83.1,254l-1.9-5.8l7.5,37.1l1.9-5.3L68.4,170.3l0.5-1.2L67.8,163.5z M89.8,290.9l1.1,5.5l0.1-0.1l1.9-5.2l-1.1-5.5
		L89.8,290.9z M78.5,143l10.1-27.7L78.5,143z M88.6,115.3l5-5l7.9-21.3l-2.2-1.9l-0.5,0.5L88.6,115.3z M71.1,63.3l-2.6-2.2l-0.2,0.8
		l2,5.4L71.1,63.3z M44.7,58.4l-1.6-4.5l-22,108.5l1.6,4.5L44.7,58.4z M39.3,43.5l-2-5.3l-1.1,5.6l2,5.3L39.3,43.5z M33.5,27.9
		l-1-2.8l-3.9-3.9l2.1,5.7l-0.3,1.2l2,5.3L33.5,27.9z M19.6,167.1l-1.1,5.6l2,5.3l1.1-5.5L19.6,167.1z M17.4,178.3l-0.8,4l2.6,2.7
		l-0.1-0.2l0.2-1.2L17.4,178.3z M36.7,53.8l-1.6-4.4l-22,108.5l1.6,4.4L36.7,53.8z M31.3,39l-2-5.3l-1.1,5.5l1.9,5.4L31.3,39z
		 M11.6,162.6l-1.1,5.5l2,5.4l1.1-5.6L11.6,162.6z M98.4,288.9l-0.5-2.5l1.9-5.4l1.1,5.4L98.4,288.9z M96.7,280.7l-1.1-5.5l0.5-1.3
		L73.8,164.3l2-5.3l1.1,5.5l-0.5,1.3l22.3,109.6L96.7,280.7z M79.6,148.6l2-5.3l1.1,5.5l-2,5.3L79.6,148.6z M28.7,49.3L27,44.8
		L5,153.3l1.7,4.5L28.7,49.3z"/>
	<path id="svg_20" class="st1" d="M410.6,226.2v-7.9h-4.7l-4.2,7.9h-2.9l4.8-8.6c-2.7-1-4-2.9-4-5.5c0-2,0.7-3.5,1.9-4.6
		c1.3-1,3.1-1.6,5.3-1.6h6.5v20.3L410.6,226.2z M402.3,212.1c0,1.2,0.4,2.2,1.1,2.9c0.8,0.8,1.9,1.1,3.2,1.1h4v-8h-3.8
		c-1.5,0-2.6,0.4-3.4,1.1C402.7,209.9,402.3,210.8,402.3,212.1L402.3,212.1z M388,226.2h-2.7v-20.3h2.7V226.2z M373.3,226.2h-2.7
		v-9.3h-10.2v9.3h-2.7v-20.3h2.7v8.8h10.2v-8.8h2.7V226.2z M346.6,216.7c0,2-0.3,3.8-1,5.3c-0.7,1.4-1.6,2.6-2.8,3.4
		c-1.3,0.7-2.7,1.1-4.3,1.1c-1.6,0-3.1-0.4-4.3-1.1c-1.2-0.8-2.2-2-2.9-3.4c-0.7-1.5-1-3.2-1-5.1v-1.4c0-2,0.3-3.7,1-5.2
		s1.6-2.7,2.9-3.5c1.2-0.7,2.6-1.1,4.2-1.1c1.7,0,3.1,0.3,4.3,1.1c1.3,0.8,2.2,2,2.9,3.5c0.7,1.4,1,3.2,1,5.2L346.6,216.7z
		 M343.9,215.4c0-2.4-0.4-4.2-1.4-5.5s-2.3-1.9-4.1-1.9c-1.7,0-3,0.6-4,1.9c-0.9,1.3-1.4,3.1-1.5,5.4v1.4c0,2.4,0.5,4.2,1.5,5.5
		c1,1.4,2.3,2,4.1,2c1.7,0,3-0.6,4-1.8c0.9-1.3,1.4-3.1,1.4-5.5V215.4z M302.4,205.9l6.7,16.6l6.6-16.6h3.5v20.3h-2.7v-7.9l0.3-8.5
		l-6.7,16.4H308l-6.6-16.4l0.3,8.5v7.9H299v-20.3H302.4z M276.6,218.3v7.9h-2.7v-20.3h7.5c2.2,0,4,0.6,5.2,1.7
		c1.3,1.2,1.9,2.7,1.9,4.6c0,1.9-0.6,3.4-1.8,4.5c-1.3,1.1-3,1.6-5.3,1.6H276.6z M276.6,216.1h4.8c1.4,0,2.5-0.3,3.3-1
		c0.7-0.7,1.1-1.7,1.1-2.9s-0.4-2.2-1.1-2.9c-0.8-0.8-1.8-1.1-3.2-1.2h-4.9L276.6,216.1z M259.4,220.9h-8.5l-1.9,5.3h-2.8l7.8-20.3
		h2.3l7.8,20.3h-2.7L259.4,220.9z M251.7,218.7h6.9l-3.4-9.5L251.7,218.7z M236,205.9v20.3h-2.6v-18.1h-7.3l-0.4,8.1
		c-0.1,2.7-0.4,4.7-0.8,6.1c-0.4,1.3-1,2.3-1.8,3c-0.8,0.6-1.9,0.9-3.2,0.9H219V224h0.5c0.9,0,1.6-0.3,2-0.8
		c0.5-0.5,0.9-1.3,1.1-2.4c0.2-1.1,0.4-2.8,0.5-5l0.4-9.9L236,205.9z M208.5,226.2h-2.7v-20.3h2.7V226.2z M186.5,208h0.5
		c1.5,0,2.9,0.4,4.2,1.1c1.2,0.7,2.2,1.6,2.9,2.9c0.7,1.2,1.1,2.6,1.1,4.1c0,1.6-0.4,3-1.1,4.2c-0.7,1.3-1.7,2.3-2.9,3
		c-1.3,0.7-2.7,1-4.2,1h-0.5v2.8h-2.6v-2.8h-0.4c-1.5,0-2.9-0.3-4.2-1s-2.2-1.7-3-2.9c-0.7-1.3-1-2.7-1-4.2c0-1.6,0.3-3,1-4.2
		c0.8-1.3,1.7-2.2,3-2.9c1.3-0.8,2.7-1.1,4.2-1.1h0.4v-2.9h2.6V208z M183.5,210.1c-1.7,0-3.1,0.5-4.1,1.6s-1.5,2.6-1.5,4.5
		s0.5,3.4,1.5,4.4c1,1.1,2.4,1.6,4.2,1.6h0.3v-12.1H183.5z M186.5,210.1v12.1h0.4c1.8,0,3.2-0.5,4.2-1.6s1.5-2.6,1.5-4.5
		c0-1.8-0.5-3.3-1.5-4.4c-1-1-2.4-1.6-4.2-1.6H186.5z M444.1,186.7h-8.5l-1.9,5.3h-2.8l7.8-20.3h2.3l7.8,20.3h-2.7L444.1,186.7z
		 M436.4,184.5h6.9l-3.4-9.5L436.4,184.5z M420.8,192h-2.6v-9.4h-10.3v9.4h-2.7v-20.3h2.7v8.7h10.3v-8.7h2.6V192z M382.8,179.9h5.1
		c2.1,0.1,3.8,0.6,4.9,1.7c1.2,1,1.8,2.5,1.8,4.3s-0.6,3.3-1.8,4.4c-1.2,1.1-2.8,1.6-4.9,1.7h-7.7v-20.3h2.6V179.9z M382.8,182.1
		v7.7h4.9c1.4,0,2.4-0.4,3.1-1.1c0.8-0.7,1.1-1.6,1.1-2.8s-0.3-2.1-1-2.7c-0.7-0.7-1.7-1-3.1-1.1L382.8,182.1z M368.3,171.7V192
		h-2.6v-18.1h-7.3l-0.4,8c-0.1,2.7-0.4,4.7-0.8,6.1c-0.4,1.4-1,2.4-1.8,3s-1.9,1-3.2,1h-0.9v-2.2l0.5-0.1c0.9,0,1.6-0.3,2-0.8
		c0.5-0.5,0.9-1.3,1.1-2.4c0.2-1.1,0.4-2.7,0.5-5l0.4-9.8H368.3z M338.3,186.7h-8.6l-1.9,5.3h-2.7l7.7-20.3h2.4l7.7,20.3h-2.7
		L338.3,186.7z M330.6,184.5h6.9L334,175L330.6,184.5z M315,192h-2.7v-9.4H302v9.4h-2.6v-20.3h2.6v8.7h10.3v-8.7h2.7V192z
		 M288.3,182.5c0,2-0.4,3.7-1,5.2c-0.7,1.5-1.6,2.6-2.9,3.4c-1.2,0.8-2.6,1.2-4.3,1.2c-1.6,0-3-0.4-4.2-1.2
		c-1.3-0.8-2.2-1.9-2.9-3.4c-0.7-1.4-1-3.1-1.1-5v-1.5c0-2,0.4-3.7,1.1-5.2c0.6-1.5,1.6-2.6,2.8-3.4c1.3-0.8,2.7-1.2,4.3-1.2
		c1.6,0,3.1,0.4,4.3,1.2c1.2,0.7,2.2,1.9,2.9,3.4c0.6,1.5,1,3.2,1,5.2L288.3,182.5z M285.6,181.2c0-2.4-0.5-4.3-1.4-5.6
		c-1-1.3-2.4-1.9-4.1-1.9s-3,0.6-4,1.9c-1,1.3-1.5,3.1-1.5,5.4v1.5c0,2.3,0.5,4.1,1.5,5.5c1,1.3,2.3,2,4,2c1.8,0,3.1-0.7,4-1.9
		c1-1.3,1.5-3.1,1.5-5.4V181.2z M260.7,192H258v-20.3h2.7V192z M230,171.7h2.7v18.1h10v-18.1h2.6v18h2.2l-0.3,7.2h-2.4V192H230
		L230,171.7z M215.4,186.7h-8.5L205,192h-2.8l7.8-20.3h2.3l7.8,20.3h-2.8L215.4,186.7z M207.7,184.5h6.9l-3.5-9.5L207.7,184.5z
		 M192.1,192h-2.7v-9.4h-10.2v9.4h-2.7v-20.3h2.7v8.7h10.2v-8.7h2.7V192z M380.6,152.4h-8.5l-2,5.3h-2.7l7.7-20.3h2.4l7.8,20.3h-2.8
		L380.6,152.4z M372.9,150.2h6.9l-3.5-9.5L372.9,150.2z M349.2,148.5h-2.5v9.2h-2.6v-20.3h2.6v8.9h2.1l7.1-8.9h3.4l-7.8,9.8
		l8.3,10.5h-3.2L349.2,148.5z M321.5,145.7h5.1c2.1,0,3.8,0.5,4.9,1.6c1.2,1.1,1.8,2.5,1.8,4.3c0,1.9-0.6,3.3-1.8,4.4
		c-1.2,1.1-2.8,1.7-4.9,1.7h-7.7v-20.3h2.6V145.7z M321.5,147.9v7.6h4.9c1.4,0,2.4-0.4,3.1-1.1c0.8-0.7,1.1-1.6,1.1-2.8
		c0-1.1-0.3-2.1-1-2.7c-0.7-0.7-1.7-1-3.1-1H321.5z M308.2,151.3c-0.2,2.1-1,3.8-2.4,4.9c-1.3,1.2-3.1,1.8-5.3,1.8
		c-2.4,0-4.3-0.9-5.7-2.6c-1.5-1.7-2.2-4-2.2-6.9v-2c0-1.9,0.3-3.5,1-4.9c0.7-1.5,1.6-2.6,2.9-3.3c1.2-0.8,2.6-1.2,4.3-1.2
		c2.1,0,3.9,0.6,5.2,1.8c1.3,1.2,2,2.9,2.2,5h-2.7c-0.2-1.6-0.7-2.8-1.5-3.5s-1.8-1.1-3.2-1.1c-1.7,0-3.1,0.6-4.1,1.9
		c-0.9,1.3-1.4,3.1-1.4,5.4v2c0,2.2,0.4,3.9,1.4,5.2c0.9,1.3,2.2,2,3.8,2c1.5,0,2.7-0.4,3.5-1c0.7-0.7,1.3-1.9,1.5-3.5L308.2,151.3z
		 M268.4,157.7v-20.3h6.7c2.2,0,3.8,0.4,5,1.4c1.1,0.9,1.6,2.2,1.6,4c0,1-0.2,1.8-0.8,2.5c-0.5,0.8-1.3,1.3-2.2,1.7
		c1.1,0.3,2,0.9,2.6,1.8c0.6,0.8,1,1.9,1,3c0,1.9-0.6,3.3-1.8,4.3c-1.2,1.1-2.9,1.6-5,1.6H268.4z M271.1,148.2v7.3h4.4
		c1.3,0,2.3-0.3,3-1c0.7-0.6,1.1-1.5,1.1-2.6c0-2.4-1.4-3.7-4-3.7H271.1z M271.1,146h4.1c1.1,0,2.1-0.3,2.8-0.8c0.7-0.6,1-1.4,1-2.4
		c0-1.1-0.3-1.9-0.9-2.5c-0.7-0.5-1.7-0.7-3-0.7h-4V146z M256.5,157.7h-2.7v-20.3h2.7V157.7z M228.8,157.7v-20.3h6.6
		c2.2,0,3.9,0.4,5,1.4c1.1,0.9,1.6,2.2,1.6,4c0,1-0.2,1.8-0.8,2.5c-0.5,0.8-1.2,1.3-2.2,1.7c1.1,0.3,2,0.9,2.6,1.8
		c0.7,0.8,1,1.9,1,3c0,1.9-0.6,3.3-1.8,4.3c-1.2,1.1-2.8,1.6-5,1.6H228.8z M231.4,148.2v7.3h4.5c1.2,0,2.2-0.3,2.9-1
		c0.7-0.6,1.1-1.5,1.1-2.6c0-2.4-1.3-3.7-4-3.7H231.4z M231.4,146h4.1c1.2,0,2.1-0.3,2.8-0.8c0.7-0.6,1-1.4,1-2.4
		c0-1.1-0.3-1.9-0.9-2.5c-0.7-0.5-1.7-0.7-3-0.7h-4V146z M206.4,145.7h5c2.1,0,3.8,0.5,5,1.6s1.8,2.5,1.8,4.3c0,1.9-0.6,3.3-1.8,4.4
		c-1.2,1.1-2.9,1.7-4.9,1.7h-7.8v-20.3h2.7V145.7z M206.4,147.9v7.6h4.9c1.3,0,2.3-0.4,3.1-1.1c0.7-0.7,1.1-1.6,1.1-2.8
		c0-1.1-0.4-2.1-1.1-2.7c-0.7-0.7-1.7-1-3-1H206.4z M191.9,137.4v20.3h-2.7v-18.1h-7.3l-0.4,8c-0.1,2.7-0.4,4.8-0.8,6.1
		c-0.4,1.4-1,2.4-1.8,3s-1.9,1-3.2,1h-0.9v-2.2h0.6c0.8-0.1,1.5-0.4,2-0.9c0.4-0.5,0.8-1.3,1-2.4c0.3-1,0.4-2.7,0.5-5l0.5-9.8
		L191.9,137.4z"/>
</g>
</svg>
