<?xml version="1.0" encoding="UTF-8"?>
<!-- Generator: Adobe Illustrator 26.0.3, SVG Export Plug-In . SVG Version: 6.00 Build 0)  -->
<svg version="1.1" id="Logo_schwarz__x2F__weiß" xmlns="http://www.w3.org/2000/svg" xmlns:xlink="http://www.w3.org/1999/xlink" x="0px" y="0px" viewBox="0 0 233 85" style="enable-background:new 0 0 233 85;" xml:space="preserve">
<style type="text/css">
	.st0{opacity:0.9;}
	.st1{fill:#FFFFFF;}
</style>
<g id="Logo_weiß" class="st0">
	<path class="st1" d="M152.389,80.409c-0.342-0.188-0.37-0.281-0.37-1.004c0-1.316,0.118-2.38,0.144-2.817   c0-0.284,0.056-0.44,0.2-0.44c0.141,0,0.225,0.092,0.225,0.313c0,0.219,0,0.594,0.085,0.971c0.401,1.945,2.277,2.631,3.959,2.631   c2.471,0,3.752-1.536,3.752-3.542c0-1.91-0.939-2.819-3.156-4.635l-1.137-0.938c-2.707-2.226-3.587-3.855-3.587-5.704   c0-3.135,2.247-5.015,5.548-5.015c0.995,0,1.993,0.156,2.589,0.315c0.481,0.122,0.682,0.122,0.88,0.122   c0.201,0,0.259,0.033,0.259,0.189c0,0.126-0.115,1.004-0.115,2.823c0,0.405-0.029,0.594-0.2,0.594c-0.171,0-0.2-0.127-0.228-0.348   c-0.029-0.312-0.227-1.033-0.37-1.314c-0.169-0.315-0.992-1.316-3.241-1.316c-1.819,0-3.328,1.001-3.328,2.884   c0,1.691,0.768,2.663,3.239,4.509l0.712,0.535c3.046,2.287,4.097,4.134,4.097,6.423c0,1.565-0.54,3.259-2.329,4.541   c-1.056,0.753-2.618,0.941-3.983,0.941C154.863,81.128,153.412,80.941,152.389,80.409"/>
	<path class="st1" d="M132.481,77.149c0.057,2.193,0.284,2.852,0.971,3.04c0.451,0.126,1.018,0.156,1.251,0.156   c0.113,0,0.197,0.094,0.197,0.219c0,0.159-0.172,0.221-0.454,0.221c-1.422,0-2.418-0.095-2.645-0.095   c-0.231,0-1.284,0.095-2.421,0.095c-0.255,0-0.398-0.033-0.398-0.221c0-0.126,0.086-0.219,0.2-0.219   c0.198,0,0.655-0.03,1.021-0.156c0.629-0.188,0.714-0.907,0.714-3.321v-15.26c0-1.063,0.144-1.346,0.342-1.346   c0.286,0,0.714,0.531,0.968,0.814c0.399,0.44,4.039,4.7,7.911,9.086c2.473,2.822,5.148,5.985,5.914,6.862l-0.257-13.346   c-0.027-1.724-0.169-2.321-0.938-2.477c-0.454-0.094-1.022-0.126-1.222-0.126c-0.168,0-0.2-0.156-0.2-0.249   c0-0.159,0.2-0.189,0.486-0.189c1.136,0,2.33,0.064,2.615,0.064c0.284,0,1.108-0.064,2.137-0.064c0.257,0,0.452,0.03,0.452,0.189   c0,0.094-0.113,0.249-0.283,0.249c-0.112,0-0.315,0-0.597,0.062c-0.827,0.189-0.885,0.721-0.885,2.32l-0.056,15.603   c0,1.757-0.032,1.913-0.201,1.913c-0.253,0-0.511-0.222-1.904-1.632c-0.257-0.248-3.868-4.165-6.515-7.204   c-2.903-3.354-5.716-6.61-6.486-7.555L132.481,77.149z"/>
	<path class="st1" d="M126.003,80.344c-0.227,0-0.765-0.062-1.136-0.122c-0.744-0.129-0.83-0.629-0.915-1.409   c-0.115-1.099-0.115-3.197-0.115-5.768v-4.699c0-4.139,0-4.889,0.029-5.736c0.058-0.939,0.2-1.314,0.886-1.473   c0.284-0.062,0.455-0.062,0.626-0.062c0.086,0,0.198-0.127,0.198-0.219c0-0.156-0.112-0.219-0.396-0.219   c-0.773,0-2.394,0.064-2.509,0.064c-0.141,0-2.336-0.064-3.161-0.064c-0.03,0-0.05,0.001-0.074,0.005   c-0.026-0.003-0.045-0.005-0.073-0.005c-0.738,0-2.453,0.064-2.595,0.064c-0.315,0-1.45-0.064-2.447-0.064   c-0.398,0-0.57,0.064-0.57,0.219c0,0.126,0.144,0.219,0.287,0.219c0.284,0,0.569,0,0.851,0.092   c0.256,0.095,0.343,0.348,0.343,0.566c0,0.221-0.115,0.596-0.227,1.001c-0.541,1.913-3.815,11-5.264,14.572l-4.724-13.409   c-0.369-1.068-0.682-1.883-0.682-2.226c0-0.189,0.026-0.345,0.284-0.47c0.228-0.094,0.625-0.126,0.91-0.126   c0.171,0,0.256-0.127,0.256-0.249c0-0.126-0.228-0.189-0.682-0.189c-0.969,0-2.075,0.064-2.33,0.064   c-0.313,0-1.738-0.064-2.934-0.064c-0.398,0-0.653,0.03-0.653,0.189c0,0.094,0.057,0.249,0.198,0.249c0.141,0,0.57,0,0.965,0.092   c0.829,0.221,1.174,0.503,1.741,2.005l6.143,16.326c0.482,1.287,0.653,1.629,0.939,1.629c0.257,0,0.401-0.405,1.084-2.005   c0.567-1.316,1.676-4.198,3.214-8.083c1.279-3.259,2.5-6.457,2.784-7.209c0.656-1.816,1.054-2.193,1.397-2.442   c0.398-0.271,1.355-0.307,1.71-0.313c0.248,0.006,1.08,0.036,1.349,0.092c0.54,0.128,0.738,0.535,0.795,1.443   c0.058,0.847,0.058,1.597,0.058,5.736v4.699c0,2.571-0.027,4.668-0.142,5.768c-0.085,0.78-0.171,1.281-0.655,1.409   c-0.227,0.06-0.538,0.122-0.768,0.122c-0.141,0-0.2,0.126-0.2,0.221c0,0.157,0.142,0.221,0.401,0.221   c0.767,0,2.33-0.095,2.471-0.095c0.115,0,1.736,0.095,3.132,0.095c0.287,0,0.402-0.095,0.402-0.221   C126.205,80.47,126.146,80.344,126.003,80.344"/>
	<path class="st1" d="M103.716,80.344c-0.254,0-0.622-0.03-0.992-0.156c-0.54-0.186-1.22-0.531-2.137-2.913   c-1.536-4.042-5.544-15.041-5.999-16.169c-0.257-0.596-0.342-0.972-0.597-0.972c-0.172,0-0.287,0.156-0.599,1.034l-5.648,15.993   l-0.425,1.169c-0.003,0.006-0.006,0.011-0.008,0.018c-0.504,1.512-3.257,1.369-4.562,1.369c-1.964,0-2.926-0.186-3.325-0.623   c-0.457-0.472-0.513-2.07-0.513-5.989v-4.761c0-4.139,0-4.888,0.029-5.734c0.056-0.939,0.198-1.349,0.939-1.505   c0.284-0.03,0.65-0.064,0.823-0.064c0.083,0,0.198-0.095,0.198-0.188c0-0.156-0.142-0.219-0.398-0.219   c-0.765,0-2.646,0.064-2.758,0.064c-0.145,0-1.707-0.064-2.846-0.064c-0.286,0-0.399,0.064-0.399,0.219   c0,0.092,0.113,0.221,0.201,0.221c0.227,0,0.655,0.03,0.853,0.06c0.823,0.126,0.966,0.566,1.021,1.474   c0.056,0.847,0.056,1.595,0.056,5.734v4.699c0,2.571,0,4.668-0.139,5.768c-0.115,0.78-0.171,1.282-0.653,1.409   c-0.227,0.062-0.541,0.122-0.768,0.122c-0.142,0-0.197,0.126-0.197,0.221c0,0.159,0.139,0.221,0.396,0.221   c0.399,0,0.939-0.033,1.449-0.062c0.482-0.033,0.91-0.033,1.027-0.033c0.74,0,1.594,0.033,2.73,0.062   c0.951,0.053,2.701,0.041,4.463,0.02c0.16,0,0.325-0.003,0.492-0.005c0.21-0.006,0.41-0.008,0.593-0.011   c0.246-0.003,0.466-0.015,0.667-0.033c0.366-0.018,0.653-0.033,0.761-0.033c0.284,0,1.647,0.095,2.247,0.095   c0.227,0,0.37-0.062,0.37-0.221c0-0.126-0.057-0.221-0.256-0.221h-0.227c-0.429,0-0.859-0.186-0.859-0.718   c0-0.47,0.144-1.128,0.37-1.786l1.423-4.263c0.057-0.156,0.145-0.218,0.259-0.218h5.775c0.142,0,0.171,0.032,0.227,0.156   l2.247,6.111c0.169,0.437-0.086,0.658-0.228,0.718c-0.116,0.065-0.171,0.065-0.171,0.189c0,0.157,0.399,0.157,0.88,0.191   c1.739,0.062,3.589,0.062,3.956,0.062c0.284,0,0.569-0.062,0.569-0.221C104.03,80.409,103.859,80.344,103.716,80.344    M96.179,72.263h-5.063c-0.083,0-0.113-0.062-0.083-0.189l2.329-7.301c0.141-0.407,0.286-0.407,0.429,0l2.474,7.301   C96.294,72.201,96.294,72.263,96.179,72.263"/>
	<path class="st1" d="M57.857,68.294c0-4.144,0-4.897-0.063-5.742c-0.064-0.912-0.219-1.35-1.128-1.476   c-0.221-0.03-0.69-0.063-0.941-0.063c-0.094,0-0.219-0.126-0.219-0.221c0-0.156,0.126-0.219,0.439-0.219   c1.252,0,2.947,0.064,3.103,0.064c0.251,0,1.916-0.064,2.728-0.064c0.313,0,0.437,0.064,0.437,0.219   c0,0.095-0.092,0.221-0.221,0.221c-0.186,0-0.343,0-0.687,0.063c-0.721,0.156-0.909,0.531-0.971,1.476   c-0.064,0.845-0.064,1.598-0.064,5.742v1.604h0.125c0.439-0.503,5.359-5.37,6.394-6.439c0.786-0.782,1.505-1.476,1.505-1.913   c0-0.345-0.124-0.501-0.342-0.534c-0.159-0.032-0.251-0.157-0.251-0.251c0-0.126,0.124-0.189,0.315-0.189   c0.56,0,1.406,0.064,2.066,0.064c0.157,0,1.978-0.064,2.668-0.064c0.281,0,0.405,0.064,0.405,0.189s-0.062,0.219-0.281,0.219   c-0.407,0-1.001,0.159-1.535,0.38c-1.131,0.501-1.665,1.096-2.885,2.258c-0.69,0.626-5.391,5.149-5.99,5.807   c0.723,0.785,7.195,9.051,8.547,10.444c2.17,2.232,3.867,3.595,5.181,4.128c0.72,0.281,1.506,0.377,1.694,0.377   c0.189,0,0.348,0.092,0.348,0.219c0,0.128-0.127,0.221-0.6,0.221h-1.408c-0.785,0-1.284,0-1.913-0.065   c-1.441-0.124-2.869-1.136-3.967-2.158c-1.314-1.22-8.633-10.62-9.949-12.19h-0.125v2.603c0,2.574,0,4.679,0.125,5.775   c0.092,0.786,0.219,1.29,1.066,1.416c0.374,0.06,0.814,0.122,1.065,0.122c0.156,0,0.221,0.127,0.221,0.219   c0,0.129-0.127,0.221-0.442,0.221c-1.343,0-3.008-0.092-3.227-0.092c-0.221,0-1.883,0.092-2.725,0.092   c-0.284,0-0.439-0.062-0.439-0.221c0-0.092,0.061-0.219,0.218-0.219c0.25,0,0.596-0.062,0.847-0.122   c0.531-0.126,0.594-0.629,0.72-1.416c0.157-1.096,0.157-3.201,0.157-5.775V68.294z"/>
	<path class="st1" d="M222.362,51.924c-0.343-0.189-0.372-0.281-0.372-1.006c0-1.314,0.118-2.38,0.144-2.817   c0-0.283,0.056-0.442,0.201-0.442c0.141,0,0.224,0.095,0.224,0.315c0,0.221,0,0.597,0.086,0.972   c0.398,1.945,2.277,2.633,3.956,2.633c2.476,0,3.75-1.538,3.75-3.543c0-1.912-0.935-2.819-3.153-4.635l-1.136-0.942   c-2.708-2.225-3.587-3.855-3.587-5.701c0-3.136,2.246-5.013,5.55-5.013c0.995,0,1.989,0.156,2.586,0.315   c0.482,0.122,0.683,0.122,0.88,0.122c0.201,0,0.259,0.032,0.259,0.187c0,0.127-0.113,1.006-0.113,2.822   c0,0.408-0.03,0.596-0.201,0.596c-0.169,0-0.198-0.126-0.225-0.346c-0.03-0.312-0.228-1.033-0.374-1.314   c-0.169-0.315-0.994-1.317-3.239-1.317c-1.819,0-3.327,1.003-3.327,2.885c0,1.691,0.767,2.662,3.239,4.509l0.712,0.534   c3.044,2.286,4.097,4.136,4.097,6.424c0,1.565-0.541,3.259-2.333,4.543c-1.054,0.752-2.615,0.938-3.98,0.938   C224.836,52.642,223.386,52.456,222.362,51.924"/>
	<path class="st1" d="M202.999,39.859c0-4.136,0-4.888-0.059-5.733c-0.056-0.847-0.2-1.347-1.025-1.473   c-0.2-0.029-0.628-0.064-0.853-0.064c-0.086,0-0.201-0.126-0.201-0.221c0-0.156,0.115-0.218,0.401-0.218   c1.139,0,2.645,0.062,2.873,0.062c0.227,0,1.792-0.062,2.533-0.062c0.283,0,0.426,0.062,0.426,0.218   c0,0.095-0.113,0.221-0.228,0.221c-0.172,0-0.313,0-0.628,0.064c-0.653,0.126-0.794,0.593-0.851,1.473   c-0.06,0.845-0.06,1.597-0.06,5.733v3.729c0,3.855,0.771,5.453,1.851,6.518c1.222,1.222,2.303,1.443,3.729,1.443   c1.532,0,3.015-0.753,3.865-1.883c1.166-1.533,1.422-3.726,1.422-6.454v-3.353c0-4.136-0.024-4.888-0.054-5.733   c-0.029-0.847-0.169-1.347-0.998-1.473c-0.198-0.029-0.624-0.064-0.85-0.064c-0.113,0-0.2-0.126-0.2-0.221   c0-0.156,0.115-0.218,0.401-0.218c1.107,0,2.559,0.062,2.699,0.062c0.169,0,1.367-0.062,2.108-0.062   c0.283,0,0.395,0.062,0.395,0.218c0,0.095-0.083,0.221-0.198,0.221c-0.171,0-0.312,0-0.623,0.064   c-0.684,0.156-0.829,0.593-0.885,1.473c-0.057,0.845-0.027,1.597-0.027,5.733v2.852c0,2.882-0.343,6.111-2.333,7.991   c-1.822,1.724-3.756,1.942-5.234,1.942c-0.827,0-3.443-0.062-5.208-1.878c-1.219-1.255-2.187-3.105-2.187-6.988V39.859z"/>
	<path class="st1" d="M201.927,51.861c-0.254,0-0.626-0.032-0.997-0.156c-0.543-0.191-1.223-0.534-2.134-2.914   c-1.536-4.042-5.547-15.041-6.002-16.167c-0.257-0.597-0.34-0.974-0.596-0.974c-0.172,0-0.286,0.156-0.597,1.034l-5.889,16.669   c-0.485,1.347-0.971,2.29-2.105,2.445c-0.151,0.023-0.576,0.067-0.994,0.073c-0.015-0.003-0.03-0.011-0.047-0.011   c-0.197,0-0.941-0.062-1.281-0.126c-0.77-0.126-0.826-0.628-0.91-1.409c-0.115-1.098-0.141-3.198-0.141-5.766v-4.702   c0-4.136,0-4.888,0.056-5.731c0.056-0.942,0.198-1.317,0.85-1.473c0.315-0.063,0.458-0.063,0.629-0.063   c0.112,0,0.227-0.127,0.227-0.221c0-0.156-0.142-0.218-0.43-0.218c-0.736,0-2.329,0.062-2.469,0.062   c-0.116,0-1.741-0.062-2.849-0.062c-0.284,0-0.396,0.062-0.396,0.218c0,0.094,0.083,0.221,0.197,0.221   c0.228,0,0.655,0.033,0.854,0.063c0.824,0.126,0.939,0.564,0.997,1.473c0.027,0.844,0.057,1.659,0.057,5.795v0.563   c0,0.159-0.057,0.159-0.141,0.159h-10.44c-0.088,0-0.144,0-0.144-0.159v-0.563c0-4.136,0-4.951,0.03-5.795   c0.058-0.942,0.195-1.317,0.88-1.473c0.284-0.063,0.455-0.063,0.626-0.063c0.085,0,0.198-0.127,0.198-0.221   c0-0.156-0.113-0.218-0.396-0.218c-0.771,0-2.364,0.062-2.479,0.062c-0.139,0-1.733-0.062-2.87-0.062   c-0.287,0-0.402,0.062-0.402,0.218c0,0.094,0.115,0.221,0.201,0.221c0.227,0,0.655,0.033,0.854,0.063   c0.826,0.126,0.966,0.564,1.025,1.473c0.056,0.844,0.056,1.595,0.056,5.731v4.702c0,2.568,0,4.668-0.145,5.766   c-0.11,0.782-0.168,1.284-0.652,1.409c-0.219,0.06-0.599,0.119-0.827,0.126c-0.286-0.006-0.791-0.023-1.16-0.095   c-0.626-0.094-1.449-0.343-2.787-1.846c-1.449-1.664-3.183-4.075-5.232-6.894c2.333-2.194,3.073-4.106,3.073-6.078   c0-1.85-1.11-3.135-1.736-3.634c-1.311-1.006-3.073-1.161-4.667-1.161c-0.768,0-2.873,0.062-3.129,0.062   c-0.144,0-1.824-0.062-2.958-0.062c-0.284,0-0.401,0.062-0.401,0.218c0,0.094,0.116,0.221,0.201,0.221   c0.228,0,0.656,0.033,0.851,0.063c0.826,0.126,0.968,0.564,1.024,1.473c0.057,0.844,0.057,1.595,0.057,5.731v4.702   c0,2.568,0,4.668-0.141,5.766c-0.115,0.782-0.172,1.284-0.655,1.409c-0.224,0.064-0.538,0.126-0.767,0.126   c-0.142,0-0.201,0.126-0.201,0.219c0,0.159,0.144,0.219,0.398,0.219c0.767,0,2.447-0.094,2.477-0.094   c0.113,0,1.709,0.094,3.07,0.094c0.287,0,0.401-0.094,0.401-0.219c0-0.094-0.032-0.219-0.201-0.219   c-0.225,0-0.768-0.062-1.109-0.126c-0.767-0.126-0.907-0.628-0.994-1.409c-0.113-1.098-0.113-3.165-0.113-5.733v-0.629   c0-0.156,0.058-0.221,0.169-0.221l3.188,0.065c0.169,0,0.224,0.03,0.339,0.156c0.54,0.721,1.651,2.445,2.704,3.885   c1.423,2.007,2.33,3.289,3.41,3.917c0.628,0.378,1.254,0.534,2.675,0.534h2.031c0.089,0,0.156-0.005,0.224-0.009   c0.044,0.005,0.083,0.009,0.133,0.009c0.768,0,2.445-0.094,2.584-0.094c0.115,0,1.707,0.094,3.1,0.094   c0.286,0,0.399-0.094,0.399-0.219c0-0.094-0.057-0.219-0.198-0.219c-0.23,0-0.767-0.062-1.137-0.126   c-0.742-0.126-0.824-0.628-0.912-1.409c-0.112-1.098-0.112-3.133-0.112-5.704v-2.663c0-0.125,0.056-0.157,0.144-0.157h10.44   c0.083,0,0.141,0.032,0.141,0.157v2.663c0,2.571,0,4.574-0.115,5.674c-0.086,0.782-0.171,1.314-0.684,1.44   c-0.228,0.064-0.511,0.126-0.74,0.126c-0.142,0-0.2,0.126-0.2,0.219c0,0.159,0.115,0.219,0.399,0.219   c0.738,0,2.362-0.094,2.479-0.094c0.141,0,1.904,0.094,3.272,0.094c0.018,0,0.029-0.005,0.047-0.005   c0.029,0.003,0.045,0.005,0.074,0.005c1.022,0,2.907-0.094,3.165-0.094c0.281,0,1.648,0.094,2.244,0.094   c0.227,0,0.37-0.06,0.37-0.219c0-0.127-0.058-0.219-0.259-0.219h-0.225c-0.425,0-0.853-0.189-0.853-0.723   c0-0.467,0.144-1.124,0.37-1.784l1.422-4.261c0.056-0.156,0.144-0.218,0.26-0.218h5.769c0.144,0,0.175,0.029,0.231,0.156   l2.247,6.108c0.171,0.442-0.086,0.661-0.231,0.723c-0.112,0.064-0.168,0.064-0.168,0.189c0,0.156,0.399,0.156,0.882,0.189   c1.733,0.06,3.584,0.06,3.956,0.06c0.283,0,0.567-0.06,0.567-0.219C202.24,51.925,202.071,51.861,201.927,51.861 M153.442,42.396   c-0.597,0.44-1.279,0.473-1.877,0.473c-1.11,0-2.389-0.191-2.76-0.41c-0.112-0.092-0.169-0.186-0.169-0.345v-8.553   c0-0.156,0.086-0.248,0.2-0.315c0.256-0.062,1.051-0.153,1.79-0.153c2.674,0,4.324,1.91,4.324,5.229   C154.949,40.362,154.292,41.771,153.442,42.396 M194.389,43.777h-5.063c-0.088,0-0.115-0.064-0.088-0.189l2.333-7.3   c0.144-0.408,0.283-0.408,0.426,0l2.474,7.3C194.502,43.713,194.502,43.777,194.389,43.777"/>
	<path class="st1" d="M131.43,39.859c0-4.136,0-4.888-0.057-5.733c-0.057-0.907-0.2-1.347-1.024-1.473   c-0.201-0.029-0.626-0.064-0.854-0.064c-0.086,0-0.2-0.126-0.2-0.221c0-0.156,0.113-0.218,0.401-0.218   c1.136,0,2.76,0.062,2.9,0.062c0.171,0,5.405,0.033,5.972,0c0.484-0.03,0.939-0.125,1.14-0.153c0.113-0.033,0.228-0.129,0.34-0.129   c0.089,0,0.113,0.129,0.113,0.251c0,0.186-0.139,0.502-0.197,1.254c-0.029,0.253-0.088,1.443-0.144,1.754   c-0.027,0.128-0.113,0.284-0.23,0.284c-0.141,0-0.197-0.129-0.197-0.345c0-0.187-0.03-0.628-0.142-0.942   c-0.169-0.437-0.428-0.628-1.792-0.814c-0.426-0.062-3.328-0.095-3.613-0.095c-0.113,0-0.141,0.095-0.141,0.281v7.239   c0,0.187,0,0.281,0.141,0.281c0.313,0,3.613,0,4.18-0.06c0.597-0.062,0.966-0.095,1.225-0.377c0.169-0.189,0.281-0.345,0.369-0.345   c0.086,0,0.144,0.064,0.144,0.219c0,0.156-0.144,0.596-0.2,1.474c-0.059,0.531-0.115,1.533-0.115,1.721   c0,0.219-0.056,0.501-0.23,0.501c-0.113,0-0.169-0.095-0.169-0.251c0-0.249,0-0.531-0.115-0.876   c-0.083-0.377-0.312-0.691-1.276-0.814c-0.683-0.095-3.36-0.126-3.784-0.126c-0.142,0-0.169,0.091-0.169,0.186v2.226   c0,0.907-0.03,4.01,0,4.543c0.056,1.787,0.51,2.131,2.985,2.131c0.653,0,1.85,0,2.503-0.281c0.655-0.315,0.998-0.783,1.142-1.85   c0.056-0.312,0.113-0.407,0.251-0.407c0.142,0,0.171,0.218,0.171,0.407c0,0.186-0.197,2.005-0.34,2.569   c-0.169,0.69-0.428,0.69-1.393,0.69c-1.878,0-3.331-0.062-4.354-0.095c-1.051-0.061-1.704-0.061-2.076-0.061   c-0.058,0-0.541,0-1.083,0.033c-0.481,0.027-1.052,0.06-1.447,0.06c-0.257,0-0.401-0.06-0.401-0.219c0-0.094,0.057-0.219,0.2-0.219   c0.227,0,0.54-0.095,0.767-0.126c0.484-0.092,0.541-0.628,0.655-1.411c0.144-1.096,0.144-3.197,0.144-5.765V39.859z"/>
	<path class="st1" d="M126.003,51.861c-0.227,0-0.765-0.062-1.136-0.126c-0.744-0.126-0.83-0.628-0.915-1.409   c-0.115-1.098-0.115-3.197-0.115-5.766v-4.702c0-4.136,0-4.888,0.029-5.731c0.058-0.942,0.2-1.317,0.886-1.473   c0.284-0.063,0.455-0.063,0.626-0.063c0.086,0,0.198-0.127,0.198-0.221c0-0.156-0.112-0.218-0.396-0.218   c-0.773,0-2.394,0.062-2.509,0.062c-0.141,0-2.336-0.062-3.161-0.062c-0.03,0-0.05,0.003-0.074,0.005   c-0.026-0.001-0.045-0.005-0.073-0.005c-0.738,0-2.453,0.062-2.595,0.062c-0.315,0-1.45-0.062-2.447-0.062   c-0.398,0-0.57,0.062-0.57,0.218c0,0.127,0.144,0.221,0.287,0.221c0.284,0,0.569,0,0.851,0.094   c0.256,0.095,0.343,0.345,0.343,0.563c0,0.222-0.115,0.596-0.227,1.004c-0.541,1.913-3.815,11-5.264,14.57l-4.724-13.411   c-0.369-1.065-0.682-1.88-0.682-2.226c0-0.186,0.026-0.342,0.284-0.467c0.228-0.094,0.625-0.127,0.91-0.127   c0.171,0,0.256-0.127,0.256-0.25c0-0.127-0.228-0.189-0.682-0.189c-0.969,0-2.075,0.062-2.33,0.062   c-0.313,0-1.738-0.062-2.934-0.062c-0.398,0-0.653,0.03-0.653,0.189c0,0.092,0.057,0.25,0.198,0.25c0.141,0,0.57,0,0.965,0.094   c0.829,0.219,1.174,0.501,1.741,2.005l6.143,16.325c0.482,1.287,0.653,1.629,0.939,1.629c0.257,0,0.401-0.404,1.084-2.005   c0.567-1.314,1.676-4.196,3.214-8.083c1.279-3.259,2.5-6.456,2.784-7.207c0.656-1.816,1.054-2.193,1.397-2.444   c0.398-0.271,1.355-0.308,1.71-0.313c0.248,0.005,1.08,0.038,1.349,0.094c0.54,0.126,0.738,0.534,0.795,1.443   c0.058,0.844,0.058,1.595,0.058,5.731v4.702c0,2.569-0.027,4.668-0.142,5.766c-0.085,0.782-0.171,1.284-0.655,1.409   c-0.227,0.064-0.538,0.126-0.768,0.126c-0.141,0-0.2,0.126-0.2,0.221c0,0.157,0.142,0.219,0.401,0.219   c0.767,0,2.33-0.095,2.471-0.095c0.115,0,1.736,0.095,3.132,0.095c0.287,0,0.402-0.095,0.402-0.219   C126.205,51.986,126.146,51.861,126.003,51.861"/>
	<path class="st1" d="M103.716,51.861c-0.254,0-0.622-0.032-0.992-0.156c-0.54-0.191-1.22-0.534-2.137-2.914   c-1.536-4.042-5.544-15.041-5.999-16.167c-0.257-0.597-0.342-0.974-0.597-0.974c-0.172,0-0.287,0.156-0.599,1.034l-5.648,15.995   l-0.425,1.169c-0.003,0.005-0.006,0.009-0.008,0.017c-0.504,1.509-3.257,1.369-4.562,1.369c-1.964,0-2.926-0.186-3.325-0.623   c-0.457-0.47-0.513-2.073-0.513-5.988v-4.764c0-4.136,0-4.888,0.029-5.731c0.056-0.942,0.198-1.347,0.939-1.503   c0.284-0.033,0.65-0.065,0.823-0.065c0.083,0,0.198-0.095,0.198-0.189c0-0.156-0.142-0.218-0.398-0.218   c-0.765,0-2.646,0.062-2.758,0.062c-0.145,0-1.707-0.062-2.846-0.062c-0.286,0-0.399,0.062-0.399,0.218   c0,0.094,0.113,0.221,0.201,0.221c0.227,0,0.655,0.033,0.853,0.063c0.823,0.126,0.966,0.564,1.021,1.473   c0.056,0.844,0.056,1.595,0.056,5.731v4.702c0,2.568,0,4.668-0.139,5.766c-0.115,0.782-0.171,1.284-0.653,1.409   c-0.227,0.064-0.541,0.126-0.768,0.126c-0.142,0-0.197,0.126-0.197,0.219c0,0.159,0.139,0.219,0.396,0.219   c0.399,0,0.939-0.033,1.449-0.06c0.482-0.033,0.91-0.033,1.027-0.033c0.74,0,2.226,0.027,3.362,0.061   c1.375,0.044,1.235,0.036,3.2,0.021c0.162,0,0.325-0.003,0.491-0.005c0.21-0.006,0.309-0.006,0.488-0.008   c0.248-0.006,0.567-0.021,0.77-0.036c0.364-0.018,1.285-0.033,1.393-0.033c0.284,0,1.647,0.094,2.247,0.094   c0.227,0,0.37-0.06,0.37-0.219c0-0.127-0.057-0.219-0.256-0.219h-0.227c-0.429,0-0.859-0.189-0.859-0.723   c0-0.467,0.144-1.124,0.37-1.784l1.423-4.261c0.057-0.156,0.145-0.218,0.259-0.218h5.775c0.142,0,0.171,0.029,0.227,0.156   l2.247,6.108c0.169,0.442-0.086,0.661-0.228,0.723c-0.116,0.064-0.171,0.064-0.171,0.189c0,0.156,0.399,0.156,0.88,0.189   c1.739,0.06,3.589,0.06,3.956,0.06c0.284,0,0.569-0.06,0.569-0.219C104.03,51.925,103.859,51.861,103.716,51.861 M96.179,43.777   h-5.063c-0.083,0-0.113-0.064-0.083-0.189l2.329-7.3c0.141-0.408,0.286-0.408,0.429,0l2.474,7.3   C96.294,43.713,96.294,43.777,96.179,43.777"/>
	<path class="st1" d="M57.857,39.81c0-4.144,0-4.895-0.063-5.745c-0.064-0.907-0.219-1.347-1.128-1.474   c-0.221-0.029-0.69-0.064-0.941-0.064c-0.094,0-0.219-0.124-0.219-0.219c0-0.156,0.126-0.219,0.439-0.219   c1.252,0,2.947,0.064,3.103,0.064c0.251,0,1.916-0.064,2.728-0.064c0.313,0,0.437,0.064,0.437,0.219   c0,0.095-0.092,0.219-0.221,0.219c-0.186,0-0.343,0-0.687,0.064c-0.721,0.157-0.909,0.534-0.971,1.474   c-0.064,0.85-0.064,1.601-0.064,5.745v1.601h0.125c0.439-0.502,5.359-5.367,6.394-6.436c0.786-0.782,1.505-1.476,1.505-1.913   c0-0.345-0.124-0.501-0.342-0.535c-0.159-0.03-0.251-0.157-0.251-0.25c0-0.126,0.124-0.189,0.315-0.189   c0.56,0,1.406,0.064,2.066,0.064c0.157,0,1.978-0.064,2.668-0.064c0.281,0,0.405,0.064,0.405,0.189s-0.062,0.219-0.281,0.219   c-0.407,0-1.001,0.157-1.535,0.38c-1.131,0.501-1.665,1.096-2.885,2.258c-0.69,0.626-5.391,5.149-5.99,5.807   c0.723,0.785,7.195,9.052,8.547,10.444c2.17,2.234,3.867,3.595,5.181,4.128c0.72,0.281,1.506,0.375,1.694,0.375   c0.189,0,0.348,0.092,0.348,0.221c0,0.127-0.127,0.219-0.6,0.219h-1.408c-0.785,0-1.284,0-1.913-0.063   c-1.441-0.126-2.869-1.136-3.967-2.158c-1.314-1.223-8.633-10.62-9.949-12.192h-0.125v2.604c0,2.574,0,4.679,0.125,5.777   c0.092,0.785,0.219,1.285,1.066,1.414c0.374,0.062,0.814,0.122,1.065,0.122c0.156,0,0.221,0.126,0.221,0.221   c0,0.124-0.127,0.219-0.442,0.219c-1.343,0-3.008-0.095-3.227-0.095c-0.221,0-1.883,0.095-2.725,0.095   c-0.284,0-0.439-0.062-0.439-0.219c0-0.095,0.061-0.221,0.218-0.221c0.25,0,0.596-0.061,0.847-0.122   c0.531-0.129,0.594-0.629,0.72-1.414c0.157-1.098,0.157-3.203,0.157-5.777V39.81z"/>
	<g id="Bildmarke_00000027574169771408539490000015112040083204860855_">
		<path class="st1" d="M-0.023,0v85h47.83V0H-0.023z M46.296,83.488H1.49V1.512h44.806V83.488z"/>
		<path class="st1" d="M2.325,2.358v80.289h43.138V2.358H2.325z M8.088,44.291V8.567c0-0.423-0.269-1.462-0.845-1.674h3.106    c0.289,0,0.637,0.135,0.637,0.637c0,3.492-0.006,35.517-0.006,37.966c0,1.006,0.864,1.656,0.919,1.656    C9.316,47.394,8.088,45.314,8.088,44.291z M13.577,71.116V33.85c0-0.422-0.266-1.45-0.836-1.654h3.068    c0.281,0,0.629,0.133,0.629,0.628c0,3.452-0.006,37.06-0.006,39.486c0,0.99,0.856,1.632,0.91,1.632    C14.785,74.18,13.577,72.126,13.577,71.116z M32.195,75.534L17.67,48.776c0,0,2.506-3.035,5.238-6.35L12.221,22.53    c0,0,7.988-9.695,10.537-12.794c0.342-0.534,0.584-2.209-0.064-2.819h2.503c0.747,0.723,0.104,1.689-0.687,2.686    c-7.457,9.063-9.358,11.544-9.358,11.544s4.502,8.815,9.804,18.799c1.728-2.094,3.324-4.032,4.187-5.078    c0.34-0.532,0.582-2.212-0.067-2.819h2.506c0.743,0.72,0.101,1.686-0.687,2.684c-2.12,2.575-3.876,4.694-5.305,6.409    c4.939,9.314,7.712,14.507,8.081,15.189c0.804,1.665,3.592,4.307,3.935,4.307c-5.343,0-8.378-6.654-8.378-6.654l-5.692-10.394    c-2.149,2.557-2.964,3.776-2.964,3.776s14.39,27.547,15.166,28.99c0.804,1.666,3.592,4.311,3.936,4.311    C34.33,80.668,32.195,75.534,32.195,75.534z"/>
	</g>
</g>
</svg>