<?xml version="1.0" encoding="utf-8"?>
<!-- Generator: Adobe Illustrator 24.1.2, SVG Export Plug-In . SVG Version: 6.00 Build 0)  -->
<svg version="1.1" id="Layer_1" xmlns="http://www.w3.org/2000/svg" xmlns:xlink="http://www.w3.org/1999/xlink" x="0px" y="0px"
	 viewBox="0 0 457.6 364.2" style="enable-background:new 0 0 457.6 364.2;" xml:space="preserve">
<style type="text/css">
	.st0{fill:none;}
	.st1{fill-rule:evenodd;clip-rule:evenodd;fill:#FFFFFF;} 
	.st2{fill:#FFFFFF;} 
</style>
<rect id="backgroundrect" x="-21" y="-17.1" class="st0" width="549.3" height="418"/>
<g>
	<path id="svg_9" class="st1" d="M110.2,287.7l-4.1,11l-5,5l6-16.3L81.4,161l22.4-60.9l5-5l-24.3,66.1L110.2,287.7z M60.3,143.7
		l-1.8,1.8l-5,5l-0.7,0.7L68.9,72l-6.1-16.6l-5-5l8,21.8L49,155l-0.6,0.6l-5,5l-3.2,8.8l20.7-102l-8.2-22.1l-5-5l10.1,27.4
		L33.4,187.9l-0.1,0.4v0.1l-1.2,5.7l4.7,12.6l0.5,1.3l3.9,19.5l-14-38.2L52.8,62.9L42.7,35.2l-5-5l12,32.9L24.1,189.5l16.3,44.3
		l2.6,2.7l15.9,78.2l-18.2,49.5l5-5L62,314.9l-15.1-74.6l3.6,3.6l3.8,3.8l12.6,62.4l-16.1,44l5-5L70,310.4l-11.9-58.9l7.4,7.5
		l9.2,45.2l0.3,1.4L60.8,344l5-5l5.1-5l5-5l10.2-27.7L60.4,174.9l18.2-49.5l5.1-5.1l-18.3,49.8L91,296.5l-10,27.4l5-5l8.1-22.2
		L68.5,170.3l20.2-55l-3.9,3.9l24-24.1L67.9,60.4l5.9,16.3L60.3,143.7z M78,276.6l-2.4-7.6l-11.2-30.2l-10.2-50.4l4.1-8.9L78,276.6z
		 M44.8,58.3L32.6,25.1l-5-5l14.1,38.5L16.1,185l14.2,38.7l5,5l-16.1-43.9L44.8,58.3z M36.8,53.8L22.5,15.1l-5-5L33.7,54L8,180.5
		l12.3,33.2l4.9,5l-14.1-38.5L36.8,53.8z M102.1,292.2L96,308.8l-5,5l8-21.8L73.4,165.5l20.4-55.3l4.9-5l-22.2,60.6L102.1,292.2z
		 M28.7,49.3L12.5,5l-5-5l18.1,49.5L0,175.9l10.2,27.7l5,5L3.1,175.7L28.7,49.3z"/>
	<path id="svg_12" class="st1" d="M108.4,278.9l-2.2,2.2l1.7-4.6L108.4,278.9z M88.8,149.6l-1.1-5.6l1.9-5.3l1.2,5.6L88.8,149.6z
		 M86.5,138.4l10.7-29L86.5,138.4z M98.7,105.2L104,91l2.4,2.1l-2.7,7.1L98.7,105.2z M104.8,276.2l-1.1-5.6l0.4-1.2L81.9,159.7
		l2-5.3L85,160l-0.5,1.2l22.3,109.7L104.8,276.2z M60.3,143.7l-1.8,1.8l-5,5l-0.7,0.7L68.9,72l-1.6-4.5l-13.2,64.9l-0.6,0.6L49,155
		l-0.6,0.6l-5,5l-3.2,8.8l20.7-102L59.2,63L38.5,165.3l-0.2,0.4l0.1,0.1l-1.2,5.7l4.7,12.6l0.5,1.3l3.9,19.5l-10.5-28.7l-1.2,5.6
		l10.9,29.4l2.6,2.7L64,292.1l-0.5,1.3l1.1,5.5l2-5.3l-8.5-42.1l0.9,0.9l-7.1-34.7l3.6,3.6l3.9,3.8L72,287.6l-0.4,1.2l1.1,5.6
		l2.4-6.6L66,243.1l-1.6-4.3l-10.2-50.4l4.1-8.9l11.4,56l0.9,0.9l9.2,45.3L80,283l-6.2,17l0.9,4.2l0.3,1.4l-4,10.8l5-5l5-5l3.9-10.8
		L60.4,174.9l0.5-1.3l-1.6-7.8l4.1-8.9l1.3,6.3l2-5.3l-1.2-5.6l18.2-49.5l5.1-5.1l-18.3,49.8l8.1-22.1l5-5l10.2-27.7l-3.9,3.9
		l9.4-9.5L76.2,67.5l-10.9,53.7l-0.6,0.6L60.3,143.7z M63.5,57.2l-0.7-1.8l-1.7-1.7l-0.7,3.7l1.9,5.3L63.5,57.2z M55.4,52.6
		l-1.9-5.3l-1.2,5.5l2,5.4L55.4,52.6z M48.8,41.3l-1.1-1l0.8,2.2L48.8,41.3z M33.5,187.4l-0.1,0.5l-0.1,0.4v0.1l-0.9,4.5l3,8.3l5,5
		L33.5,187.4z M29.3,195l-2.1-5.7l0.2-1.1l-1.9-5.4l-1.2,5.6l1,2.7L29.3,195z M28.6,182.6l1.1-5.6l-2-5.3l-1.1,5.5L28.6,182.6z
		 M30.8,171.4l22-108.5l-1.6-4.4L29.2,167L30.8,171.4z M47.4,48.1l-2-5.3l-1.1,5.5l2,5.3L47.4,48.1z M41.3,33.9l-2.6-2.6l0.1,0.1
		l-0.3,1.2l2,5.3L41.3,33.9z M57.8,309.1l1.1,5.5l1.9-5.3l-1.1-5.6L57.8,309.1z M55.9,331.5l6.1-16.6L55.9,331.5z M65.8,304.5
		l1.1,5.6l2-5.4l-1.2-5.5L65.8,304.5z M65.9,321.4l4.1-11L65.9,321.4z M73.6,147.8l-2,5.3l1.1,5.6l2-5.4L73.6,147.8z M67.8,163.5
		l-2,5.3L83.1,254l-1.9-5.8l7.5,37.1l2-5.3L68.5,170.3l0.4-1.2L67.8,163.5z M89.9,290.9l1.1,5.5l0.1-0.1l1.9-5.2l-1.2-5.5
		L89.9,290.9z M78.5,143l10.2-27.7L78.5,143z M88.7,115.3l5-5l7.8-21.3l-2.2-1.9l-0.5,0.5L88.7,115.3z M71.2,63.3l-2.6-2.2l-0.2,0.8
		l2,5.4L71.2,63.3z M44.8,58.3l-1.6-4.4l-22,108.5l1.6,4.5L44.8,58.3z M39.4,43.5l-2-5.3l-1.1,5.6l1.9,5.3L39.4,43.5z M33.6,27.8
		l-1-2.7l-4-3.9l2.1,5.7L30.5,28l2,5.4L33.6,27.8z M19.7,167.1l-1.1,5.6l1.9,5.3l1.2-5.5L19.7,167.1z M17.4,178.3l-0.8,4l2.6,2.7
		v-0.2l0.2-1.2L17.4,178.3z M36.8,53.8l-1.7-4.4l-22,108.5l1.7,4.4L36.8,53.8z M31.3,39l-1.9-5.3l-1.2,5.5l2,5.4L31.3,39z
		 M11.7,162.6l-1.2,5.5l2,5.4l1.1-5.6L11.7,162.6z M98.4,288.9l-0.5-2.5l2-5.4l1.1,5.4L98.4,288.9z M96.8,280.7l-1.2-5.5l0.5-1.3
		L73.9,164.3l1.9-5.3l1.2,5.5l-0.5,1.3l22.2,109.6L96.8,280.7z M79.6,148.6l2-5.3l1.1,5.5l-1.9,5.3L79.6,148.6z M28.7,49.3l-1.6-4.5
		l-22,108.5l1.6,4.5L28.7,49.3z"/>
	<path id="svg_13" class="st2" d="M176.6,155.6h9.6v2.2h-12.3v-20.3h2.7V155.6z M200.6,154.3l5.8-16.8h2.9l-7.5,20.3h-2.4l-7.5-20.3
		h2.9L200.6,154.3z M222,157.8h-2.7v-20.3h2.7V157.8z M240.7,154.3l5.8-16.8h2.9l-7.5,20.3h-2.4l-7.5-20.3h2.9L240.7,154.3z
		 M189.5,192.1h-2.7l-10.2-15.6v15.6h-2.7v-20.3h2.7l10.2,15.7v-15.7h2.7V192.1z M212.8,186.8h-8.5l-1.9,5.3h-2.8l7.7-20.3h2.4
		l7.8,20.3h-2.8L212.8,186.8z M205.1,184.6h6.9l-3.5-9.5L205.1,184.6z M239.5,174H233v18.1h-2.7V174h-6.5v-2.2h15.7V174z
		 M252.4,192.1h-2.6v-20.3h2.6V192.1z M280,182.6c0,2-0.3,3.7-1,5.2c-0.6,1.5-1.6,2.6-2.8,3.4c-1.3,0.8-2.7,1.2-4.3,1.2
		c-1.6,0-3-0.4-4.3-1.2c-1.2-0.8-2.2-1.9-2.9-3.4c-0.6-1.4-1-3.1-1-5v-1.5c0-1.9,0.3-3.7,1-5.2s1.7-2.6,2.9-3.4
		c1.2-0.8,2.7-1.2,4.3-1.2c1.6,0,3,0.4,4.3,1.2c1.2,0.8,2.2,1.9,2.8,3.4c0.7,1.5,1,3.2,1,5.2V182.6z M277.4,181.3
		c0-2.4-0.5-4.3-1.5-5.5c-1-1.3-2.3-2-4-2s-3.1,0.7-4,2c-1,1.2-1.5,3-1.5,5.3v1.5c0,2.3,0.4,4.2,1.4,5.5s2.4,2,4.1,2s3-0.6,4-1.9
		c0.9-1.2,1.4-3.1,1.5-5.4V181.3z M306.7,192.1H304l-10.2-15.6v15.6h-2.7v-20.3h2.7l10.2,15.7v-15.7h2.7V192.1z M330,186.8h-8.5
		l-1.9,5.3h-2.8l7.8-20.3h2.3l7.8,20.3h-2.8L330,186.8z M322.3,184.6h6.9l-3.5-9.5L322.3,184.6z M347.2,189.9h9.6v2.2h-12.3v-20.3
		h2.7L347.2,189.9z M176.6,218.4v8h-2.7v-20.3h7.5c2.2,0,3.9,0.5,5.2,1.7c1.3,1.1,1.9,2.6,1.9,4.5s-0.6,3.5-1.9,4.5
		c-1.2,1.1-3,1.6-5.3,1.6H176.6z M176.6,216.2h4.8c1.4,0,2.5-0.3,3.3-1c0.7-0.7,1.1-1.6,1.1-2.9c0-1.2-0.4-2.2-1.1-2.9
		c-0.8-0.7-1.8-1.1-3.2-1.1h-4.9L176.6,216.2z M214.6,226.4h-2.7V217h-10.3v9.4H199v-20.3h2.6v8.7h10.3v-8.7h2.7V226.4z
		 M229.3,226.4h-2.7v-20.3h2.7V226.4z M243.9,224.2h9.6v2.2h-12.3v-20.3h2.7L243.9,224.2z M279.3,226.4h-2.7V217h-10.3v9.4h-2.6
		v-20.3h2.6v8.7h10.3v-8.7h2.7V226.4z M302.6,221.1h-8.5l-2,5.3h-2.7l7.7-20.3h2.4l7.7,20.3h-2.7L302.6,221.1z M294.9,218.9h6.9
		l-3.5-9.5L294.9,218.9z M324.5,218.2h-4.8v8.2H317v-20.3h6.8c2.2,0,4,0.5,5.2,1.5c1.3,1.1,1.9,2.6,1.9,4.6c0,1.2-0.4,2.4-1,3.3 
		c-0.7,0.9-1.7,1.6-2.9,2.1l4.8,8.6v0.2h-2.9L324.5,218.2z M319.7,216h4.1c1.4,0,2.4-0.4,3.2-1.1c0.8-0.6,1.2-1.6,1.2-2.7
		c0-1.3-0.4-2.2-1.1-2.9c-0.8-0.7-1.9-1-3.3-1h-4.1L319.7,216z M345.2,206.1l6.6,16.5l6.6-16.5h3.5v20.3h-2.7v-7.9l0.3-8.6
		l-6.7,16.5h-2l-6.7-16.4l0.3,8.5v7.9h-2.7v-20.3H345.2z M389.3,216.9c0,2-0.3,3.7-1,5.2s-1.6,2.6-2.8,3.4c-1.3,0.8-2.7,1.2-4.3,1.2
		c-1.6,0-3-0.4-4.3-1.2c-1.2-0.8-2.2-1.9-2.9-3.4c-0.6-1.4-1-3.1-1-5v-1.5c0-2,0.3-3.7,1-5.2s1.6-2.6,2.9-3.4
		c1.2-0.8,2.6-1.2,4.2-1.2c1.7,0,3.1,0.4,4.3,1.2c1.3,0.7,2.2,1.9,2.9,3.4c0.7,1.5,1,3.2,1,5.2L389.3,216.9z M386.7,215.6
		c0-2.4-0.5-4.3-1.5-5.6s-2.3-1.9-4.1-1.9c-1.7,0-3,0.6-4,1.9c-0.9,1.3-1.4,3.1-1.5,5.4v1.5c0,2.3,0.5,4.1,1.5,5.5
		c1,1.3,2.3,2,4.1,2c1.7,0,3-0.7,4-1.9c0.9-1.3,1.4-3.1,1.5-5.4V215.6z M416,226.4h-2.7l-10.2-15.7v15.7h-2.7v-20.3h2.7l10.2,15.7
		v-15.7h2.7V226.4z M430.7,226.4H428v-20.3h2.7V226.4z M457.6,219.9c-0.3,2.2-1,3.8-2.4,5c-1.3,1.2-3.1,1.8-5.3,1.8
		c-2.4,0-4.3-0.9-5.8-2.6c-1.4-1.7-2.1-4-2.1-6.9v-2c0-1.9,0.3-3.5,1-5c0.6-1.4,1.6-2.5,2.8-3.3c1.3-0.7,2.7-1.1,4.3-1.1
		c2.2,0,3.9,0.6,5.2,1.8c1.3,1.2,2.1,2.9,2.3,5h-2.7c-0.2-1.6-0.7-2.8-1.5-3.5c-0.8-0.8-1.9-1.1-3.3-1.1c-1.7,0-3,0.6-4,1.9
		c-1,1.2-1.4,3-1.4,5.4v1.9c0,2.3,0.4,4,1.3,5.3c1,1.3,2.2,2,3.9,2c1.5,0,2.6-0.4,3.4-1.1c0.8-0.6,1.3-1.8,1.6-3.5L457.6,219.9z"/>
	<path id="svg_14" class="st1" d="M110.2,287.7l-4.1,11l-5,5l6-16.3L81.4,161l22.4-60.9l5-5l-24.3,66.1L110.2,287.7z M60.3,143.7
		l-1.8,1.8l-5,5l-0.7,0.7L68.9,72l-6.1-16.6l-5-5l8,21.8L49,155l-0.6,0.6l-5,5l-3.2,8.8l20.7-102l-8.2-22.1l-5-5l10.1,27.4
		L33.4,187.9l-0.1,0.4v0.1l-1.2,5.7l4.7,12.6l0.5,1.3l3.9,19.5l-14-38.2L52.8,62.9L42.7,35.2l-5-5l12,32.9L24.1,189.5l16.3,44.3
		l2.6,2.7l15.9,78.2l-18.2,49.5l5-5L62,314.9l-15.1-74.6l3.6,3.6l3.8,3.8l12.6,62.4l-16.1,44l5-5L70,310.4l-11.9-58.9l7.4,7.5
		l9.2,45.2l0.3,1.4L60.8,344l5-5l5.1-5l5-5l10.2-27.7L60.4,174.9l18.2-49.5l5.1-5.1l-18.3,49.8L91,296.5l-10,27.4l5-5l8.1-22.2
		L68.5,170.3l20.2-55l-3.9,3.9l24-24.1L67.9,60.4l5.9,16.3L60.3,143.7z M78,276.6l-2.4-7.6l-11.2-30.2l-10.2-50.4l4.1-8.9L78,276.6z
		 M44.8,58.3L32.6,25.1l-5-5l14.1,38.5L16.1,185l14.2,38.7l5,5l-16.1-43.9L44.8,58.3z M36.8,53.8L22.5,15.1l-5-5L33.7,54L8,180.5
		l12.3,33.2l4.9,5l-14.1-38.5L36.8,53.8z M102.1,292.2L96,308.8l-5,5l8-21.8L73.4,165.5l20.4-55.3l4.9-5l-22.2,60.6L102.1,292.2z
		 M28.7,49.3L12.5,5l-5-5l18.1,49.5L0,175.9l10.2,27.7l5,5L3.1,175.7L28.7,49.3z"/>
	<path id="svg_15" class="st1" d="M108.4,278.9l-2.2,2.2l1.7-4.6L108.4,278.9z M88.8,149.6l-1.1-5.6l1.9-5.3l1.2,5.6L88.8,149.6z
		 M86.5,138.4l10.7-29L86.5,138.4z M98.7,105.2L104,91l2.4,2.1l-2.7,7.1L98.7,105.2z M104.8,276.2l-1.1-5.6l0.4-1.2L81.9,159.7
		l2-5.3L85,160l-0.5,1.2l22.3,109.7L104.8,276.2z M60.3,143.7l-1.8,1.8l-5,5l-0.7,0.7L68.9,72l-1.6-4.5l-13.2,64.9l-0.6,0.6L49,155
		l-0.6,0.6l-5,5l-3.2,8.8l20.7-102L59.2,63L38.5,165.3l-0.2,0.4l0.1,0.1l-1.2,5.7l4.7,12.6l0.5,1.3l3.9,19.5l-10.5-28.7l-1.2,5.6
		l10.9,29.4l2.6,2.7L64,292.1l-0.5,1.3l1.1,5.5l2-5.3l-8.5-42.1l0.9,0.9l-7.1-34.7l3.6,3.6l3.9,3.8L72,287.6l-0.4,1.2l1.1,5.6
		l2.4-6.6L66,243.1l-1.6-4.3l-10.2-50.4l4.1-8.9l11.4,56l0.9,0.9l9.2,45.3L80,283l-6.2,17l0.9,4.2l0.3,1.4l-4,10.8l5-5l5-5l3.9-10.8
		L60.4,174.9l0.5-1.3l-1.6-7.8l4.1-8.9l1.3,6.3l2-5.3l-1.2-5.6l18.2-49.5l5.1-5.1l-18.3,49.8l8.1-22.1l5-5l10.2-27.7l-3.9,3.9
		l9.4-9.5L76.2,67.5l-10.9,53.7l-0.6,0.6L60.3,143.7z M63.5,57.2l-0.7-1.8l-1.7-1.7l-0.7,3.7l1.9,5.3L63.5,57.2z M55.4,52.6
		l-1.9-5.3l-1.2,5.5l2,5.4L55.4,52.6z M48.8,41.3l-1.1-1l0.8,2.2L48.8,41.3z M33.5,187.4l-0.1,0.5l-0.1,0.4v0.1l-0.9,4.5l3,8.3l5,5
		L33.5,187.4z M29.3,195l-2.1-5.7l0.2-1.1l-1.9-5.4l-1.2,5.6l1,2.7L29.3,195z M28.6,182.6l1.1-5.6l-2-5.3l-1.1,5.5L28.6,182.6z
		 M30.8,171.4l22-108.5l-1.6-4.4L29.2,167L30.8,171.4z M47.4,48.1l-2-5.3l-1.1,5.5l2,5.3L47.4,48.1z M41.3,33.9l-2.6-2.6l0.1,0.1
		l-0.3,1.2l2,5.3L41.3,33.9z M57.8,309.1l1.1,5.5l1.9-5.3l-1.1-5.6L57.8,309.1z M55.9,331.5l6.1-16.6L55.9,331.5z M65.8,304.5
		l1.1,5.6l2-5.4l-1.2-5.5L65.8,304.5z M65.9,321.4l4.1-11L65.9,321.4z M73.6,147.8l-2,5.3l1.1,5.6l2-5.4L73.6,147.8z M67.8,163.5
		l-2,5.3L83.1,254l-1.9-5.8l7.5,37.1l2-5.3L68.5,170.3l0.4-1.2L67.8,163.5z M89.9,290.9l1.1,5.5l0.1-0.1l1.9-5.2l-1.2-5.5
		L89.9,290.9z M78.5,143l10.2-27.7L78.5,143z M88.7,115.3l5-5l7.8-21.3l-2.2-1.9l-0.5,0.5L88.7,115.3z M71.2,63.3l-2.6-2.2l-0.2,0.8
		l2,5.4L71.2,63.3z M44.8,58.3l-1.6-4.4l-22,108.5l1.6,4.5L44.8,58.3z M39.4,43.5l-2-5.3l-1.1,5.6l1.9,5.3L39.4,43.5z M33.6,27.8
		l-1-2.7l-4-3.9l2.1,5.7L30.5,28l2,5.4L33.6,27.8z M19.7,167.1l-1.1,5.6l1.9,5.3l1.2-5.5L19.7,167.1z M17.4,178.3l-0.8,4l2.6,2.7
		v-0.2l0.2-1.2L17.4,178.3z M36.8,53.8l-1.7-4.4l-22,108.5l1.7,4.4L36.8,53.8z M31.3,39l-1.9-5.3l-1.2,5.5l2,5.4L31.3,39z
		 M11.7,162.6l-1.2,5.5l2,5.4l1.1-5.6L11.7,162.6z M98.4,288.9l-0.5-2.5l2-5.4l1.1,5.4L98.4,288.9z M96.8,280.7l-1.2-5.5l0.5-1.3
		L73.9,164.3l1.9-5.3l1.2,5.5l-0.5,1.3l22.2,109.6L96.8,280.7z M79.6,148.6l2-5.3l1.1,5.5l-1.9,5.3L79.6,148.6z M28.7,49.3l-1.6-4.5
		l-22,108.5l1.6,4.5L28.7,49.3z"/>
	<path id="svg_16" class="st2" d="M176.6,155.6h9.6v2.2h-12.3v-20.3h2.7V155.6z M200.6,154.3l5.8-16.8h2.9l-7.5,20.3h-2.4l-7.5-20.3
		h2.9L200.6,154.3z M222,157.8h-2.7v-20.3h2.7V157.8z M240.7,154.3l5.8-16.8h2.9l-7.5,20.3h-2.4l-7.5-20.3h2.9L240.7,154.3z
		 M189.5,192.1h-2.7l-10.2-15.6v15.6h-2.7v-20.3h2.7l10.2,15.7v-15.7h2.7V192.1z M212.8,186.8h-8.5l-1.9,5.3h-2.8l7.7-20.3h2.4
		l7.8,20.3h-2.8L212.8,186.8z M205.1,184.6h6.9l-3.5-9.5L205.1,184.6z M239.5,174H233v18.1h-2.7V174h-6.5v-2.2h15.7V174z
		 M252.4,192.1h-2.6v-20.3h2.6V192.1z M280,182.6c0,2-0.3,3.7-1,5.2c-0.6,1.5-1.6,2.6-2.8,3.4c-1.3,0.8-2.7,1.2-4.3,1.2
		c-1.6,0-3-0.4-4.3-1.2c-1.2-0.8-2.2-1.9-2.9-3.4c-0.6-1.4-1-3.1-1-5v-1.5c0-1.9,0.3-3.7,1-5.2s1.7-2.6,2.9-3.4
		c1.2-0.8,2.7-1.2,4.3-1.2c1.6,0,3,0.4,4.3,1.2c1.2,0.8,2.2,1.9,2.8,3.4c0.7,1.5,1,3.2,1,5.2V182.6z M277.4,181.3
		c0-2.4-0.5-4.3-1.5-5.5c-1-1.3-2.3-2-4-2s-3.1,0.7-4,2c-1,1.2-1.5,3-1.5,5.3v1.5c0,2.3,0.4,4.2,1.4,5.5s2.4,2,4.1,2s3-0.6,4-1.9
		c0.9-1.2,1.4-3.1,1.5-5.4V181.3z M306.7,192.1H304l-10.2-15.6v15.6h-2.7v-20.3h2.7l10.2,15.7v-15.7h2.7V192.1z M330,186.8h-8.5
		l-1.9,5.3h-2.8l7.8-20.3h2.3l7.8,20.3h-2.8L330,186.8z M322.3,184.6h6.9l-3.5-9.5L322.3,184.6z M347.2,189.9h9.6v2.2h-12.3v-20.3
		h2.7L347.2,189.9z M176.6,218.4v8h-2.7v-20.3h7.5c2.2,0,3.9,0.5,5.2,1.7c1.3,1.1,1.9,2.6,1.9,4.5s-0.6,3.5-1.9,4.5
		c-1.2,1.1-3,1.6-5.3,1.6H176.6z M176.6,216.2h4.8c1.4,0,2.5-0.3,3.3-1c0.7-0.7,1.1-1.6,1.1-2.9c0-1.2-0.4-2.2-1.1-2.9
		c-0.8-0.7-1.8-1.1-3.2-1.1h-4.9L176.6,216.2z M214.6,226.4h-2.7V217h-10.3v9.4H199v-20.3h2.6v8.7h10.3v-8.7h2.7V226.4z
		 M229.3,226.4h-2.7v-20.3h2.7V226.4z M243.9,224.2h9.6v2.2h-12.3v-20.3h2.7L243.9,224.2z M279.3,226.4h-2.7V217h-10.3v9.4h-2.6
		v-20.3h2.6v8.7h10.3v-8.7h2.7V226.4z M302.6,221.1h-8.5l-2,5.3h-2.7l7.7-20.3h2.4l7.7,20.3h-2.7L302.6,221.1z M294.9,218.9h6.9
		l-3.5-9.5L294.9,218.9z M324.5,218.2h-4.8v8.2H317v-20.3h6.8c2.2,0,4,0.5,5.2,1.5c1.3,1.1,1.9,2.6,1.9,4.6c0,1.2-0.4,2.4-1,3.3
		c-0.7,0.9-1.7,1.6-2.9,2.1l4.8,8.6v0.2h-2.9L324.5,218.2z M319.7,216h4.1c1.4,0,2.4-0.4,3.2-1.1c0.8-0.6,1.2-1.6,1.2-2.7
		c0-1.3-0.4-2.2-1.1-2.9c-0.8-0.7-1.9-1-3.3-1h-4.1L319.7,216z M345.2,206.1l6.6,16.5l6.6-16.5h3.5v20.3h-2.7v-7.9l0.3-8.6
		l-6.7,16.5h-2l-6.7-16.4l0.3,8.5v7.9h-2.7v-20.3H345.2z M389.3,216.9c0,2-0.3,3.7-1,5.2s-1.6,2.6-2.8,3.4c-1.3,0.8-2.7,1.2-4.3,1.2
		c-1.6,0-3-0.4-4.3-1.2c-1.2-0.8-2.2-1.9-2.9-3.4c-0.6-1.4-1-3.1-1-5v-1.5c0-2,0.3-3.7,1-5.2s1.6-2.6,2.9-3.4
		c1.2-0.8,2.6-1.2,4.2-1.2c1.7,0,3.1,0.4,4.3,1.2c1.3,0.7,2.2,1.9,2.9,3.4c0.7,1.5,1,3.2,1,5.2L389.3,216.9z M386.7,215.6
		c0-2.4-0.5-4.3-1.5-5.6s-2.3-1.9-4.1-1.9c-1.7,0-3,0.6-4,1.9c-0.9,1.3-1.4,3.1-1.5,5.4v1.5c0,2.3,0.5,4.1,1.5,5.5
		c1,1.3,2.3,2,4.1,2c1.7,0,3-0.7,4-1.9c0.9-1.3,1.4-3.1,1.5-5.4V215.6z M416,226.4h-2.7l-10.2-15.7v15.7h-2.7v-20.3h2.7l10.2,15.7
		v-15.7h2.7V226.4z M430.7,226.4H428v-20.3h2.7V226.4z M457.6,219.9c-0.3,2.2-1,3.8-2.4,5c-1.3,1.2-3.1,1.8-5.3,1.8
		c-2.4,0-4.3-0.9-5.8-2.6c-1.4-1.7-2.1-4-2.1-6.9v-2c0-1.9,0.3-3.5,1-5c0.6-1.4,1.6-2.5,2.8-3.3c1.3-0.7,2.7-1.1,4.3-1.1
		c2.2,0,3.9,0.6,5.2,1.8c1.3,1.2,2.1,2.9,2.3,5h-2.7c-0.2-1.6-0.7-2.8-1.5-3.5c-0.8-0.8-1.9-1.1-3.3-1.1c-1.7,0-3,0.6-4,1.9
		c-1,1.2-1.4,3-1.4,5.4v1.9c0,2.3,0.4,4,1.3,5.3c1,1.3,2.2,2,3.9,2c1.5,0,2.6-0.4,3.4-1.1c0.8-0.6,1.3-1.8,1.6-3.5L457.6,219.9z"/>
	<path id="svg_3" class="st1" d="M110.2,287.7l-4.1,11l-5,5l6-16.3L81.4,161l22.4-60.9l5-5l-24.3,66.1L110.2,287.7z M60.3,143.7
		l-1.8,1.8l-5,5l-0.7,0.7L68.9,72l-6.1-16.6l-5-5l8,21.8L49,155l-0.6,0.6l-5,5l-3.2,8.8l20.7-102l-8.2-22.1l-5-5l10.1,27.4
		L33.4,187.9l-0.1,0.4v0.1l-1.2,5.7l4.7,12.6l0.5,1.3l3.9,19.5l-14-38.2L52.8,62.9L42.7,35.2l-5-5l12,32.9L24.1,189.5l16.3,44.3
		l2.6,2.7l15.9,78.2l-18.2,49.5l5-5L62,314.9l-15.1-74.6l3.6,3.6l3.8,3.8l12.6,62.4l-16.1,44l5-5L70,310.4l-11.9-58.9l7.4,7.5
		l9.2,45.2l0.3,1.4L60.8,344l5-5l5.1-5l5-5l10.2-27.7L60.4,174.9l18.2-49.5l5.1-5.1l-18.3,49.8L91,296.5l-10,27.4l5-5l8.1-22.2
		L68.5,170.3l20.2-55l-3.9,3.9l24-24.1L67.9,60.4l5.9,16.3L60.3,143.7z M78,276.6l-2.4-7.6l-11.2-30.2l-10.2-50.4l4.1-8.9L78,276.6z
		 M44.8,58.3L32.6,25.1l-5-5l14.1,38.5L16.1,185l14.2,38.7l5,5l-16.1-43.9L44.8,58.3z M36.8,53.8L22.5,15.1l-5-5L33.7,54L8,180.5
		l12.3,33.2l4.9,5l-14.1-38.5L36.8,53.8z M102.1,292.2L96,308.8l-5,5l8-21.8L73.4,165.5l20.4-55.3l4.9-5l-22.2,60.6L102.1,292.2z
		 M28.7,49.3L12.5,5l-5-5l18.1,49.5L0,175.9l10.2,27.7l5,5L3.1,175.7L28.7,49.3z"/>
	<path id="svg_4" class="st1" d="M108.4,278.9l-2.2,2.2l1.7-4.6L108.4,278.9z M88.8,149.6l-1.1-5.6l1.9-5.3l1.2,5.6L88.8,149.6z
		 M86.5,138.4l10.7-29L86.5,138.4z M98.7,105.2L104,91l2.4,2.1l-2.7,7.1L98.7,105.2z M104.8,276.2l-1.1-5.6l0.4-1.2L81.9,159.7
		l2-5.3L85,160l-0.5,1.2l22.3,109.7L104.8,276.2z M60.3,143.7l-1.8,1.8l-5,5l-0.7,0.7L68.9,72l-1.6-4.5l-13.2,64.9l-0.6,0.6L49,155
		l-0.6,0.6l-5,5l-3.2,8.8l20.7-102L59.2,63L38.5,165.3l-0.2,0.4l0.1,0.1l-1.2,5.7l4.7,12.6l0.5,1.3l3.9,19.5l-10.5-28.7l-1.2,5.6
		l10.9,29.4l2.6,2.7L64,292.1l-0.5,1.3l1.1,5.5l2-5.3l-8.5-42.1l0.9,0.9l-7.1-34.7l3.6,3.6l3.9,3.8L72,287.6l-0.4,1.2l1.1,5.6
		l2.4-6.6L66,243.1l-1.6-4.3l-10.2-50.4l4.1-8.9l11.4,56l0.9,0.9l9.2,45.3L80,283l-6.2,17l0.9,4.2l0.3,1.4l-4,10.8l5-5l5-5l3.9-10.8
		L60.4,174.9l0.5-1.3l-1.6-7.8l4.1-8.9l1.3,6.3l2-5.3l-1.2-5.6l18.2-49.5l5.1-5.1l-18.3,49.8l8.1-22.1l5-5l10.2-27.7l-3.9,3.9
		l9.4-9.5L76.2,67.5l-10.9,53.7l-0.6,0.6L60.3,143.7z M63.5,57.2l-0.7-1.8l-1.7-1.7l-0.7,3.7l1.9,5.3L63.5,57.2z M55.4,52.6
		l-1.9-5.3l-1.2,5.5l2,5.4L55.4,52.6z M48.8,41.3l-1.1-1l0.8,2.2L48.8,41.3z M33.5,187.4l-0.1,0.5l-0.1,0.4v0.1l-0.9,4.5l3,8.3l5,5
		L33.5,187.4z M29.3,195l-2.1-5.7l0.2-1.1l-1.9-5.4l-1.2,5.6l1,2.7L29.3,195z M28.6,182.6l1.1-5.6l-2-5.3l-1.1,5.5L28.6,182.6z
		 M30.8,171.4l22-108.5l-1.6-4.4L29.2,167L30.8,171.4z M47.4,48.1l-2-5.3l-1.1,5.5l2,5.3L47.4,48.1z M41.3,33.9l-2.6-2.6l0.1,0.1
		l-0.3,1.2l2,5.3L41.3,33.9z M57.8,309.1l1.1,5.5l1.9-5.3l-1.1-5.6L57.8,309.1z M55.9,331.5l6.1-16.6L55.9,331.5z M65.8,304.5
		l1.1,5.6l2-5.4l-1.2-5.5L65.8,304.5z M65.9,321.4l4.1-11L65.9,321.4z M73.6,147.8l-2,5.3l1.1,5.6l2-5.4L73.6,147.8z M67.8,163.5
		l-2,5.3L83.1,254l-1.9-5.8l7.5,37.1l2-5.3L68.5,170.3l0.4-1.2L67.8,163.5z M89.9,290.9l1.1,5.5l0.1-0.1l1.9-5.2l-1.2-5.5
		L89.9,290.9z M78.5,143l10.2-27.7L78.5,143z M88.7,115.3l5-5l7.8-21.3l-2.2-1.9l-0.5,0.5L88.7,115.3z M71.2,63.3l-2.6-2.2l-0.2,0.8
		l2,5.4L71.2,63.3z M44.8,58.3l-1.6-4.4l-22,108.5l1.6,4.5L44.8,58.3z M39.4,43.5l-2-5.3l-1.1,5.6l1.9,5.3L39.4,43.5z M33.6,27.8
		l-1-2.7l-4-3.9l2.1,5.7L30.5,28l2,5.4L33.6,27.8z M19.7,167.1l-1.1,5.6l1.9,5.3l1.2-5.5L19.7,167.1z M17.4,178.3l-0.8,4l2.6,2.7
		v-0.2l0.2-1.2L17.4,178.3z M36.8,53.8l-1.7-4.4l-22,108.5l1.7,4.4L36.8,53.8z M31.3,39l-1.9-5.3l-1.2,5.5l2,5.4L31.3,39z
		 M11.7,162.6l-1.2,5.5l2,5.4l1.1-5.6L11.7,162.6z M98.4,288.9l-0.5-2.5l2-5.4l1.1,5.4L98.4,288.9z M96.8,280.7l-1.2-5.5l0.5-1.3
		L73.9,164.3l1.9-5.3l1.2,5.5l-0.5,1.3l22.2,109.6L96.8,280.7z M79.6,148.6l2-5.3l1.1,5.5l-1.9,5.3L79.6,148.6z M28.7,49.3l-1.6-4.5
		l-22,108.5l1.6,4.5L28.7,49.3z"/>
	<path id="svg_5" class="st2" d="M176.6,155.6h9.6v2.2h-12.3v-20.3h2.7V155.6z M200.6,154.3l5.8-16.8h2.9l-7.5,20.3h-2.4l-7.5-20.3
		h2.9L200.6,154.3z M222,157.8h-2.7v-20.3h2.7V157.8z M240.7,154.3l5.8-16.8h2.9l-7.5,20.3h-2.4l-7.5-20.3h2.9L240.7,154.3z
		 M189.5,192.1h-2.7l-10.2-15.6v15.6h-2.7v-20.3h2.7l10.2,15.7v-15.7h2.7V192.1z M212.8,186.8h-8.5l-1.9,5.3h-2.8l7.7-20.3h2.4
		l7.8,20.3h-2.8L212.8,186.8z M205.1,184.6h6.9l-3.5-9.5L205.1,184.6z M239.5,174H233v18.1h-2.7V174h-6.5v-2.2h15.7V174z
		 M252.4,192.1h-2.6v-20.3h2.6V192.1z M280,182.6c0,2-0.3,3.7-1,5.2c-0.6,1.5-1.6,2.6-2.8,3.4c-1.3,0.8-2.7,1.2-4.3,1.2
		c-1.6,0-3-0.4-4.3-1.2c-1.2-0.8-2.2-1.9-2.9-3.4c-0.6-1.4-1-3.1-1-5v-1.5c0-1.9,0.3-3.7,1-5.2s1.7-2.6,2.9-3.4
		c1.2-0.8,2.7-1.2,4.3-1.2c1.6,0,3,0.4,4.3,1.2c1.2,0.8,2.2,1.9,2.8,3.4c0.7,1.5,1,3.2,1,5.2V182.6z M277.4,181.3
		c0-2.4-0.5-4.3-1.5-5.5c-1-1.3-2.3-2-4-2s-3.1,0.7-4,2c-1,1.2-1.5,3-1.5,5.3v1.5c0,2.3,0.4,4.2,1.4,5.5s2.4,2,4.1,2s3-0.6,4-1.9
		c0.9-1.2,1.4-3.1,1.5-5.4V181.3z M306.7,192.1H304l-10.2-15.6v15.6h-2.7v-20.3h2.7l10.2,15.7v-15.7h2.7V192.1z M330,186.8h-8.5
		l-1.9,5.3h-2.8l7.8-20.3h2.3l7.8,20.3h-2.8L330,186.8z M322.3,184.6h6.9l-3.5-9.5L322.3,184.6z M347.2,189.9h9.6v2.2h-12.3v-20.3
		h2.7L347.2,189.9z M176.6,218.4v8h-2.7v-20.3h7.5c2.2,0,3.9,0.5,5.2,1.7c1.3,1.1,1.9,2.6,1.9,4.5s-0.6,3.5-1.9,4.5
		c-1.2,1.1-3,1.6-5.3,1.6H176.6z M176.6,216.2h4.8c1.4,0,2.5-0.3,3.3-1c0.7-0.7,1.1-1.6,1.1-2.9c0-1.2-0.4-2.2-1.1-2.9
		c-0.8-0.7-1.8-1.1-3.2-1.1h-4.9L176.6,216.2z M214.6,226.4h-2.7V217h-10.3v9.4H199v-20.3h2.6v8.7h10.3v-8.7h2.7V226.4z
		 M229.3,226.4h-2.7v-20.3h2.7V226.4z M243.9,224.2h9.6v2.2h-12.3v-20.3h2.7L243.9,224.2z M279.3,226.4h-2.7V217h-10.3v9.4h-2.6
		v-20.3h2.6v8.7h10.3v-8.7h2.7V226.4z M302.6,221.1h-8.5l-2,5.3h-2.7l7.7-20.3h2.4l7.7,20.3h-2.7L302.6,221.1z M294.9,218.9h6.9
		l-3.5-9.5L294.9,218.9z M324.5,218.2h-4.8v8.2H317v-20.3h6.8c2.2,0,4,0.5,5.2,1.5c1.3,1.1,1.9,2.6,1.9,4.6c0,1.2-0.4,2.4-1,3.3
		c-0.7,0.9-1.7,1.6-2.9,2.1l4.8,8.6v0.2h-2.9L324.5,218.2z M319.7,216h4.1c1.4,0,2.4-0.4,3.2-1.1c0.8-0.6,1.2-1.6,1.2-2.7
		c0-1.3-0.4-2.2-1.1-2.9c-0.8-0.7-1.9-1-3.3-1h-4.1L319.7,216z M345.2,206.1l6.6,16.5l6.6-16.5h3.5v20.3h-2.7v-7.9l0.3-8.6
		l-6.7,16.5h-2l-6.7-16.4l0.3,8.5v7.9h-2.7v-20.3H345.2z M389.3,216.9c0,2-0.3,3.7-1,5.2s-1.6,2.6-2.8,3.4c-1.3,0.8-2.7,1.2-4.3,1.2
		c-1.6,0-3-0.4-4.3-1.2c-1.2-0.8-2.2-1.9-2.9-3.4c-0.6-1.4-1-3.1-1-5v-1.5c0-2,0.3-3.7,1-5.2s1.6-2.6,2.9-3.4
		c1.2-0.8,2.6-1.2,4.2-1.2c1.7,0,3.1,0.4,4.3,1.2c1.3,0.7,2.2,1.9,2.9,3.4c0.7,1.5,1,3.2,1,5.2L389.3,216.9z M386.7,215.6
		c0-2.4-0.5-4.3-1.5-5.6s-2.3-1.9-4.1-1.9c-1.7,0-3,0.6-4,1.9c-0.9,1.3-1.4,3.1-1.5,5.4v1.5c0,2.3,0.5,4.1,1.5,5.5
		c1,1.3,2.3,2,4.1,2c1.7,0,3-0.7,4-1.9c0.9-1.3,1.4-3.1,1.5-5.4V215.6z M416,226.4h-2.7l-10.2-15.7v15.7h-2.7v-20.3h2.7l10.2,15.7
		v-15.7h2.7V226.4z M430.7,226.4H428v-20.3h2.7V226.4z M457.6,219.9c-0.3,2.2-1,3.8-2.4,5c-1.3,1.2-3.1,1.8-5.3,1.8
		c-2.4,0-4.3-0.9-5.8-2.6c-1.4-1.7-2.1-4-2.1-6.9v-2c0-1.9,0.3-3.5,1-5c0.6-1.4,1.6-2.5,2.8-3.3c1.3-0.7,2.7-1.1,4.3-1.1
		c2.2,0,3.9,0.6,5.2,1.8c1.3,1.2,2.1,2.9,2.3,5h-2.7c-0.2-1.6-0.7-2.8-1.5-3.5c-0.8-0.8-1.9-1.1-3.3-1.1c-1.7,0-3,0.6-4,1.9
		c-1,1.2-1.4,3-1.4,5.4v1.9c0,2.3,0.4,4,1.3,5.3c1,1.3,2.2,2,3.9,2c1.5,0,2.6-0.4,3.4-1.1c0.8-0.6,1.3-1.8,1.6-3.5L457.6,219.9z"/>
	<path id="svg_10" class="st1" d="M110.2,287.7l-4.1,11l-5,5l6-16.3L81.4,161l22.4-60.9l5-5l-24.3,66.1L110.2,287.7z M60.3,143.7
		l-1.8,1.8l-5,5l-0.7,0.7L68.9,72l-6.1-16.6l-5-5l8,21.8L49,155l-0.6,0.6l-5,5l-3.2,8.8l20.7-102l-8.2-22.1l-5-5l10.1,27.4
		L33.4,187.9l-0.1,0.4v0.1l-1.2,5.7l4.7,12.6l0.5,1.3l3.9,19.5l-14-38.2L52.8,62.9L42.7,35.2l-5-5l12,32.9L24.1,189.5l16.3,44.3
		l2.6,2.7l15.9,78.2l-18.2,49.5l5-5L62,314.9l-15.1-74.6l3.6,3.6l3.8,3.8l12.6,62.4l-16.1,44l5-5L70,310.4l-11.9-58.9l7.4,7.5
		l9.2,45.2l0.3,1.4L60.8,344l5-5l5.1-5l5-5l10.2-27.7L60.4,174.9l18.2-49.5l5.1-5.1l-18.3,49.8L91,296.5l-10,27.4l5-5l8.1-22.2
		L68.5,170.3l20.2-55l-3.9,3.9l24-24.1L67.9,60.4l5.9,16.3L60.3,143.7z M78,276.6l-2.4-7.6l-11.2-30.2l-10.2-50.4l4.1-8.9L78,276.6z
		 M44.8,58.3L32.6,25.1l-5-5l14.1,38.5L16.1,185l14.2,38.7l5,5l-16.1-43.9L44.8,58.3z M36.8,53.8L22.5,15.1l-5-5L33.7,54L8,180.5
		l12.3,33.2l4.9,5l-14.1-38.5L36.8,53.8z M102.1,292.2L96,308.8l-5,5l8-21.8L73.4,165.5l20.4-55.3l4.9-5l-22.2,60.6L102.1,292.2z
		 M28.7,49.3L12.5,5l-5-5l18.1,49.5L0,175.9l10.2,27.7l5,5L3.1,175.7L28.7,49.3z"/>
	<path id="svg_11" class="st1" d="M108.4,278.9l-2.2,2.2l1.7-4.6L108.4,278.9z M88.8,149.6l-1.1-5.6l1.9-5.3l1.2,5.6L88.8,149.6z
		 M86.5,138.4l10.7-29L86.5,138.4z M98.7,105.2L104,91l2.4,2.1l-2.7,7.1L98.7,105.2z M104.8,276.2l-1.1-5.6l0.4-1.2L81.9,159.7
		l2-5.3L85,160l-0.5,1.2l22.3,109.7L104.8,276.2z M60.3,143.7l-1.8,1.8l-5,5l-0.7,0.7L68.9,72l-1.6-4.5l-13.2,64.9l-0.6,0.6L49,155
		l-0.6,0.6l-5,5l-3.2,8.8l20.7-102L59.2,63L38.5,165.3l-0.2,0.4l0.1,0.1l-1.2,5.7l4.7,12.6l0.5,1.3l3.9,19.5l-10.5-28.7l-1.2,5.6
		l10.9,29.4l2.6,2.7L64,292.1l-0.5,1.3l1.1,5.5l2-5.3l-8.5-42.1l0.9,0.9l-7.1-34.7l3.6,3.6l3.9,3.8L72,287.6l-0.4,1.2l1.1,5.6
		l2.4-6.6L66,243.1l-1.6-4.3l-10.2-50.4l4.1-8.9l11.4,56l0.9,0.9l9.2,45.3L80,283l-6.2,17l0.9,4.2l0.3,1.4l-4,10.8l5-5l5-5l3.9-10.8
		L60.4,174.9l0.5-1.3l-1.6-7.8l4.1-8.9l1.3,6.3l2-5.3l-1.2-5.6l18.2-49.5l5.1-5.1l-18.3,49.8l8.1-22.1l5-5l10.2-27.7l-3.9,3.9
		l9.4-9.5L76.2,67.5l-10.9,53.7l-0.6,0.6L60.3,143.7z M63.5,57.2l-0.7-1.8l-1.7-1.7l-0.7,3.7l1.9,5.3L63.5,57.2z M55.4,52.6
		l-1.9-5.3l-1.2,5.5l2,5.4L55.4,52.6z M48.8,41.3l-1.1-1l0.8,2.2L48.8,41.3z M33.5,187.4l-0.1,0.5l-0.1,0.4v0.1l-0.9,4.5l3,8.3l5,5
		L33.5,187.4z M29.3,195l-2.1-5.7l0.2-1.1l-1.9-5.4l-1.2,5.6l1,2.7L29.3,195z M28.6,182.6l1.1-5.6l-2-5.3l-1.1,5.5L28.6,182.6z
		 M30.8,171.4l22-108.5l-1.6-4.4L29.2,167L30.8,171.4z M47.4,48.1l-2-5.3l-1.1,5.5l2,5.3L47.4,48.1z M41.3,33.9l-2.6-2.6l0.1,0.1
		l-0.3,1.2l2,5.3L41.3,33.9z M57.8,309.1l1.1,5.5l1.9-5.3l-1.1-5.6L57.8,309.1z M55.9,331.5l6.1-16.6L55.9,331.5z M65.8,304.5
		l1.1,5.6l2-5.4l-1.2-5.5L65.8,304.5z M65.9,321.4l4.1-11L65.9,321.4z M73.6,147.8l-2,5.3l1.1,5.6l2-5.4L73.6,147.8z M67.8,163.5
		l-2,5.3L83.1,254l-1.9-5.8l7.5,37.1l2-5.3L68.5,170.3l0.4-1.2L67.8,163.5z M89.9,290.9l1.1,5.5l0.1-0.1l1.9-5.2l-1.2-5.5
		L89.9,290.9z M78.5,143l10.2-27.7L78.5,143z M88.7,115.3l5-5l7.8-21.3l-2.2-1.9l-0.5,0.5L88.7,115.3z M71.2,63.3l-2.6-2.2l-0.2,0.8
		l2,5.4L71.2,63.3z M44.8,58.3l-1.6-4.4l-22,108.5l1.6,4.5L44.8,58.3z M39.4,43.5l-2-5.3l-1.1,5.6l1.9,5.3L39.4,43.5z M33.6,27.8
		l-1-2.7l-4-3.9l2.1,5.7L30.5,28l2,5.4L33.6,27.8z M19.7,167.1l-1.1,5.6l1.9,5.3l1.2-5.5L19.7,167.1z M17.4,178.3l-0.8,4l2.6,2.7
		v-0.2l0.2-1.2L17.4,178.3z M36.8,53.8l-1.7-4.4l-22,108.5l1.7,4.4L36.8,53.8z M31.3,39l-1.9-5.3l-1.2,5.5l2,5.4L31.3,39z
		 M11.7,162.6l-1.2,5.5l2,5.4l1.1-5.6L11.7,162.6z M98.4,288.9l-0.5-2.5l2-5.4l1.1,5.4L98.4,288.9z M96.8,280.7l-1.2-5.5l0.5-1.3
		L73.9,164.3l1.9-5.3l1.2,5.5l-0.5,1.3l22.2,109.6L96.8,280.7z M79.6,148.6l2-5.3l1.1,5.5l-1.9,5.3L79.6,148.6z M28.7,49.3l-1.6-4.5
		l-22,108.5l1.6,4.5L28.7,49.3z"/>
	<path id="svg_19" class="st2" d="M176.6,155.6h9.6v2.2h-12.3v-20.3h2.7V155.6z M200.6,154.3l5.8-16.8h2.9l-7.5,20.3h-2.4l-7.5-20.3
		h2.9L200.6,154.3z M222,157.8h-2.7v-20.3h2.7V157.8z M240.7,154.3l5.8-16.8h2.9l-7.5,20.3h-2.4l-7.5-20.3h2.9L240.7,154.3z
		 M189.5,192.1h-2.7l-10.2-15.6v15.6h-2.7v-20.3h2.7l10.2,15.7v-15.7h2.7V192.1z M212.8,186.8h-8.5l-1.9,5.3h-2.8l7.7-20.3h2.4
		l7.8,20.3h-2.8L212.8,186.8z M205.1,184.6h6.9l-3.5-9.5L205.1,184.6z M239.5,174H233v18.1h-2.7V174h-6.5v-2.2h15.7V174z
		 M252.4,192.1h-2.6v-20.3h2.6V192.1z M280,182.6c0,2-0.3,3.7-1,5.2c-0.6,1.5-1.6,2.6-2.8,3.4c-1.3,0.8-2.7,1.2-4.3,1.2
		c-1.6,0-3-0.4-4.3-1.2c-1.2-0.8-2.2-1.9-2.9-3.4c-0.6-1.4-1-3.1-1-5v-1.5c0-1.9,0.3-3.7,1-5.2s1.7-2.6,2.9-3.4
		c1.2-0.8,2.7-1.2,4.3-1.2c1.6,0,3,0.4,4.3,1.2c1.2,0.8,2.2,1.9,2.8,3.4c0.7,1.5,1,3.2,1,5.2V182.6z M277.4,181.3
		c0-2.4-0.5-4.3-1.5-5.5c-1-1.3-2.3-2-4-2s-3.1,0.7-4,2c-1,1.2-1.5,3-1.5,5.3v1.5c0,2.3,0.4,4.2,1.4,5.5s2.4,2,4.1,2s3-0.6,4-1.9
		c0.9-1.2,1.4-3.1,1.5-5.4V181.3z M306.7,192.1H304l-10.2-15.6v15.6h-2.7v-20.3h2.7l10.2,15.7v-15.7h2.7V192.1z M330,186.8h-8.5
		l-1.9,5.3h-2.8l7.8-20.3h2.3l7.8,20.3h-2.8L330,186.8z M322.3,184.6h6.9l-3.5-9.5L322.3,184.6z M347.2,189.9h9.6v2.2h-12.3v-20.3
		h2.7L347.2,189.9z M176.6,218.4v8h-2.7v-20.3h7.5c2.2,0,3.9,0.5,5.2,1.7c1.3,1.1,1.9,2.6,1.9,4.5s-0.6,3.5-1.9,4.5
		c-1.2,1.1-3,1.6-5.3,1.6H176.6z M176.6,216.2h4.8c1.4,0,2.5-0.3,3.3-1c0.7-0.7,1.1-1.6,1.1-2.9c0-1.2-0.4-2.2-1.1-2.9
		c-0.8-0.7-1.8-1.1-3.2-1.1h-4.9L176.6,216.2z M214.6,226.4h-2.7V217h-10.3v9.4H199v-20.3h2.6v8.7h10.3v-8.7h2.7V226.4z
		 M229.3,226.4h-2.7v-20.3h2.7V226.4z M243.9,224.2h9.6v2.2h-12.3v-20.3h2.7L243.9,224.2z M279.3,226.4h-2.7V217h-10.3v9.4h-2.6
		v-20.3h2.6v8.7h10.3v-8.7h2.7V226.4z M302.6,221.1h-8.5l-2,5.3h-2.7l7.7-20.3h2.4l7.7,20.3h-2.7L302.6,221.1z M294.9,218.9h6.9
		l-3.5-9.5L294.9,218.9z M324.5,218.2h-4.8v8.2H317v-20.3h6.8c2.2,0,4,0.5,5.2,1.5c1.3,1.1,1.9,2.6,1.9,4.6c0,1.2-0.4,2.4-1,3.3
		c-0.7,0.9-1.7,1.6-2.9,2.1l4.8,8.6v0.2h-2.9L324.5,218.2z M319.7,216h4.1c1.4,0,2.4-0.4,3.2-1.1c0.8-0.6,1.2-1.6,1.2-2.7
		c0-1.3-0.4-2.2-1.1-2.9c-0.8-0.7-1.9-1-3.3-1h-4.1L319.7,216z M345.2,206.1l6.6,16.5l6.6-16.5h3.5v20.3h-2.7v-7.9l0.3-8.6
		l-6.7,16.5h-2l-6.7-16.4l0.3,8.5v7.9h-2.7v-20.3H345.2z M389.3,216.9c0,2-0.3,3.7-1,5.2s-1.6,2.6-2.8,3.4c-1.3,0.8-2.7,1.2-4.3,1.2
		c-1.6,0-3-0.4-4.3-1.2c-1.2-0.8-2.2-1.9-2.9-3.4c-0.6-1.4-1-3.1-1-5v-1.5c0-2,0.3-3.7,1-5.2s1.6-2.6,2.9-3.4
		c1.2-0.8,2.6-1.2,4.2-1.2c1.7,0,3.1,0.4,4.3,1.2c1.3,0.7,2.2,1.9,2.9,3.4c0.7,1.5,1,3.2,1,5.2L389.3,216.9z M386.7,215.6
		c0-2.4-0.5-4.3-1.5-5.6s-2.3-1.9-4.1-1.9c-1.7,0-3,0.6-4,1.9c-0.9,1.3-1.4,3.1-1.5,5.4v1.5c0,2.3,0.5,4.1,1.5,5.5
		c1,1.3,2.3,2,4.1,2c1.7,0,3-0.7,4-1.9c0.9-1.3,1.4-3.1,1.5-5.4V215.6z M416,226.4h-2.7l-10.2-15.7v15.7h-2.7v-20.3h2.7l10.2,15.7
		v-15.7h2.7V226.4z M430.7,226.4H428v-20.3h2.7V226.4z M457.6,219.9c-0.3,2.2-1,3.8-2.4,5c-1.3,1.2-3.1,1.8-5.3,1.8
		c-2.4,0-4.3-0.9-5.8-2.6c-1.4-1.7-2.1-4-2.1-6.9v-2c0-1.9,0.3-3.5,1-5c0.6-1.4,1.6-2.5,2.8-3.3c1.3-0.7,2.7-1.1,4.3-1.1
		c2.2,0,3.9,0.6,5.2,1.8c1.3,1.2,2.1,2.9,2.3,5h-2.7c-0.2-1.6-0.7-2.8-1.5-3.5c-0.8-0.8-1.9-1.1-3.3-1.1c-1.7,0-3,0.6-4,1.9
		c-1,1.2-1.4,3-1.4,5.4v1.9c0,2.3,0.4,4,1.3,5.3c1,1.3,2.2,2,3.9,2c1.5,0,2.6-0.4,3.4-1.1c0.8-0.6,1.3-1.8,1.6-3.5L457.6,219.9z"/>
</g>
</svg>
