<?xml version="1.0" encoding="utf-8"?>
<!-- Generator: Adobe Illustrator 24.1.2, SVG Export Plug-In . SVG Version: 6.00 Build 0)  -->
<svg version="1.1" xmlns="http://www.w3.org/2000/svg" xmlns:xlink="http://www.w3.org/1999/xlink" x="0px" y="0px"
	 viewBox="0 0 214.1 118.1" style="enable-background:new 0 0 214.1 118.1; fill: #ffffff;" xml:space="preserve">
<g id="Bounding">
</g>
<g id="Ebene_1">
	<g>
		<path d="M34.2,51c-3.1-3.4-7.8-5.3-13.2-5.3c-12.8,0-21,9.7-21,24.6c0,15.3,8.2,25.2,20.9,25.2c5.4,0,10.1-1.8,13.2-5.2
			c-0.1,3.8-0.2,9-0.5,10.6c-1,5.8-5.3,8.8-12.8,8.8c-5.7,0-9.8-1.3-13.6-4.3l-0.9-0.7l-4.7,6.2l0.6,0.7c3.8,4.1,9.6,5.9,18.8,5.9
			c7,0,13.2-2.1,16.6-5.7c4.9-5,4.9-11.6,4.9-23.5V46.8h-8.4V51z M21.4,87.5c-1.4,0-5.8,0-9-3.8c-2.4-2.9-3.8-7.7-3.8-13.5
			c0-6.8,2-10.7,3.7-12.7c2.2-2.6,5.6-4,9.4-4c10.9,0,12.3,9.4,12.3,17.5C34,76,33.8,87.5,21.4,87.5z"/>
		<polygon points="69,80.3 57.4,47.2 47.1,47.2 64.5,94 64.6,94.5 72.8,94.5 92.4,47.2 82.2,47.2 		"/>
		<path d="M96,0v118.1h118.1V0H96z M116.5,94.5h-10.3V23.6h10.3V94.5z"/>
	</g>
</g>
</svg>
