<?xml version="1.0" encoding="utf-8"?>
<!-- Generator: Adobe Illustrator 24.1.2, SVG Export Plug-In . SVG Version: 6.00 Build 0)  -->
<svg version="1.1" id="Layer_1" xmlns="http://www.w3.org/2000/svg" xmlns:xlink="http://www.w3.org/1999/xlink" x="0px" y="0px"
	 viewBox="0 0 88.6 159.8" style="enable-background:new 0 0 88.6 159.8;" xml:space="preserve">
<style type="text/css">
	.st0{fill:#ffffff;}
</style>
<g>
	<path class="st0" d="M67.7,113.7c-5.5-1.1-9.2-5.5-12.1-10.6c-3.2-5.5-6.1-11.1-9.2-16.6c-0.8-1.4-1.7-2.8-2.8-4.6
		c-2.1,2.5-3.8,4.7-5.8,7.1c11.9,20.9,21.3,42.9,34.6,63c-5.1-0.5-8.7-3.6-11.1-7.9c-9.6-17.3-19-34.7-28.7-52.3
		c3.2-4,6.5-8,9.9-12.2c-6.7-12.5-13.5-25.1-20.4-37.8c5.8-6.9,11.5-13.6,16.9-20.5c1.9-2.5,3.2-5.5,5.2-8.9c0.2,0,1.4,0.1,3.9,0.2
		C42.3,22.7,34,29.9,27.7,39.4c6.1,11.5,12.2,23.3,18.8,35.8c3.4-5.2,8.9-8,8.8-15.2c1.5,0.1,3,0.2,5.9,0.5
		c-4.9,6.2-9,11.3-13.5,17.1C54.2,89.5,61,101.7,67.7,113.7z"/>
	<path class="st0" d="M19.4,88.4c-4.3-0.8-5.3-3.9-5.3-7.9c0-19.1,0-38.2,0-57.3c0-3.5,0-6.9,0-10.6c1.6,0,3.2,0,5.3,0
		C19.4,37.9,19.4,63,19.4,88.4z"/>
	<path class="st0" d="M29.8,139.3c-4.2-0.7-5.2-3.7-5.2-7.8c0.1-21.3,0-42.6,0-63.9c0-2.3,0-4.6,0-7.2c1.3,0,2.9,0,5.1,0
		C29.8,86.8,29.8,113,29.8,139.3z"/>
</g>
</svg>
