<?xml version="1.0" encoding="utf-8"?>
<svg version="1.1" id="Слой_1" xmlns="http://www.w3.org/2000/svg" xmlns:xlink="http://www.w3.org/1999/xlink" x="0px" y="0px"
         viewBox="0 0 141.7 250.4" style="enable-background:new 0 0 141.7 250.4;" xml:space="preserve">
<path fill="#000" d="M141.7,71.7c0.6,16.9-6.4,32-14.7,46.6c-9.1,16-19.3,31.6-27.8,47.9c-12.6,24.1-19.8,50-22.1,77.2c-0.3,3.6-1.2,7-6,7
        c-4.8,0-5.7-3.1-6.1-6.9c-3.5-38.7-17.4-73.5-38.3-106C19.9,127,13.4,116,7.9,104.7C-11.3,65.5,5.8,20,45,5
        C92.2-13.2,141.7,20.7,141.7,71.7z M70.9,101.4c17.3,0.1,30.5-12.5,30.7-29.2c0.2-16.6-12.8-31.3-27.8-31.3
        c-20-0.1-32.9,11.7-33,29.9C40.7,88.7,53.1,101.4,70.9,101.4z"/>
</svg>
