<?xml version="1.0" encoding="utf-8"?>
<!-- Generator: Adobe Illustrator 28.0.0, SVG Export Plug-In . SVG Version: 6.00 Build 0)  -->
<svg version="1.1" id="Layer_1" xmlns="http://www.w3.org/2000/svg" xmlns:xlink="http://www.w3.org/1999/xlink" x="0px" y="0px"
	 viewBox="0 0 455.67 96" style="enable-background:new 0 0 455.67 96;" xml:space="preserve">
<style type="text/css">
	.st0{fill:#FFFFFF;}
</style>
<g>
	<g>
		<path class="st0" d="M406.95,96c-2.94-0.55-5.96-0.81-8.8-1.7c-18.38-5.74-29.3-18.17-32.72-37.11c-0.44-2.42-0.54-4.93-0.55-7.4
			c-0.05-16.12-0.02-32.24-0.02-48.36c0-0.48,0.06-0.96,0.09-1.43c29.18,0,59.42,0,90.72,0c0,17.92,0,35.84,0,53.76
			c-0.24,1.62-0.39,3.25-0.74,4.84c-4.01,18.53-15.06,30.58-33.28,35.92c-2.58,0.76-5.32,1-7.98,1.48C411.43,96,409.19,96,406.95,96
			z M366.62,1.84c0,0.54,0,1.01,0,1.49c0,15.84-0.04,31.68,0.04,47.51c0.01,2.7,0.27,5.44,0.8,8.09
			c5.21,26.23,31.98,41.58,57.26,32.9c17.12-5.88,29.26-22.86,29.26-40.94c0-15.84,0-31.67,0-47.51c0-0.5,0-1,0-1.54
			C424.76,1.84,395.75,1.84,366.62,1.84z"/>
		<path class="st0" d="M410.36,4.13c13.5,0,26.84,0,40.35,0c0,0.46,0,0.88,0,1.31c0,14.96,0.16,29.92-0.04,44.88
			c-0.2,15.02-6.68,26.8-19.15,35.24c-0.72,0.49-1.24,0.54-2,0.02c-12.48-8.49-19.02-20.23-19.14-35.34
			c-0.12-14.84-0.03-29.68-0.03-44.52C410.36,5.2,410.36,4.7,410.36,4.13z M428.99,7.2c-0.12,0.94-0.19,1.77-0.34,2.58
			c-0.05,0.3-0.21,0.67-0.45,0.85c-2.2,1.66-4.43,3.27-6.64,4.92c-0.58,0.44-1.3,0.88-0.6,1.81c0.1,0.13-0.14,0.48-0.17,0.74
			c-0.03,0.23-0.1,0.62,0.01,0.68c0.23,0.14,0.6,0.24,0.84,0.15c0.26-0.1,0.4-0.53,0.67-0.64c0.37-0.15,0.82-0.2,1.22-0.18
			c0.14,0.01,0.26,0.34,0.39,0.52c-0.31,0.2-0.61,0.39-0.92,0.59c-0.18,0.11-0.35,0.24-0.56,0.38c1.6,0.77,2.22,0.58,3.17-0.74
			c0.24-0.34,0.76-0.63,1.17-0.66c1.15-0.07,2.31,0,3.46,0.02c1.01,0.02,1.89-0.17,2.46-1.14c0.17-0.29,0.59-0.44,0.9-0.66
			c0.05,0.45,0.27,0.99,0.11,1.35c-0.57,1.28-1.74,1.67-2.53,1.69c-1.45,1.65-2.6,3.05-3.84,4.37c-0.71,0.75-1.66,1.29-2.31,2.09
			c-1,1.22-2.34,2.49-2.6,3.91c-0.39,2.11-1.55,2.78-3.3,3.16c-0.39,0.08-0.75,0.3-1.14,0.37c-1.42,0.26-2.27,1.19-2.79,2.1
			c0.67,1.99,1.3,3.74,1.86,5.52c0.22,0.7,0.33,1.35,1.27,1.49c0.32,0.05,0.75,0.55,0.82,0.9c0.3,1.54,1.48,1.87,2.92,2.38
			c0.06-1.05,0.18-1.91,0.15-2.76c-0.03-1.14-0.19-2.25-1.54-1.93c-0.52-0.58-0.89-0.98-1.24-1.39c-0.38-0.44-0.88-0.84-1.11-1.36
			c-0.63-1.41,0.23-2.53,1.74-2.43c1.2,0.08,2.39,0.12,3.59,0.17c2.62,0.12,2.62,0.12,4.43-1.4c0.68,0.64,0.74,0.87,0.29,1.47
			c-0.66,0.89-1.55,1.35-2.68,1.32c-0.85-0.02-1.69,0-2.64,0c0.8,1.78,2.09,2.89,3.57,3.79c1.36,0.83,2.8,1.56,4.11,2.46
			c1.84,1.26,3.3,2.8,3.09,5.3c-0.05,0.55,0.06,1.12,0.12,1.67c0.27,2.49,0.86,4.8,3.2,6.25c0.64,0.39,1.17,0.96,1.72,1.49
			c2.47,2.35,2.76,3.92,1.41,7.07c-0.51,1.19-0.84,2.45-1.36,3.63c-0.18,0.41-0.65,0.81-1.08,0.96c-1.09,0.38-1.51,1.24-1.78,2.2
			c-0.05,0.18,0.31,0.69,0.49,0.7c1.1,0.05,2.21,0.02,3.32-0.02c0.65-0.02,0.84-0.41,0.82-1.04c-0.01-0.5,0-1.27,0.28-1.44
			c0.74-0.44,0.63-1.1,0.78-1.73c0.4-1.67,0.63-3.42,1.32-4.96c0.94-2.09,1.35-4-0.08-5.99c-0.13-0.19-0.18-0.44-0.24-0.67
			c-0.58-1.96-0.93-3.88,0.67-5.61c0.42-0.45,0.65-1.1,0.91-1.68c1.02-2.23,0.88-4.41-0.67-6.31c-1.02-1.26-2.24-2.38-3.47-3.46
			c-2.37-2.08-4.08-4.55-4.44-7.71c-0.38-3.29-0.35-2.99,2.7-3.58c0.1-0.02,0.19-0.08,0.31-0.14c-0.52-0.72-1.02-1.39-1.53-2.1
			c1.74-0.56,3.31-1.06,4.84-1.55c-0.99-1.25-1.88-2.38-2.87-3.63c1.85,0,3.39,0,5.1,0c-1.39-1.89-2.61-3.55-3.85-5.24
			c0.91-0.35,1.81-0.69,2.77-1.06c-1.33-2.04-3.29-2.79-5.36-3.45c0.87-0.64,1.64-1.21,2.54-1.87c-2.85-0.18-5.45-0.34-8.05-0.5
			c-0.08,2.1-0.21,2.28-1.46,1.88C431.31,9.24,430.83,8.22,428.99,7.2z M432.06,60.98c0.22-2.07,0.31-4.21,1.63-6.02
			c0.13-0.18-0.06-0.59-0.11-0.89c-0.34-1.84-0.62-3.69-1.05-5.51c-0.22-0.93-0.65-1.82-1.08-2.68c-0.29-0.58-0.8-0.63-1.43-0.36
			c-1.96,0.85-3.11,2.72-2.66,5.1c0.35,1.86,1.14,3.64,1.69,5.46c0.29,0.95,0.49,1.93,0.78,3.06c-2.41,0-4.49,0-6.56,0
			c-0.71,0-1.43-0.15-1.61,0.91c-0.05,0.28-0.63,0.59-1.02,0.67c-1.22,0.24-1.6,1.21-1.97,2.17c-0.07,0.17,0.22,0.69,0.36,0.69
			c1.18,0.03,2.39,0.12,3.53-0.11c0.37-0.07,0.56-1.04,0.98-1.9C426.16,61.38,429.05,61.18,432.06,60.98z M446.31,44.91
			c1.49,0.18,2.38-0.51,2.56-1.93c0.16-1.3-0.47-2.3-1.15-3.31c-1.62-2.43-1.61-3.21,0.01-5.65c0.11-0.17,0.23-0.33,0.33-0.5
			c1.94-3.03,0.56-6.55-2.81-7.49c-0.12,1.28-0.25,2.58-0.41,4.22c-1.24-1.39-2.38-1.82-3.89-1.16c1.56,1.15,1.39,2.52,0.67,3.98
			c-0.3,0.61-0.55,1.24-0.76,1.88c-0.74,2.29-0.18,3.94,1.81,5.3c0.79,0.54,1.65,0.97,2.46,1.49
			C446.59,42.7,446.81,43.33,446.31,44.91z M422.98,26c-1.74-1.37-3.41-2.73-5.13-4.02c-0.8-0.6-2.47-0.39-2.76,0.25
			c-0.73,1.63-1.46,3.26-2.22,4.88c-0.29,0.62-0.57,1.14-0.05,1.84c0.2,0.28,0.1,0.94-0.09,1.32c-0.6,1.2-0.49,2.26,0.54,3.33
			c0.41-0.28,0.87-0.54,1.26-0.87c1.59-1.39,1.73-2.06,0.9-3.48c0.13-0.54,0.08-1.08,0.14-1.6c0.07-0.69,0.04-1.48,0.36-2.05
			c0.7-1.24,1.94-1.15,2.6,0.08c0.75,1.39,1.5,2.78,2.3,4.24c0.35-0.76,0.59-1.4,0.91-1.99C422.09,27.31,422.51,26.73,422.98,26z"/>
		<path class="st0" d="M408.01,20.72c0.02,0.15,0.05,0.29,0.05,0.44c-0.01,10.43,0.34,20.88-0.11,31.3
			c-0.62,14.31-7.37,25.36-19.29,33.28c-0.57,0.38-0.95,0.32-1.49-0.02c-5.63-3.59-10.14-8.26-13.59-13.96
			c-0.37-0.6-0.41-1.03,0.15-1.55c4.57-4.31,7.42-9.63,9.16-15.62c0.45-1.56,1.12-3.07,1.76-4.58c1.42-3.33,3.66-5.98,6.75-7.88
			c1.36-0.84,2.7-1.71,4.1-2.48c3.8-2.09,6.43-5.19,8.08-9.17c1.09-2.62,2.17-5.23,3.27-7.84c0.28-0.66,0.62-1.29,0.94-1.93
			C407.86,20.7,407.94,20.71,408.01,20.72z"/>
		<path class="st0" d="M368.3,56.1c-0.57-2.04-0.9-48.72-0.43-51.97c11.28,0,22.58,0,33.99,0c-0.13,0.22-0.2,0.4-0.32,0.52
			c-3.78,3.74-5.96,8.32-7.22,13.43c-0.47,1.93-1.16,3.82-1.86,5.68c-1.18,3.16-3.22,5.69-6.04,7.55c-1.57,1.03-3.15,2.05-4.79,2.96
			c-4.11,2.28-6.82,5.68-8.4,10.07c-1.15,3.19-2.38,6.34-3.63,9.5C369.31,54.57,368.82,55.22,368.3,56.1z"/>
		<path class="st0" d="M410.47,73.6c0.52,0.13,1.2,0.22,1.81,0.49c1.03,0.45,1.7,1.17,1.44,2.44c-0.16,0.75,0.18,1.03,0.85,0.64
			c1.19-0.69,2.1-0.19,2.86,0.67c1,1.14,1.41,2.49,1.14,4.01c-0.19,1.03-0.69,1.77-1.85,1.89c-0.78,0.08-0.92,0.44-0.33,0.98
			c0.95,0.87,0.82,1.86,0.3,2.84c-0.7,1.3-1.85,2.11-3.29,2.38c-1.08,0.21-2.08,0.06-2.59-1.15c-0.29-0.68-0.71-0.75-1.03-0.02
			c-0.47,1.06-1.33,1.35-2.36,1.2c-1.7-0.25-2.98-1.17-3.69-2.73c-0.4-0.87-0.4-1.79,0.44-2.51c0.61-0.52,0.47-0.91-0.3-0.99
			c-1.23-0.12-1.74-0.92-1.9-1.98c-0.23-1.55,0.19-2.95,1.3-4.08c0.75-0.76,1.62-1.18,2.68-0.53c0.57,0.35,0.93,0.25,0.92-0.48
			c-0.04-1.75,0.45-2.44,2.13-2.87C409.43,73.7,409.88,73.68,410.47,73.6z M405.93,82.17c0,2.38,1.93,4.35,4.3,4.38
			c2.39,0.03,4.43-2.01,4.41-4.41c-0.02-2.33-2.08-4.37-4.38-4.34C407.91,77.81,405.94,79.81,405.93,82.17z"/>
		<path class="st0" d="M419.34,83.41c1.42,1.97,1.23,2.53-0.95,3.01C417.76,85.13,418.12,84.15,419.34,83.41z"/>
		<path class="st0" d="M402.53,84.96c-0.05,0.31-0.15,0.85-0.29,1.66c-0.68-0.39-1.68-0.65-1.82-1.13
			c-0.17-0.61,0.39-1.42,0.67-2.26C401.63,83.88,402.01,84.33,402.53,84.96z"/>
		<path class="st0" d="M406.33,73.71c-0.37,1.62-1.15,2.3-2.79,2.07c0.2-0.7,0.2-1.66,0.65-1.99
			C404.65,73.44,405.56,73.71,406.33,73.71z"/>
		<path class="st0" d="M411.89,91.12c-1.25,2.01-1.93,2.02-3.2,0.04c0.53-0.29,1.06-0.58,1.6-0.88
			C410.8,90.55,411.32,90.82,411.89,91.12z"/>
		<path class="st0" d="M417.03,75.89c-0.92-0.13-1.46-0.21-2-0.29c-0.25-0.5-0.5-1-0.89-1.76c0.83-0.04,1.72-0.34,2.25-0.04
			C416.81,74.04,416.8,75.03,417.03,75.89z"/>
		<path class="st0" d="M429.48,13.89c-0.61-0.05-1.21-0.11-1.82-0.16c0.05-0.28,0.1-0.57,0.14-0.85c0.59,0.1,1.19,0.21,1.78,0.31
			C429.55,13.42,429.51,13.65,429.48,13.89z"/>
	</g>
	<path class="st0" d="M0,76.03c0.11-0.34,0.22-0.67,0.32-1.01c1.06-3.56,4.98-4.67,7.81-2.21c0.09,0.07,0.19,0.13,0.42,0.28
		c0-2.09,0-4.09,0-6.17c0.74,0,1.36,0,2.08,0c0,5.57,0,11.13,0,16.76c-0.54,0-1.04,0-1.63,0c-0.13-0.42-0.26-0.87-0.31-1.05
		c-1.2,0.45-2.35,1.16-3.56,1.29c-2.42,0.27-4.13-1.06-4.82-3.4c-0.09-0.3-0.2-0.59-0.31-0.89C0,78.43,0,77.23,0,76.03z M2.17,77.77
		c0.14,0.77,0.2,1.53,0.41,2.25c0.46,1.54,1.49,2.24,3.03,2.16c1.58-0.09,2.58-0.84,2.78-2.44c0.16-1.32,0.14-2.71-0.05-4.03
		c-0.22-1.53-1.18-2.25-2.61-2.32c-1.64-0.09-2.59,0.51-3.09,2.05C2.39,76.19,2.32,76.99,2.17,77.77z"/>
	<path class="st0" d="M140.64,7.15c0.27,0.14,0.54,0.29,0.92,0.49c-0.17,0.49-0.34,1-0.51,1.5c-3.18-0.35-3.93,0.27-3.55,3.03
		c0.88,0,1.78,0,2.76,0c0,0.58,0,1.03,0,1.66c-0.88,0.04-1.8,0.08-2.86,0.13c0,3.41,0,6.75,0,10.17c-0.79,0-1.44,0-2.25,0
		c0-3.36,0-6.73,0-10.17c-0.72-0.04-1.31-0.08-1.87-0.11c-0.45-0.95,0.18-1.18,0.83-1.32c0.79-0.17,1.08-0.54,1.06-1.39
		c-0.05-1.88,0.74-3.3,2.6-3.98C138.72,7.15,139.68,7.15,140.64,7.15z"/>
	<path class="st0" d="M127.95,41.22c-1.05,3.79-2.02,7.28-2.99,10.77c-0.61,2.19-0.62,2.19-3,1.87c-1.36-5.17-2.73-10.38-4.12-15.68
		c0.77,0,1.46,0,2.31,0c1.02,4.11,2.06,8.27,3.15,12.64c0.25-1,0.44-1.85,0.68-2.7c0.83-3,1.71-5.99,2.5-9
		c0.21-0.79,0.53-1.11,1.38-1.06c0.77,0.04,1.28,0.07,1.54,1.02c1.03,3.83,2.18,7.64,3.32,11.6c1.06-4.24,2.08-8.36,3.12-12.53
		c0.76,0,1.46,0,2.32,0c-0.55,2.09-1.08,4.12-1.62,6.15c-0.76,2.9-1.57,5.78-2.27,8.69c-0.21,0.89-0.65,1.02-1.42,0.99
		c-0.73-0.03-1.32,0.06-1.58-0.95C130.27,49.18,129.13,45.36,127.95,41.22z"/>
	<path class="st0" d="M254.23,83.73c-1.2-4.21-2.38-8.33-3.65-12.79c-0.26,1-0.43,1.71-0.63,2.42c-0.78,2.81-1.56,5.61-2.35,8.42
		c-0.58,2.07-0.58,2.07-2.98,1.89c-1.36-5.18-2.74-10.41-4.14-15.73c0.78,0,1.47,0,2.32,0c1.02,4.12,2.06,8.29,3.11,12.55
		c1.17-4.21,2.34-8.38,3.48-12.49c0.18-0.06,0.25-0.11,0.33-0.11c1.99-0.1,1.99-0.09,2.54,1.83c1.02,3.52,2.04,7.04,3.1,10.73
		c1.06-4.24,2.09-8.37,3.13-12.53c0.79,0,1.49,0,2.31,0c-0.9,3.43-1.77,6.78-2.65,10.13c-0.38,1.47-0.83,2.92-1.14,4.4
		c-0.2,0.99-0.62,1.48-1.67,1.3C255.04,83.69,254.71,83.73,254.23,83.73z"/>
	<path class="st0" d="M16.98,8.33c0,5.35,0,10.54,0,15.8c-0.67,0-1.29,0-2.03,0c0-4.27,0-8.56,0-12.86
		c-0.08-0.02-0.15-0.04-0.23-0.05c-0.18,0.41-0.37,0.82-0.53,1.24c-1.36,3.63-2.73,7.25-4.03,10.9c-0.25,0.71-0.63,0.87-1.31,0.87
		c-0.68,0-1.07-0.16-1.32-0.87c-1.44-4.1-2.94-8.18-4.57-12.24c0,4.31,0,8.62,0,13.01c-0.67,0-1.25,0-1.92,0c0-5.2,0-10.42,0-15.79
		c0.91,0,1.82-0.07,2.71,0.04c0.29,0.04,0.64,0.51,0.77,0.86c1.31,3.51,2.58,7.04,3.86,10.57c0.13,0.37,0.28,0.73,0.51,1.32
		c0.22-0.46,0.38-0.74,0.49-1.04c1.32-3.51,2.66-7.02,3.91-10.56c0.34-0.95,0.8-1.35,1.79-1.22C15.66,8.4,16.26,8.33,16.98,8.33z"/>
	<path class="st0" d="M136.37,80.28c0-4.1,0-8.21,0-12.35c0.69,0,1.3,0,1.98,0c0,5.25,0,10.43,0,15.61
		c-2.07,0.57-2.59,0.38-3.64-1.28c-2.34-3.71-4.69-7.42-7.19-11.38c0,4.41,0,8.53,0,12.76c-0.67,0-1.28,0-1.95,0
		c0-5.2,0-10.38,0-15.57c1.91-0.58,2.52-0.37,3.52,1.21c2.14,3.38,4.27,6.75,6.41,10.13c0.21,0.33,0.43,0.64,0.65,0.96
		C136.22,80.33,136.3,80.3,136.37,80.28z"/>
	<path class="st0" d="M125.06,24.17c-0.62,0-1.21,0-1.95,0c-0.03-0.44-0.07-0.85-0.07-1.27c-0.01-2.12,0.03-4.24-0.02-6.36
		c-0.04-1.73-0.71-2.56-1.97-2.68c-1.76-0.17-2.95,0.58-3.2,2.3c-0.22,1.49-0.17,3.02-0.21,4.54c-0.03,1.11-0.01,2.23-0.01,3.43
		c-0.74,0-1.39,0-2.17,0c0-1.66,0-3.29,0-4.91c0-1,0.03-2-0.04-3c-0.1-1.43-0.79-2.23-1.94-2.35c-1.52-0.16-2.64,0.42-3.04,1.74
		c-0.23,0.75-0.31,1.57-0.32,2.36c-0.04,2.03-0.01,4.06-0.01,6.17c-0.77,0-1.43,0-2.18,0c0-3.93,0-7.86,0-11.85c0.56,0,1.1,0,1.65,0
		c0.13,0.47,0.25,0.93,0.38,1.4c2.75-2.36,5.4-2.3,7.34,0.17c1.36-1.6,3.07-2.17,5.13-1.73c1.51,0.32,2.55,1.22,2.61,2.72
		C125.15,17.91,125.06,20.98,125.06,24.17z"/>
	<path class="st0" d="M107.78,43.4c0-2.2,0-4.18,0-6.25c0.69,0,1.31,0,2.02,0c0,5.55,0,11.11,0,16.7c-1.15,0.4-1.89,0.09-1.96-0.92
		c-1.23,0.43-2.43,1.11-3.68,1.23c-2.32,0.23-4.11-1.04-4.56-3.34c-0.33-1.72-0.4-3.59-0.1-5.3C100.2,41.63,104.8,40.49,107.78,43.4
		z M107.85,48.13c-0.1-0.74-0.15-1.54-0.34-2.31c-0.35-1.44-1.2-2.12-2.61-2.2c-1.57-0.08-2.73,0.49-3.01,1.95
		c-0.28,1.52-0.32,3.16-0.09,4.69c0.22,1.5,1.42,2.2,2.88,2.15c1.61-0.05,2.49-0.75,2.87-2.34
		C107.72,49.46,107.75,48.82,107.85,48.13z"/>
	<path class="st0" d="M90.03,73.04c0-2.02,0-3.9,0-5.77c0-0.11,0.07-0.22,0.12-0.39c0.63,0,1.25,0,1.99,0c0,5.59,0,11.15,0,16.78
		c-0.54,0-1.05,0-1.6,0c-0.14-0.43-0.28-0.87-0.33-1.03c-1.23,0.45-2.39,1.15-3.61,1.27c-2.43,0.26-4.26-1.05-4.7-3.47
		c-0.31-1.68-0.38-3.53-0.02-5.19c0.82-3.81,4.83-4.97,7.81-2.43C89.76,72.89,89.86,72.94,90.03,73.04z M90.13,77.81
		c-0.08-0.7-0.1-1.39-0.25-2.04c-0.39-1.67-1.23-2.36-2.81-2.39c-1.58-0.03-2.67,0.62-2.94,2.22c-0.24,1.45-0.23,3.02,0.02,4.47
		c0.26,1.49,1.45,2.17,2.92,2.11c1.58-0.06,2.53-0.82,2.87-2.38C90.07,79.15,90.07,78.46,90.13,77.81z"/>
	<path class="st0" d="M173.17,73.1c0-2.17,0-4.15,0-6.21c0.69,0,1.31,0,2.02,0c0,5.59,0,11.12,0,16.75c-0.51,0-1.01,0-1.6,0
		c-0.12-0.38-0.27-0.82-0.45-1.38c-1.06,1.12-2.26,1.76-3.81,1.72c-2.49-0.07-4.27-1.57-4.6-4.31c-0.18-1.44-0.14-2.98,0.16-4.4
		c0.81-3.77,4.88-5.01,7.81-2.47C172.8,72.88,172.9,72.93,173.17,73.1z M173.24,77.74c-0.11-0.69-0.17-1.49-0.38-2.25
		c-0.4-1.46-1.21-2.06-2.67-2.11c-1.52-0.05-2.43,0.52-2.94,1.94c-0.56,1.55-0.58,3.13-0.11,4.7c0.46,1.51,1.52,2.24,3.04,2.16
		c1.59-0.09,2.5-0.85,2.82-2.43C173.13,79.13,173.15,78.48,173.24,77.74z"/>
	<path class="st0" d="M6.47,45.01c2.09,2.97,4.12,5.86,6.23,8.86c-1.6,0.27-2.75,0.19-3.65-1.32c-1.22-2.05-2.74-3.92-4.15-5.89
		c-1.19,0.59-1.82,1.34-1.71,2.73c0.12,1.46,0.03,2.94,0.03,4.51c-0.75,0-1.41,0-2.17,0c0-5.18,0-10.39,0-15.7c0.63,0,1.29,0,2.14,0
		c0,2.37,0,4.76,0,7.16c0.1,0.03,0.2,0.06,0.29,0.09c1.15-1.3,2.3-2.59,3.45-3.89c0.66-0.75,1.32-1.5,1.98-2.25
		c1.2-1.38,1.36-1.43,3.52-1.03C10.43,40.51,8.48,42.72,6.47,45.01z"/>
	<path class="st0" d="M218.18,53.92c-0.79,0-1.41,0-2.1,0c0-5.59,0-11.13,0-16.76c0.67,0,1.32,0,2.04,0c0,2.08,0,4.1,0,6.39
		c1.47-1.55,3.1-2.02,4.97-1.67c1.95,0.36,3.06,1.4,3.15,3.36c0.12,2.86,0.03,5.73,0.03,8.67c-0.69,0-1.31,0-2.13,0
		c0-1.45,0-2.91,0-4.37c0-1.08,0.04-2.16-0.01-3.24c-0.08-1.62-0.8-2.51-2.06-2.66c-1.85-0.23-3.18,0.46-3.55,2.07
		c-0.27,1.15-0.28,2.37-0.32,3.56C218.14,50.77,218.18,52.28,218.18,53.92z"/>
	<path class="st0" d="M188.42,83.64c0-5.37,0-10.65,0-15.92c0-0.23,0.02-0.47,0.03-0.8c0.69,0,1.34,0,2.06,0c0,2.06,0,4.09,0,6.37
		c1.44-1.48,3.02-1.99,4.85-1.68c2.04,0.34,3.16,1.33,3.26,3.37c0.14,2.86,0.04,5.73,0.04,8.68c-0.68,0-1.3,0-2.12,0
		c0-1.24,0-2.5,0-3.76c0-1.24,0.03-2.48-0.01-3.72c-0.05-1.75-0.8-2.68-2.18-2.8c-1.93-0.17-3.24,0.58-3.5,2.29
		c-0.25,1.65-0.21,3.34-0.27,5.01c-0.03,0.95-0.01,1.91-0.01,2.96C189.85,83.64,189.21,83.64,188.42,83.64z"/>
	<path class="st0" d="M272,81.46c0.22,1.83,0.21,1.94-1.45,2.24c-1.17,0.21-2.39,0.3-3.56,0.2c-2.33-0.22-4.08-1.7-4.45-4.02
		c-0.25-1.53-0.21-3.21,0.15-4.71c0.63-2.6,3.04-3.97,5.71-3.61c2.53,0.34,4.08,2.11,4.24,4.85c0.03,0.55,0,1.1,0,1.81
		c-2.72,0-5.37,0-8.01,0C264.47,81.81,266.84,82.83,272,81.46z M270.41,76.51c-0.21-2.35-1.18-3.37-2.96-3.26
		c-1.71,0.1-2.8,1.4-2.7,3.26C266.6,76.51,268.46,76.51,270.41,76.51z"/>
	<path class="st0" d="M212.19,78.21c-2.86,0-5.48,0-8.08,0c-0.45,3.49,2.06,4.6,7.17,3.29c0.42,1.62,0.33,1.93-1.26,2.18
		c-1.36,0.21-2.81,0.35-4.14,0.1c-3.3-0.64-4.78-3.64-4.05-7.75c0.59-3.33,3.33-5.12,6.62-4.34c1.87,0.45,2.97,1.67,3.4,3.48
		C212.07,76.08,212.07,77.05,212.19,78.21z M209.75,76.52c0-2.1-0.97-3.25-2.65-3.27c-1.81-0.02-3,1.25-3.01,3.27
		C205.96,76.52,207.82,76.52,209.75,76.52z"/>
	<path class="st0" d="M75.64,18.71c-2.77,0-5.38,0-7.98,0c-0.22,3.6,2.01,4.53,7.38,3.22c0.17,1.88,0.18,1.95-1.64,2.27
		c-1.13,0.2-2.31,0.28-3.45,0.16c-2.32-0.23-3.94-1.76-4.47-4.05c-0.41-1.75-0.34-3.5,0.33-5.18c0.86-2.15,2.88-3.33,5.27-3.13
		c2.37,0.2,3.96,1.54,4.41,3.86C75.66,16.74,75.6,17.66,75.64,18.71z M67.7,16.94c1.89,0,3.78,0,5.68,0
		c-0.08-2.14-1.03-3.22-2.76-3.22C68.86,13.73,67.71,14.99,67.7,16.94z"/>
	<path class="st0" d="M322.86,78.18c-0.17,3.57,1.83,4.43,7.32,3.33c0.32,1.63,0.24,1.9-1.27,2.16c-1.21,0.21-2.47,0.34-3.68,0.21
		c-2.21-0.24-3.76-1.47-4.42-3.66c-0.5-1.65-0.48-3.31,0.03-4.96c0.83-2.68,3.06-4.09,5.79-3.72c2.6,0.35,4.18,2.24,4.27,5.09
		c0.01,0.47,0,0.94,0,1.54C328.18,78.18,325.56,78.18,322.86,78.18z M328.56,76.52c0.01-2.12-0.93-3.24-2.64-3.27
		c-1.79-0.03-2.98,1.24-3,3.27C324.78,76.52,326.64,76.52,328.56,76.52z"/>
	<path class="st0" d="M23.51,81.63c0.23,1.62,0.19,1.76-1.37,2.07c-2.45,0.5-4.88,0.62-6.83-1.37c-2.24-2.28-2.08-7.44,0.31-9.53
		c1.65-1.45,3.6-1.65,5.61-0.89c2.02,0.76,2.72,2.45,2.93,4.43c0.06,0.55,0.01,1.11,0.01,1.84c-2.7,0-5.35,0-7.98,0
		c-0.25,2.32,1.04,3.95,3.23,3.97C20.76,82.16,22.09,81.82,23.51,81.63z M21.86,76.52c-0.02-2.19-1.01-3.27-2.77-3.28
		c-1.75-0.01-3.11,1.69-2.86,3.28C18.08,76.52,19.93,76.52,21.86,76.52z"/>
	<path class="st0" d="M152.86,77.77c-0.01,4.65-3.44,7.32-7.59,5.91c-2.63-0.9-4.03-3.76-3.51-7.22c0.56-3.77,3.38-5.66,7.09-4.75
		C151.41,72.33,152.87,74.54,152.86,77.77z M150.62,77.85c-0.09-0.76-0.11-1.4-0.26-2.01c-0.41-1.65-1.44-2.44-3.07-2.45
		c-1.68-0.01-2.77,0.69-3.05,2.4c-0.22,1.34-0.19,2.77,0.04,4.11c0.27,1.51,1.45,2.26,2.95,2.28c1.5,0.02,2.58-0.73,3.02-2.22
		C150.47,79.24,150.52,78.48,150.62,77.85z"/>
	<path class="st0" d="M105.54,78.23c-2.65,0-5.24,0-7.81,0c-0.24,2.28,1.03,3.89,3.22,3.91c1.37,0.01,2.73-0.34,4.1-0.53
		c0.16,1.75,0.17,1.84-1.67,2.12c-1.24,0.19-2.58,0.3-3.8,0.06c-3.45-0.68-5.04-4.02-4.04-8.18c0.71-2.95,3.28-4.6,6.25-4.01
		C104.64,72.18,106.1,74.67,105.54,78.23z M97.71,76.5c1.95,0,3.81,0,5.66,0c0.08-1.98-0.89-3.19-2.57-3.25
		C98.99,73.18,97.79,74.4,97.71,76.5z"/>
	<path class="st0" d="M169.45,48.43c-0.17,3.68,2.09,4.63,7.29,3.27c0.29,1.82,0.27,1.96-1.56,2.26c-1.24,0.2-2.58,0.32-3.8,0.09
		c-3.63-0.68-5.34-4.6-3.94-8.71c0.86-2.53,3.03-3.89,5.68-3.56c2.36,0.3,3.93,1.84,4.22,4.2c0.09,0.75,0.08,1.51,0.12,2.45
		C174.73,48.43,172.09,48.43,169.45,48.43z M175.17,46.72c-0.07-2.2-1.14-3.33-2.93-3.23c-1.69,0.09-2.81,1.41-2.71,3.23
		C171.39,46.72,173.24,46.72,175.17,46.72z"/>
	<path class="st0" d="M231.01,44.34c-0.23-0.52-0.44-0.99-0.68-1.54c2.13-1.02,4.23-1.4,6.43-0.69c1.32,0.42,2.08,1.44,2.12,2.77
		c0.08,2.98,0.03,5.97,0.03,9.02c-0.51,0-0.97,0-1.48,0c-0.15-0.45-0.29-0.89-0.5-1.55c-1.16,1.34-2.55,1.95-4.24,1.86
		c-1.98-0.1-3.28-1.07-3.52-2.75c-0.32-2.2,0.5-3.69,2.59-4.19c1.61-0.39,3.29-0.48,4.96-0.7C237.17,43.59,235.4,42.86,231.01,44.34
		z M236.62,48.07c-1.27,0.19-2.5,0.27-3.68,0.57c-1.19,0.3-1.78,1.38-1.55,2.45c0.2,0.95,1.05,1.47,2.31,1.4
		C235.95,52.38,237.06,50.8,236.62,48.07z"/>
	<path class="st0" d="M309.54,81.99c-1.35,1.81-3.01,2.15-4.85,1.94c-1.6-0.18-2.67-1.18-2.94-2.71c-0.32-1.75,0.3-3.32,1.86-3.86
		c1.37-0.48,2.87-0.58,4.31-0.82c0.46-0.08,0.94-0.05,1.38-0.07c0.32-2.43-0.69-3.47-2.96-3.12c-0.89,0.14-1.76,0.45-2.72,0.71
		c-0.2-0.45-0.4-0.91-0.66-1.49c2.22-1.07,4.41-1.46,6.71-0.58c1.1,0.42,1.65,1.34,1.83,2.48c0.08,0.55,0.11,1.11,0.11,1.67
		c0.01,2.47,0,4.94,0,7.37C310.14,84.22,309.8,83.31,309.54,81.99z M309.24,77.8c-1.37,0.22-2.69,0.33-3.94,0.68
		c-1.04,0.3-1.5,1.37-1.25,2.42c0.25,1.04,1.05,1.32,2,1.34C308.43,82.3,309.61,80.76,309.24,77.8z"/>
	<path class="st0" d="M56.61,74.05c-0.19-0.45-0.39-0.91-0.63-1.48c2.17-1.04,4.34-1.43,6.61-0.61c1.21,0.44,1.89,1.43,1.93,2.66
		c0.08,2.99,0.03,5.98,0.03,8.95c-1.5,0.72-1.68-0.4-2.01-1.49c-1.23,1.61-2.8,2.06-4.62,1.89c-1.71-0.16-2.92-1.2-3.15-2.77
		c-0.29-1.91,0.39-3.37,2.12-3.94c1.27-0.42,2.64-0.51,3.98-0.7c0.46-0.07,0.94-0.01,1.38-0.01c0.53-2.25-0.53-3.51-2.67-3.21
		C58.63,73.44,57.72,73.76,56.61,74.05z M62.31,77.81c-1.37,0.22-2.68,0.31-3.92,0.65c-1.09,0.3-1.52,1.26-1.33,2.35
		c0.2,1.15,1.04,1.41,2.02,1.43C61.44,82.3,62.6,80.8,62.31,77.81z"/>
	<path class="st0" d="M78.44,83.68c-0.72,0-1.35,0-2.11,0c0-2.4,0-4.74,0-7.09c0-2.17-0.63-3.1-2.19-3.21
		c-2.12-0.15-3.4,0.81-3.56,2.95c-0.15,1.95-0.06,3.91-0.08,5.86c0,0.47,0,0.94,0,1.47c-0.79,0-1.46,0-2.2,0c0-3.96,0-7.89,0-11.88
		c0.55,0,1.06,0,1.66,0c0.12,0.45,0.24,0.93,0.4,1.53c1.58-1.76,3.47-2.15,5.6-1.57c1.41,0.39,2.39,1.34,2.45,2.78
		C78.53,77.54,78.44,80.57,78.44,83.68z"/>
	<path class="st0" d="M101.91,12.26c0.85,0,1.48,0,2.17,0c0,3.95,0,7.86,0,11.86c-0.53,0-1.06,0-1.68,0
		c-0.12-0.39-0.25-0.83-0.42-1.4c-1.27,1.48-2.83,1.86-4.59,1.7c-2.13-0.19-3.44-1.39-3.51-3.52c-0.09-2.83-0.02-5.67-0.02-8.6
		c0.68,0,1.34,0,2.17,0c0,1.72,0,3.46,0,5.2c0,0.88-0.04,1.76,0.02,2.64c0.08,1.42,0.72,2.2,1.88,2.43
		c1.53,0.31,2.99-0.22,3.46-1.47c0.34-0.91,0.48-1.94,0.52-2.92C101.96,16.24,101.91,14.29,101.91,12.26z"/>
	<path class="st0" d="M26.98,12.29c1.2-0.29,1.99-0.07,1.94,1.54c1.56-1.6,3.25-2.13,5.22-1.72c1.78,0.38,2.89,1.34,2.97,3.12
		c0.13,2.94,0.04,5.89,0.04,8.91c-0.66,0-1.29,0-2.12,0c0-0.4,0-0.82,0-1.24c0-2.12,0.02-4.24-0.01-6.36
		c-0.02-1.56-0.67-2.44-1.9-2.67c-1.69-0.32-3.12,0.34-3.6,1.82c-0.25,0.78-0.35,1.64-0.37,2.47c-0.05,1.95-0.02,3.91-0.02,5.96
		c-0.75,0-1.41,0-2.15,0C26.98,20.21,26.98,16.27,26.98,12.29z"/>
	<path class="st0" d="M152.54,24.16c-0.57,0-1.08,0-1.65,0c-0.11-0.44-0.22-0.85-0.37-1.45c-1.32,1.51-2.92,1.89-4.7,1.71
		c-2.01-0.2-3.35-1.35-3.43-3.34c-0.12-2.9-0.03-5.81-0.03-8.8c0.69,0,1.35,0,2.15,0c0,2.09,0,4.16,0,6.22
		c0,0.44-0.01,0.88,0.01,1.32c0.09,1.82,0.78,2.67,2.29,2.82c1.78,0.18,3.16-0.72,3.4-2.45c0.22-1.61,0.2-3.26,0.25-4.89
		c0.03-0.99,0.01-1.98,0.01-3.03c0.74,0,1.36,0,2.08,0C152.54,16.19,152.54,20.12,152.54,24.16z"/>
	<path class="st0" d="M96.21,53.92c-0.76,0-1.38,0-2.15,0c0-2.04,0-4.02,0-6.01c0-0.52,0.02-1.04,0-1.56
		c-0.06-1.61-0.75-2.54-2-2.72c-1.84-0.27-3.19,0.4-3.56,2.02c-0.3,1.31-0.31,2.69-0.38,4.04c-0.06,1.32-0.03,2.64-0.05,3.96
		c0,0.07-0.07,0.14-0.13,0.26c-0.6,0-1.22,0-1.92,0c0-3.96,0-7.89,0-11.89c0.53,0,1.04,0,1.61,0c0.12,0.44,0.25,0.88,0.42,1.49
		c1.4-1.51,3.04-2,4.92-1.68c2.02,0.34,3.17,1.52,3.23,3.57C96.28,48.19,96.21,50.99,96.21,53.92z"/>
	<path class="st0" d="M336.02,83.7c-0.78,0-1.38,0-2.07,0c0-3.95,0-7.88,0-11.86c1.11-0.36,1.92-0.19,1.92,1.19
		c0.98-0.48,1.86-1.11,2.85-1.36c3.28-0.81,5.42,0.93,5.43,4.28c0.01,2.55,0,5.1,0,7.71c-0.74,0-1.36,0-2.17,0
		c0-1.91,0.01-3.81,0-5.71c0-0.84,0.02-1.68-0.08-2.51c-0.13-1.09-0.72-1.85-1.87-2.04c-1.43-0.24-2.84,0.17-3.25,1.22
		c-0.41,1.05-0.65,2.22-0.72,3.35C335.94,79.83,336.02,81.71,336.02,83.7z"/>
	<path class="st0" d="M42.85,42.01c0.73,0,1.32,0,2.12,0c0,1.21-0.01,2.39,0,3.57c0.01,1.48-0.02,2.96,0.08,4.43
		c0.11,1.53,0.67,2.12,1.93,2.35c1.5,0.26,2.87-0.25,3.35-1.47c0.35-0.91,0.5-1.93,0.54-2.91c0.08-1.95,0.02-3.9,0.02-5.93
		c0.71,0,1.33,0,2.06,0c0,3.9,0,7.83,0,11.76c-1.53,0.36-1.53,0.36-2.02-1.27c-1.24,1.38-2.78,1.81-4.54,1.66
		c-2.07-0.18-3.38-1.18-3.5-3.25C42.73,48.01,42.85,45.05,42.85,42.01z"/>
	<path class="st0" d="M190.6,53.93c-0.64,0-1.24,0-1.98,0c-0.03-0.43-0.07-0.85-0.07-1.27c-0.01-2.08,0.03-4.15-0.02-6.23
		c-0.05-1.79-0.78-2.68-2.15-2.81c-1.94-0.18-3.17,0.53-3.49,2.29c-0.25,1.36-0.22,2.77-0.26,4.17c-0.04,1.23-0.01,2.47-0.01,3.8
		c-0.71,0-1.36,0-2.09,0c0-3.93,0-7.86,0-11.85c0.54,0,1.05,0,1.59,0c0.12,0.46,0.24,0.92,0.39,1.49c1.46-1.55,3.19-2.07,5.22-1.63
		c1.64,0.35,2.76,1.3,2.83,2.96C190.69,47.83,190.6,50.82,190.6,53.93z"/>
	<path class="st0" d="M82.1,53.93c-0.58,0-1.05,0-1.6,0c-0.12-0.44-0.25-0.88-0.41-1.44c-1.53,1.71-3.41,2.02-5.49,1.54
		c-1.54-0.36-2.52-1.38-2.57-2.93c-0.1-2.99-0.03-5.98-0.03-9.05c0.68,0,1.33,0,2.11,0c0,2.2,0,4.35,0,6.5c0,0.4-0.01,0.8,0.01,1.2
		c0.09,1.69,0.75,2.49,2.19,2.65c1.65,0.19,2.98-0.54,3.36-2.04c0.24-0.95,0.28-1.97,0.31-2.96c0.05-1.75,0.01-3.51,0.01-5.34
		c0.74,0,1.39,0,2.12,0C82.1,45.99,82.1,49.89,82.1,53.93z"/>
	<path class="st0" d="M14.64,42c0.73,0,1.32,0,2.1,0c0,1.49,0,2.95,0,4.42c0,1.16-0.02,2.32,0.03,3.48
		c0.07,1.51,0.68,2.24,1.96,2.47c1.53,0.27,2.94-0.3,3.39-1.59c0.32-0.92,0.44-1.94,0.48-2.92c0.07-1.91,0.02-3.82,0.02-5.81
		c0.73,0,1.35,0,2.08,0c0,3.92,0,7.84,0,11.85c-0.51,0-1.01,0-1.6,0c-0.11-0.42-0.23-0.86-0.38-1.4c-1.6,1.75-3.52,2.04-5.63,1.49
		c-1.43-0.37-2.37-1.35-2.42-2.79C14.57,48.16,14.64,45.13,14.64,42z"/>
	<path class="st0" d="M223.19,83.68c-0.77,0-1.39,0-2.13,0c0-3.95,0-7.88,0-11.88c0.51,0,1.02,0,1.59,0
		c0.13,0.44,0.26,0.92,0.43,1.51c1.5-1.69,3.31-2.11,5.37-1.61c1.52,0.37,2.58,1.3,2.64,2.87c0.11,2.99,0.03,5.98,0.03,9.07
		c-0.56,0-1.2,0-2.02,0c0-1.76,0.01-3.51,0-5.25c-0.01-0.88-0.05-1.76-0.09-2.63c-0.06-1.21-0.58-2.08-1.83-2.33
		c-1.53-0.31-2.99,0.25-3.47,1.46c-0.32,0.79-0.47,1.7-0.5,2.55C223.14,79.47,223.19,81.5,223.19,83.68z"/>
	<path class="st0" d="M193.7,51.68c0.95,0.26,1.82,0.57,2.72,0.7c0.73,0.11,1.55,0.15,2.24-0.07c0.56-0.18,1.29-0.74,1.37-1.23
		c0.08-0.48-0.43-1.29-0.91-1.58c-1.19-0.71-2.52-1.18-3.78-1.78c-0.9-0.44-1.54-1.1-1.68-2.17c-0.24-1.84,0.65-3.11,2.55-3.58
		c1.97-0.49,3.87-0.23,5.85,0.61c-0.23,0.55-0.45,1.08-0.6,1.44c-1.44-0.17-2.74-0.45-4.02-0.41c-0.56,0.02-1.36,0.57-1.59,1.09
		c-0.35,0.8,0.43,1.27,1.11,1.57c1.13,0.51,2.29,0.93,3.4,1.48c1.49,0.73,2.07,1.78,1.93,3.25c-0.15,1.49-1,2.63-2.59,2.89
		c-1.47,0.23-3.02,0.25-4.5,0.07C193.47,53.76,193.45,53.58,193.7,51.68z"/>
	<path class="st0" d="M34.86,72.35c-0.26,0.62-0.47,1.11-0.6,1.42c-1.49-0.16-2.82-0.41-4.15-0.38c-0.52,0.01-1.36,0.61-1.45,1.06
		c-0.09,0.43,0.5,1.21,0.99,1.49c1.06,0.62,2.27,0.97,3.38,1.52c1.65,0.81,2.18,1.75,2.01,3.42c-0.14,1.44-1.02,2.52-2.69,2.79
		c-1.39,0.23-2.86,0.24-4.26,0.07c-1.82-0.23-1.8-0.35-1.63-2.33c0.87,0.24,1.72,0.56,2.6,0.69c0.77,0.12,1.63,0.2,2.35-0.03
		c0.57-0.18,1.28-0.79,1.39-1.32c0.09-0.44-0.49-1.24-0.98-1.53c-1.16-0.69-2.45-1.14-3.68-1.73c-0.95-0.46-1.6-1.16-1.73-2.27
		c-0.18-1.6,0.46-2.7,2-3.27C30.55,71.16,32.64,71.46,34.86,72.35z"/>
	<path class="st0" d="M53.9,14.24c-1.58-0.15-2.91-0.39-4.24-0.35c-0.49,0.01-1.34,0.63-1.36,1c-0.02,0.51,0.48,1.25,0.96,1.53
		c1.1,0.63,2.34,1,3.49,1.56c1.56,0.76,2.1,1.76,1.95,3.35c-0.13,1.39-1,2.54-2.55,2.79c-1.47,0.23-3.02,0.26-4.5,0.08
		c-1.78-0.21-1.87-0.49-1.51-2.29c0.88,0.24,1.75,0.55,2.65,0.69c0.73,0.11,1.56,0.19,2.24-0.04c0.59-0.2,1.31-0.77,1.43-1.31
		c0.1-0.43-0.47-1.26-0.96-1.54c-1.16-0.68-2.46-1.13-3.68-1.72c-0.98-0.48-1.68-1.19-1.75-2.38c-0.1-1.66,0.49-2.65,2.07-3.22
		c2.14-0.77,4.22-0.45,6.36,0.42C54.25,13.4,54.04,13.9,53.9,14.24z"/>
	<path class="st0" d="M164.67,42.6c-0.25,0.59-0.44,1.06-0.67,1.61c-0.33-0.09-0.62-0.19-0.92-0.25c-0.78-0.16-1.56-0.42-2.34-0.44
		c-0.89-0.01-2-0.05-2.3,1.07c-0.32,1.21,0.77,1.52,1.58,1.9c1.05,0.49,2.14,0.87,3.17,1.39c1.28,0.64,1.83,1.71,1.69,3.15
		c-0.13,1.39-0.87,2.31-2.15,2.75c-1.95,0.67-3.93,0.59-5.88-0.04c-0.74-0.24-0.73-0.31-0.56-2.08c0.87,0.24,1.73,0.57,2.61,0.68
		c0.85,0.11,1.78,0.13,2.59-0.1c0.49-0.14,1.07-0.78,1.15-1.28c0.07-0.42-0.39-1.16-0.81-1.41c-1.2-0.69-2.52-1.18-3.78-1.79
		c-0.98-0.47-1.7-1.17-1.82-2.34c-0.17-1.74,0.67-2.95,2.47-3.43C160.72,41.48,162.66,41.74,164.67,42.6z"/>
	<path class="st0" d="M283.27,72.47c-0.21,0.48-0.42,0.98-0.56,1.31c-1.47-0.16-2.8-0.41-4.13-0.38c-0.53,0.01-1.37,0.61-1.46,1.06
		c-0.08,0.43,0.51,1.22,1.01,1.5c1.1,0.63,2.35,1,3.49,1.56c1.57,0.77,2.06,1.72,1.9,3.38c-0.14,1.39-1.01,2.51-2.58,2.76
		c-1.43,0.23-2.94,0.27-4.38,0.09c-1.83-0.23-1.83-0.38-1.6-2.32c0.92,0.24,1.83,0.58,2.76,0.7c0.81,0.1,1.69,0.09,2.47-0.13
		c0.47-0.13,1.04-0.74,1.11-1.19c0.06-0.45-0.33-1.2-0.74-1.44c-1.16-0.68-2.51-1.05-3.65-1.76c-0.76-0.47-1.53-1.21-1.86-2.01
		c-0.6-1.43,0.1-2.77,1.49-3.49C278.31,71.19,281.37,71.33,283.27,72.47z"/>
	<path class="st0" d="M297.55,73.42c0,3.48,0,6.82,0,10.23c-0.78,0-1.45,0-2.27,0c0-3.37,0-6.74,0-10.17
		c-0.74-0.05-1.33-0.08-1.89-0.12c-0.37-0.85,0.09-1.16,0.76-1.28c0.83-0.16,1.1-0.57,1.16-1.46c0.2-3.49,2.45-4.73,6.39-3.49
		c-0.16,0.51-0.32,1.02-0.4,1.26c-1.19,0.21-2.39,0.12-3.14,0.66c-0.56,0.4-0.56,1.61-0.86,2.65c1.21,0,2.11,0,3.09,0
		c0,0.61,0,1.1,0,1.73C299.46,73.42,298.57,73.42,297.55,73.42z"/>
	<path class="st0" d="M107.99,81.55c1.33,0.24,2.61,0.51,3.9,0.68c0.49,0.06,1.05-0.06,1.52-0.24c1.22-0.47,1.4-1.77,0.34-2.53
		c-0.61-0.43-1.34-0.7-2.02-1.02c-0.79-0.38-1.61-0.7-2.38-1.12c-1.1-0.6-1.5-1.6-1.43-2.82c0.07-1.26,0.76-2.09,1.9-2.52
		c2.17-0.82,4.3-0.55,6.52,0.35c-0.21,0.55-0.4,1.05-0.62,1.63c-0.36-0.09-0.65-0.19-0.94-0.24c-0.86-0.16-1.72-0.42-2.58-0.43
		c-0.8-0.01-1.8,0.01-2.05,1.06c-0.27,1.16,0.68,1.49,1.48,1.85c1.09,0.5,2.21,0.91,3.28,1.45c1.23,0.61,1.81,1.65,1.69,3.04
		c-0.12,1.41-0.85,2.41-2.19,2.86c-1.91,0.64-3.85,0.57-5.77-0.02C107.39,83.16,108.06,82.21,107.99,81.55z"/>
	<path class="st0" d="M145.51,51.65c0.98,0.26,1.89,0.58,2.83,0.73c0.69,0.11,1.49,0.18,2.12-0.05c0.58-0.21,1.29-0.78,1.42-1.32
		c0.1-0.44-0.47-1.25-0.95-1.55c-1.05-0.63-2.3-0.94-3.35-1.57c-0.74-0.45-1.55-1.1-1.89-1.86c-0.8-1.78,0.3-3.52,2.35-4.06
		c1.8-0.47,3.85-0.27,5.88,0.64c-0.22,0.52-0.44,1.04-0.58,1.39c-1.48-0.16-2.81-0.41-4.13-0.38c-0.53,0.01-1.04,0.67-1.56,1.03
		c0.39,0.54,0.67,1.26,1.2,1.57c1.02,0.6,2.2,0.93,3.27,1.46c1.66,0.81,2.17,1.74,2,3.43c-0.14,1.46-1,2.53-2.67,2.81
		c-1.35,0.23-2.79,0.26-4.15,0.1C145.38,53.79,145.39,53.67,145.51,51.65z"/>
	<path class="st0" d="M44.02,67.9c0.74,0,1.41,0,2.21,0c0,4.62,0,9.19,0,13.9c2.34,0,4.56,0,6.83,0c0,0.68,0,1.22,0,1.85
		c-3.01,0-5.98,0-9.04,0C44.02,78.45,44.02,73.24,44.02,67.9z"/>
	<path class="st0" d="M249.55,37.4c-0.2,0.55-0.36,1.03-0.53,1.49c-3.25-0.26-3.97,0.36-3.5,3.07c0.88,0,1.78,0,2.74,0
		c0,0.58,0,1.04,0,1.64c-0.9,0-1.79,0-2.87,0c0,3.5,0,6.87,0,10.31c-0.83,0-1.49,0-2.25,0c0-3.4,0-6.74,0-10.18
		c-0.68-0.04-1.26-0.08-1.83-0.11c-0.18-0.87-0.18-0.87,1.73-1.72C243.58,37.27,245.45,35.94,249.55,37.4z"/>
	<path class="st0" d="M213.43,42.5c-0.22,0.57-0.42,1.08-0.65,1.67c-1.98-0.52-4.1-1.3-5.39,0.95c-1.1,1.91-1.14,4.09,0.1,5.93
		c1.46,2.16,3.6,1.21,5.55,0.69c0.37,1.74,0.21,2-1.39,2.35c-4.22,0.92-7.13-1.37-7.19-5.68c-0.01-0.68-0.02-1.37,0.09-2.03
		C205.22,42.37,209.23,40.56,213.43,42.5z"/>
	<path class="st0" d="M59.93,9.66c0,0.81,0,1.6,0,2.5c1.15,0,2.21,0,3.36,0c0,0.6,0,1.09,0,1.71c-1.06,0-2.12,0-3.28,0
		c0,2.55-0.06,4.97,0.03,7.39c0.04,0.97,0.84,1.4,1.8,1.39c0.51-0.01,1.02-0.1,1.53-0.15c0.37,1.54,0.24,1.74-1.18,1.91
		c-3.02,0.36-4.41-0.88-4.42-3.94c0-2.15,0-4.29,0-6.48c-0.6-0.06-1.07-0.11-1.85-0.19c0.29-0.48,0.42-1.03,0.7-1.12
		c1.08-0.34,1.49-1.15,1.65-2.12C58.4,9.61,58.89,9.35,59.93,9.66z"/>
	<path class="st0" d="M36.93,43.63c0,2.48-0.04,4.76,0.02,7.03c0.03,1.22,0.73,1.79,1.95,1.76c0.47-0.01,0.94-0.1,1.41-0.15
		c0.38,1.53,0.24,1.75-1.17,1.91c-3.04,0.35-4.42-0.88-4.43-3.93c-0.01-2.15,0-4.3,0-6.49c-0.6-0.06-1.06-0.11-1.84-0.19
		c0.28-0.48,0.41-1.03,0.69-1.12c1.14-0.35,1.52-1.22,1.68-2.23c0.17-1.03,0.76-1.05,1.63-0.77c0,0.78,0,1.57,0,2.48
		c1.15,0,2.21,0,3.36,0c0,0.6,0,1.09,0,1.71C39.19,43.63,38.13,43.63,36.93,43.63z"/>
	<path class="st0" d="M250.58,43.71c-0.61-0.04-1.08-0.06-1.91-0.11c0.36-0.52,0.53-1.06,0.85-1.17c1.01-0.35,1.43-1.05,1.58-2.03
		c0.13-0.9,0.58-1.37,1.66-0.97c0.04,0.77,0.08,1.59,0.13,2.5c1.13,0,2.19,0,3.34,0c0,0.59,0,1.08,0,1.68c-1.05,0-2.11,0-3.4,0
		c0,1.16,0,2.22,0,3.28c0,1.08-0.01,2.16,0,3.24c0.03,1.86,0.71,2.44,2.54,2.23c0.28-0.03,0.55-0.05,0.83-0.08
		c0.35,1.63,0.21,1.8-1.42,1.92c-2.89,0.2-4.15-0.96-4.18-3.87C250.56,48.13,250.58,45.95,250.58,43.71z"/>
	<path class="st0" d="M288.72,71.76c1.28,0,2.35,0,3.47,0c0,0.55,0,1.01,0,1.63c-1.11,0-2.2,0-3.36,0c0,2.53-0.06,4.91,0.03,7.29
		c0.04,1.09,0.86,1.56,1.94,1.5c0.47-0.03,0.94-0.11,1.41-0.17c0.29,1.71,0.21,1.81-1.43,1.94c-2.9,0.22-4.19-0.95-4.19-3.83
		c0-2.19,0-4.37,0-6.64c-0.57-0.04-1.04-0.08-1.84-0.14c0.29-0.48,0.43-1.06,0.73-1.15c1.09-0.34,1.47-1.14,1.63-2.13
		c0.14-0.91,0.63-1.22,1.63-0.88C288.72,69.94,288.72,70.76,288.72,71.76z"/>
	<path class="st0" d="M317.38,83.69c-0.74,0-1.37,0-2.1,0c0-5.6,0-11.16,0-16.79c0.71,0,1.37,0,2.1,0
		C317.38,72.5,317.38,78.03,317.38,83.69z"/>
	<path class="st0" d="M30.67,53.92c-0.72,0-1.35,0-2.03,0c0-5.59,0-11.12,0-16.75c0.67,0,1.31,0,2.03,0
		C30.67,42.74,30.67,48.27,30.67,53.92z"/>
	<path class="st0" d="M179.09,71.76c0.6,0,1.08,0,1.68,0c0.1,0.61,0.2,1.2,0.33,2.03c1.34-1.77,2.84-2.7,5.04-2.09
		c-0.06,0.61-0.11,1.19-0.18,1.83c-0.23,0.02-0.46,0.07-0.68,0.06c-2.54-0.1-4.01,1.29-4.06,3.89c-0.04,1.95-0.02,3.91-0.03,5.86
		c0,0.07-0.05,0.15-0.1,0.3c-0.62,0-1.27,0-2,0C179.09,79.7,179.09,75.78,179.09,71.76z"/>
	<path class="st0" d="M59.02,53.92c-0.77,0-1.39,0-2.09,0c0-3.98,0-7.91,0-11.9c0.56,0,1.06,0,1.63,0c0.1,0.6,0.2,1.19,0.34,2.02
		c1.28-1.76,2.8-2.74,5.02-2.1c-0.05,0.62-0.1,1.2-0.15,1.74c-0.15,0.08-0.22,0.15-0.28,0.15c-3.36,0.01-4.47,1.14-4.48,4.57
		C59.02,50.2,59.02,51.99,59.02,53.92z"/>
	<path class="st0" d="M85.73,12.18c-0.07,0.69-0.12,1.27-0.19,1.9c-0.3,0-0.49,0-0.69,0c-2.62-0.07-3.99,1.27-3.99,3.92
		c-0.01,2.03,0,4.05,0,6.15c-0.76,0-1.42,0-2.15,0c0-3.97,0-7.9,0-11.88c0.57,0,1.08,0,1.64,0c0.11,0.62,0.22,1.23,0.37,2
		C81.99,12.53,83.47,11.57,85.73,12.18z"/>
	<path class="st0" d="M156.5,12.25c0.55,0,1.02,0,1.59,0c0.11,0.61,0.22,1.23,0.36,2.06c1.26-1.76,2.74-2.73,4.98-2.15
		c-0.03,0.62-0.07,1.23-0.1,1.88c-0.35,0.02-0.58,0.04-0.81,0.03c-2.4-0.08-3.84,1.22-3.91,3.65c-0.06,2.11-0.01,4.22-0.01,6.4
		c-0.74,0-1.36,0-2.09,0C156.5,20.22,156.5,16.3,156.5,12.25z"/>
	<path class="st0" d="M158.05,83.67c-0.71,0-1.33,0-2.04,0c0-3.96,0-7.89,0-11.88c0.55,0,1.05,0,1.61,0
		c0.12,0.62,0.23,1.23,0.37,2.01c1.27-1.75,2.75-2.72,4.99-2.1c-0.05,0.63-0.1,1.24-0.15,1.89c-0.35,0-0.59,0.01-0.82,0
		c-2.33-0.06-3.78,1.24-3.87,3.58c-0.07,1.76-0.02,3.51-0.03,5.27C158.1,82.84,158.06,83.22,158.05,83.67z"/>
	<path class="st0" d="M23.13,24.14c-0.82,0-1.45,0-2.13,0c0-3.97,0-7.87,0-11.85c0.72,0,1.41,0,2.13,0
		C23.13,16.27,23.13,20.2,23.13,24.14z"/>
	<path class="st0" d="M217.12,83.68c-0.7,0-1.33,0-2.03,0c0-3.98,0-7.91,0-11.89c0.68,0,1.3,0,2.03,0
		C217.12,75.71,217.12,79.64,217.12,83.68z"/>
	<path class="st0" d="M88.09,12.25c0.73,0,1.35,0,2.06,0c0,3.95,0,7.88,0,11.88c-0.66,0-1.31,0-2.06,0
		C88.09,20.2,88.09,16.28,88.09,12.25z"/>
	<path class="st0" d="M42.94,24.16c-0.7,0-1.33,0-2.04,0c0-3.93,0-7.85,0-11.86c0.63,0,1.28,0,2.04,0
		C42.94,16.19,42.94,20.11,42.94,24.16z"/>
	<path class="st0" d="M142.42,53.91c-0.68,0-1.3,0-2.01,0c0-3.96,0-7.89,0-11.88c0.68,0,1.31,0,2.01,0
		C142.42,45.98,142.42,49.91,142.42,53.91z"/>
	<path class="st0" d="M233.87,78.63c0-0.62,0-1.13,0-1.73c1.82,0,3.58,0,5.42,0c0,0.59,0,1.13,0,1.73
		C237.48,78.63,235.74,78.63,233.87,78.63z"/>
	<path class="st0" d="M89.04,10.28c-0.75-0.05-1.18-0.43-1.19-1.27c-0.01-0.89,0.42-1.35,1.28-1.35c0.8,0,1.26,0.47,1.27,1.27
		C90.41,9.78,89.97,10.26,89.04,10.28z"/>
	<path class="st0" d="M217.43,68.04c0,1.3-0.44,1.75-1.3,1.76c-0.82,0-1.23-0.47-1.25-1.26c-0.02-0.86,0.47-1.43,1.29-1.31
		C216.69,67.31,217.14,67.84,217.43,68.04z"/>
	<path class="st0" d="M43.22,9.01c0.01,0.84-0.43,1.26-1.24,1.27c-0.83,0.01-1.24-0.44-1.26-1.27c-0.02-0.89,0.44-1.37,1.31-1.34
		C42.83,7.7,43.26,8.17,43.22,9.01z"/>
	<path class="st0" d="M140.14,38.72c-0.01-0.85,0.45-1.28,1.24-1.29c0.88-0.01,1.29,0.5,1.26,1.38c-0.03,0.85-0.49,1.23-1.3,1.22
		C140.51,40.02,140.14,39.53,140.14,38.72z"/>
	<path class="st0" d="M22.09,10.29c-0.85-0.06-1.23-0.49-1.23-1.33c-0.01-0.86,0.44-1.28,1.23-1.29c0.87-0.01,1.3,0.49,1.28,1.37
		C23.33,9.89,22.86,10.25,22.09,10.29z"/>
	<path class="st0" d="M145.76,7.83c0.19,0.26,0.67,0.64,0.76,1.11c0.14,0.72-0.37,1.32-1.08,1.21c-0.44-0.07-1.01-0.62-1.13-1.06
		C144.12,8.38,144.6,7.9,145.76,7.83z"/>
	<path class="st0" d="M150.93,9.29c-0.41,0.3-0.8,0.79-1.25,0.85c-0.71,0.1-1.15-0.35-1.14-1.15c0.01-0.72,0.33-1.12,1.06-1.13
		C150.36,7.86,150.77,8.23,150.93,9.29z"/>
</g>
</svg>
