<svg version="1.1" id="Layer_1" xmlns="http://www.w3.org/2000/svg" xmlns:xlink="http://www.w3.org/1999/xlink" x="0px" y="0px"
         width="25.602px" height="73.843px" viewBox="0 0 25.602 73.843" enable-background="new 0 0 25.602 73.843" xml:space="preserve">
<path fill-rule="evenodd" fill="#000" clip-rule="evenodd" d="M0,54.366c2.376-0.371,3.926-1.612,4.678-3.809
        c1.001-2.927,0.276-4.434-2.84-5.799c1.344-1.796,1.239-3.778,0.77-5.818c-0.188-0.813-0.324-1.642-0.436-2.47
        c-0.418-3.104,1.047-5.255,3.631-6.677c1.203-0.661,2.571-1.051,3.899-1.446c0.686-0.203,0.945-0.461,0.956-1.203
        c0.086-5.954,0.22-11.907,0.34-17.935C10.213,9.026,9.467,8.845,8.779,9.64c-0.546,0.631-1.225,0.49-1.777-0.08
        C6.488,9.029,6.417,8.431,6.925,7.85c0.518-0.592,1.093-0.646,1.808-0.26c0.669,0.362,1.417,0.578,2.312,0.929
        c0.104-1.124,0.172-1.854,0.248-2.663c-1.021-0.055-1.854-0.291-2.62,0.581C8.442,6.698,7.344,6.593,7.035,6.275
        c-0.3-0.309-0.306-1.217-0.067-1.661C7.327,3.944,8.234,3.8,8.71,4.384c0.745,0.917,1.605,0.595,2.634,0.649
        c-0.249-1.345,0.7-2.622-0.378-3.926c-0.426-0.515,0.18-1.029,0.832-1.075c0.677-0.048,1.36-0.038,2.038-0.005
        c0.941,0.046,0.967,0.614,0.739,1.344c-0.199,0.641-0.345,1.298-0.544,2.063c1.152,0.041,1.984,0.373,2.795-0.479
        c0.281-0.295,1.418-0.23,1.737,0.092c0.313,0.317,0.303,1.293,0.041,1.759c-0.374,0.667-1.12,0.542-1.806,0.183
        c-0.676-0.354-1.411-0.595-2.334-0.972c0,1.13,0,1.858,0,2.665c0.879,0.016,1.661,0.313,2.344-0.515
        c0.52-0.631,1.342-0.553,1.756,0.076c0.286,0.435,0.38,1.517,0.149,1.662c-0.5,0.316-1.281,0.348-1.913,0.258
        c-0.704-0.101-1.372-0.466-2.3-0.805c0.067,1.334,0.141,2.27,0.157,3.206c0.096,5.517,0.198,11.034,0.246,16.552
        c0.008,0.868,0.338,1.061,1.124,1.299c1.587,0.48,3.208,1.033,4.615,1.886c2.563,1.554,3.372,4.245,2.614,7.693
        c-0.094,0.428-0.211,0.851-0.305,1.278c-0.514,2.358-0.35,3.464,0.81,5.493c-2.507,0.985-3.317,1.862-3.002,4.712
        c0.319,2.876,1.982,4.477,4.841,4.866c-1.646,2.029-1.487,4.299-0.974,6.618c0.206,0.935,0.447,1.866,0.574,2.813
        c0.505,3.777-1.284,6.326-4.4,8.185C16.103,74.76,7.976,74.4,3.595,71.13c-2.874-2.145-3.786-5.008-3-8.463
        c0.158-0.698,0.309-1.399,0.447-2.103C1.47,58.399,1.577,56.278,0,54.366z M10.453,58.202c0.684,4.841,1.349,9.55,2.019,14.299
        c0.74,0.263,0.928-0.108,1.001-0.877c0.275-2.853,0.577-5.705,0.963-8.545c0.222-1.628,0.626-3.23,0.954-4.877
        C13.611,58.202,11.911,58.202,10.453,58.202z M17.851,49.226c0.143,0.001,0.285,0.003,0.427,0.004c0.1,0.828,0.295,1.659,0.27,2.482
        c-0.023,0.742-0.312,1.473-0.444,2.215c-0.274,1.533,0.212,2.886,1.364,3.387c0.431,0.188,1.04-0.037,1.567-0.073
        c-0.068-0.395-0.136-0.79-0.204-1.185c-0.463,0.16-0.926,0.321-1.39,0.477c-0.058,0.019-0.126,0.002-0.232,0.002
        c-0.685-0.86-0.739-1.826-0.552-2.903c0.202-1.157,0.385-2.351,0.316-3.513c-0.065-1.114-1.184-1.991-2.104-1.88
        c-0.266,0.032-0.667,0.252-0.715,0.454c-0.069,0.291,0.041,0.726,0.241,0.947c0.152,0.168,0.588,0.185,0.855,0.113
        C17.481,49.692,17.653,49.411,17.851,49.226z M7.779,49.058c0.083,0.111,0.127,0.24,0.208,0.27c0.394,0.143,0.807,0.362,1.194,0.331
        c0.145-0.012,0.239-0.634,0.356-0.978c-0.454-0.128-0.968-0.457-1.349-0.343c-1.048,0.313-1.664,1.147-1.66,2.242
        c0.003,0.896,0.22,1.791,0.354,2.684c0.177,1.174,0.388,2.35-0.276,3.063c-0.813-0.101-1.326-0.236-1.809-0.17
        c-0.111,0.016-0.126,0.729-0.185,1.121c0.538,0.016,1.284,0.259,1.571-0.002c0.572-0.521,1.158-1.282,1.255-2.009
        c0.131-0.984-0.159-2.035-0.328-3.048C6.922,51.083,6.869,50,7.779,49.058z M9.706,54.843c-0.001,0.086-0.001,0.172-0.002,0.257
        c2.062,0,4.122,0,6.183,0c-0.002-0.085-0.005-0.171-0.007-0.257C13.821,54.843,11.764,54.843,9.706,54.843z"/>
<path fill-rule="evenodd" clip-rule="evenodd" fill="#999" d="M10.453,58.202c1.458,0,3.158,0,4.937,0
        c-0.328,1.646-0.732,3.249-0.954,4.877c-0.386,2.84-0.688,5.692-0.963,8.545c-0.073,0.769-0.261,1.14-1.001,0.877
        C11.802,67.751,11.137,63.042,10.453,58.202z"/>
<path fill-rule="evenodd" clip-rule="evenodd" fill="#999" d="M17.851,49.226c-0.197,0.185-0.369,0.466-0.6,0.527
        c-0.268,0.071-0.703,0.055-0.855-0.113c-0.2-0.222-0.311-0.656-0.241-0.947c0.048-0.202,0.449-0.422,0.715-0.454
        c0.92-0.111,2.038,0.766,2.104,1.88c0.068,1.162-0.114,2.355-0.316,3.513c-0.188,1.077-0.133,2.043,0.552,2.903
        c0.106,0,0.175,0.017,0.232-0.002c0.464-0.155,0.927-0.316,1.39-0.477c0.068,0.395,0.136,0.79,0.204,1.185
        c-0.527,0.036-1.137,0.261-1.567,0.073c-1.152-0.501-1.639-1.854-1.364-3.387c0.133-0.742,0.421-1.473,0.444-2.215
        c0.025-0.823-0.17-1.654-0.27-2.482C18.136,49.229,17.993,49.227,17.851,49.226z"/>
<path fill-rule="evenodd" clip-rule="evenodd" fill="#999" d="M7.779,49.058C6.869,50,6.922,51.083,7.111,52.219
        c0.169,1.013,0.459,2.063,0.328,3.048c-0.097,0.727-0.683,1.488-1.255,2.009c-0.287,0.261-1.033,0.018-1.571,0.002
        c0.059-0.392,0.073-1.105,0.185-1.121c0.482-0.066,0.995,0.069,1.809,0.17c0.664-0.713,0.453-1.889,0.276-3.063
        c-0.134-0.893-0.351-1.788-0.354-2.684c-0.004-1.095,0.612-1.93,1.66-2.242c0.381-0.114,0.895,0.215,1.349,0.343
        c-0.117,0.344-0.212,0.966-0.356,0.978c-0.388,0.031-0.801-0.188-1.194-0.331C7.906,49.298,7.862,49.169,7.779,49.058z"/>
<path fill-rule="evenodd" clip-rule="evenodd" fill="#999" d="M9.706,54.843c2.058,0,4.115,0,6.174,0
        c0.002,0.086,0.005,0.172,0.007,0.257c-2.061,0-4.121,0-6.183,0C9.705,55.015,9.705,54.929,9.706,54.843z"/>
</svg>
