<?xml version="1.0" encoding="utf-8"?>
<!-- Generator: Adobe Illustrator 28.0.0, SVG Export Plug-In . SVG Version: 6.00 Build 0)  -->
<svg version="1.1" id="Layer_1" xmlns="http://www.w3.org/2000/svg" xmlns:xlink="http://www.w3.org/1999/xlink" x="0px" y="0px"
	 viewBox="0 0 403.71 112.54" style="enable-background:new 0 0 403.71 112.54;" xml:space="preserve">
<style type="text/css">
	.st0{fill:#FFFFFF;}
</style>
<g>
	<path class="st0" d="M0,50.75c10.55-11.86,21.11-23.72,31.69-35.62c-0.49-0.46-0.99-0.3-1.43-0.3c-8.71-0.01-17.43-0.01-26.14-0.01
		c-1.74,0-1.75-0.01-1.75-1.72c0-3.27,0.03-6.55-0.02-9.82C2.33,2.2,2.7,1.83,3.8,1.83c16.51,0.03,33.01,0.02,49.52,0
		c1.04,0,1.41,0.36,1.4,1.39c-0.04,3.47-0.03,6.94-0.01,10.42c0,0.72-0.21,1.29-0.7,1.83c-3.53,3.96-7.04,7.94-10.57,11.91
		c-5.4,6.09-10.81,12.18-16.22,18.26c-1.19,1.34-2.41,2.66-3.59,4.02c-0.22,0.25-0.65,0.52-0.48,0.89c0.17,0.38,0.65,0.2,0.98,0.2
		c9.67,0.01,19.34,0.01,29.02,0.01c0.88,0,1.76,0.02,2.64,0c0.73-0.01,1.1,0.28,1.1,1.06c-0.01,3.63-0.01,7.26-0.01,10.89
		c0,0.7-0.32,1.03-1.02,1.01c-0.24-0.01-0.48,0.01-0.72,0.01c-17.99,0-35.97,0-53.96,0c-0.4,0-0.8-0.03-1.2-0.05
		C0,59.37,0,55.06,0,50.75z"/>
	<path class="st0" d="M361.23,112.54c-3.74-1.05-4.97-3.98-5.47-7.39c-0.46-3.18-0.39-6.36,0.2-9.53c0.86-4.67,4.11-7.02,8.47-6.1
		c2.23,0.47,3.64,1.9,4.47,3.95c0.45,1.11,0.75,2.28,0.85,3.48c0.25,3.22,0.4,6.45-0.29,9.65c-0.65,2.99-2.17,5.21-5.34,5.94
		C363.14,112.54,362.18,112.54,361.23,112.54z M358.58,101.38c-0.03,1.61-0.01,3.8,0.64,5.93c0.56,1.85,1.72,2.78,3.42,2.82
		c1.73,0.04,2.97-0.89,3.6-2.75c0.15-0.45,0.29-0.92,0.37-1.38c0.44-2.81,0.47-5.63,0.2-8.46c-0.12-1.27-0.28-2.54-0.84-3.71
		c-0.62-1.31-1.67-2.03-3.11-2.07c-1.44-0.03-2.53,0.61-3.22,1.89c-0.4,0.75-0.62,1.55-0.78,2.37
		C358.55,97.6,358.6,99.2,358.58,101.38z"/>
	<path class="st0" d="M295.74,112.54c-3.25-0.58-4.75-2.68-5.01-5.81c-0.06-0.7-0.33-1.58,0.91-1.66c1.62-0.11,1.85,0.02,1.97,1.4
		c0.2,2.34,1.34,3.54,3.48,3.66c2.31,0.13,3.82-0.98,4.27-3.14c0.31-1.46-0.43-3.1-1.77-3.88c-1.29-0.76-2.73-1.12-4.11-1.63
		c-3.77-1.41-5.16-3.87-4.33-7.64c0.53-2.45,2.24-3.96,5.04-4.42c1.44-0.24,2.87-0.11,4.25,0.39c2.06,0.75,3.47,2.97,3.36,5.19
		c-0.03,0.51-0.28,0.78-0.73,0.74c-0.73-0.05-1.65,0.45-2.1-0.59c-0.11-0.25-0.13-0.54-0.2-0.81c-0.41-1.65-1.16-2.34-2.75-2.56
		c-1.52-0.21-2.98,0.45-3.59,1.62c-0.65,1.23-0.46,3.2,0.36,4.2c0.72,0.87,1.7,1.3,2.72,1.66c1.09,0.39,2.2,0.73,3.27,1.17
		c2.74,1.14,3.73,2.88,3.62,6.2c-0.09,2.64-1.56,4.62-4.06,5.49c-0.41,0.14-0.83,0.29-1.24,0.44
		C297.98,112.54,296.86,112.54,295.74,112.54z"/>
	<path class="st0" d="M86.83,112.54c-4.25-1.11-4.89-3.6-4.98-6.76c-0.15-4.94-0.03-9.89-0.06-14.84c-0.01-1.12,0.64-1.17,1.48-1.18
		c0.86,0,1.46,0.1,1.45,1.2c-0.04,4.59-0.01,9.17-0.02,13.76c0,1.04,0.09,2.08,0.37,3.08c0.46,1.62,1.55,2.33,3.46,2.32
		c1.83-0.01,2.86-0.74,3.33-2.32c0.19-0.66,0.25-1.33,0.25-2.01c0-4.83,0-9.65,0.01-14.48c0-1.37,1.33-2.11,2.52-1.42
		c0.38,0.22,0.38,0.59,0.38,0.94c0,5.26,0.1,10.53-0.05,15.79c-0.09,3.14-1.93,5.13-5.01,5.92
		C88.91,112.54,87.87,112.54,86.83,112.54z"/>
	<path class="st0" d="M149.19,112.54c-3.84-0.87-4.97-3.67-5.01-7.15c-0.06-4.79,0.01-9.57-0.03-14.36
		c-0.01-1.16,0.6-1.26,1.51-1.27c0.99-0.02,1.45,0.26,1.44,1.35c-0.04,4.51-0.01,9.02-0.02,13.52c0,0.96,0.1,1.91,0.28,2.85
		c0.34,1.72,1.4,2.57,3.2,2.64c2.07,0.09,3.13-0.59,3.68-2.33c0.23-0.74,0.22-1.5,0.22-2.25c0.01-4.75,0-9.49,0.01-14.24
		c0-0.49-0.19-1.15,0.4-1.39c0.67-0.27,1.42-0.24,2.11,0c0.41,0.14,0.37,0.58,0.37,0.93c0,5.27,0.09,10.53-0.04,15.8
		c-0.08,3.18-1.95,5.11-5.02,5.9C151.27,112.54,150.23,112.54,149.19,112.54z"/>
	<path class="st0" d="M279.19,112.54c-3.98-1.24-4.85-3.74-4.83-7.28c0.02-4.55,0-9.09,0.01-13.64c0-1.79,0.05-1.86,1.49-1.85
		c1.37,0.01,1.43,0.07,1.43,1.8c0,4.63,0,9.25,0,13.88c0,0.52-0.01,1.04,0.07,1.55c0.32,2.08,1.45,3.1,3.42,3.13
		c2.22,0.03,3.3-0.86,3.73-3.05c0.16-0.83,0.17-1.66,0.17-2.5c0-4.47,0.03-8.93-0.02-13.4c-0.01-1.13,0.42-1.43,1.48-1.44
		c1.09-0.01,1.48,0.35,1.47,1.45c-0.04,4.59,0.02,9.17-0.03,13.76c-0.04,3.58-0.79,6.23-5.02,7.58
		C281.43,112.54,280.31,112.54,279.19,112.54z"/>
	<path class="st0" d="M0,109.43c2.71-4.7,5.42-9.4,8.13-14.11c0.36-0.62,0.68-1.27,1.07-1.87c0.58-0.88,0.21-1.05-0.66-1.04
		c-2.24,0.03-4.48-0.02-6.72,0.02c-0.94,0.02-1.38-0.25-1.39-1.28c-0.01-1.05,0.37-1.4,1.41-1.39c3,0.05,6,0.02,8.99,0.02
		c2.18,0,2.86,1.19,1.76,3.19c-1.12,2.03-2.3,4.02-3.46,6.02c-1.82,3.14-3.65,6.28-5.47,9.42c-0.6,1.04-0.52,1.2,0.71,1.21
		c2.4,0.01,4.8,0.02,7.2,0c0.87-0.01,1.45,0.13,1.45,1.22c0,1.04-0.46,1.28-1.39,1.27c-3.88-0.04-7.75-0.03-11.63-0.04
		C0,111.18,0,110.3,0,109.43z"/>
	<path class="st0" d="M151.67,9.73c2.12-2.81,4.65-5.13,7.71-6.9c6.9-3.99,17.85-3.5,24.04,1.17c1.84,1.39,3.36,3.08,4.41,5.14
		c0.45,0.89,0.69,1.06,1.39,0.14c3.8-4.98,8.73-8.26,15.02-8.93c6.28-0.67,12.42,0.02,17.79,3.77c4.23,2.96,6.38,7.25,7.27,12.23
		c0.36,2.05,0.51,4.11,0.51,6.19c-0.02,13.13-0.01,26.26-0.01,39.39c0,1.79-0.01,1.79-1.8,1.79c-4.56,0-9.11,0-13.67,0
		c-1.56,0-1.61-0.05-1.61-1.62c0-10.58-0.01-21.15,0-31.73c0-2.64-0.12-5.26-0.42-7.88c-0.78-6.87-4.92-9.38-11.42-8.7
		c-5.59,0.58-8.54,3.87-9.41,9.82c-0.32,2.21-0.5,4.43-0.5,6.67c0.02,10.54,0.01,21.07,0.01,31.61c0,1.82,0,1.83-1.77,1.83
		c-4.6,0-9.19-0.03-13.79,0.02c-1.22,0.02-1.57-0.4-1.57-1.59c0.04-12.17,0.03-24.35,0.02-36.52c0-2.24-0.24-4.46-0.99-6.59
		c-0.78-2.2-2.26-3.72-4.43-4.58c-6.49-2.54-13.49,0.92-15.42,7.61c-0.51,1.78-0.73,3.58-0.73,5.43
		c0.02,11.46,0.01,22.91,0.01,34.37c0,1.84,0,1.84-1.88,1.84c-4.64,0-9.27-0.03-13.91,0.02c-1.16,0.01-1.51-0.39-1.51-1.52
		c0.03-19.64,0.03-39.27,0-58.91c0-1.18,0.44-1.5,1.55-1.49c4.44,0.05,8.87,0.05,13.31,0c1.18-0.01,1.53,0.43,1.5,1.54
		c-0.06,2.1-0.02,4.19-0.02,6.29C151.46,9.68,151.56,9.71,151.67,9.73z"/>
	<path class="st0" d="M105.91,58.1c-1.73,1.32-3.21,2.63-4.95,3.61c-4.06,2.28-8.46,3.36-13.05,3.64
		c-4.12,0.25-8.22,0.01-12.18-1.37c-7.24-2.53-11.61-8.57-11.72-16.25c-0.06-4.15,0.5-8.12,3.03-11.59
		c2.69-3.68,6.56-5.5,10.77-6.71c4.78-1.37,9.74-1.72,14.65-2.39c2.77-0.38,5.56-0.64,8.21-1.6c3.04-1.1,4.58-3.01,4.54-5.63
		c-0.06-3.82-1.6-6.3-4.68-7.3c-3.46-1.12-7.01-1.11-10.53-0.32c-3.85,0.87-6.05,3.43-6.68,7.27c-0.2,1.25-0.7,1.65-1.95,1.63
		c-4.63-0.06-9.27-0.02-13.91-0.03c-1.5,0-1.64-0.2-1.45-1.69c1.2-9.32,6.87-14.68,15.49-17.39c6.24-1.96,12.65-2.04,19.11-1.6
		c3.93,0.27,7.76,0.95,11.44,2.43c6.81,2.74,10.29,7.84,10.29,15.17c0,11.45-0.04,22.9,0.04,34.36c0.03,3.59,0.32,7.18,1.72,10.56
		c0.29,0.71-0.03,0.84-0.63,0.84c-5.16,0-10.31-0.01-15.47,0c-0.75,0-1.07-0.37-1.24-1.03C106.4,61.25,106.04,59.79,105.91,58.1z
		 M105.25,37.39c0-0.88-0.01-1.75,0-2.63c0.01-0.69-0.15-0.99-0.9-0.56c-1.72,1-3.64,1.39-5.56,1.76
		c-3.49,0.67-7.07,0.79-10.48,1.86c-3.03,0.95-5.77,2.26-6.75,5.64c-1.22,4.21,0.05,8.97,5.88,10.07c2.9,0.55,5.81,0.52,8.68-0.16
		c4.45-1.06,7.23-3.88,8.42-8.26C105.21,42.58,105.2,39.98,105.25,37.39z"/>
	<path class="st0" d="M284.2,55.45c-1.66,1.88-3.17,3.67-5.03,5.15c-5.34,4.22-11.49,5.32-18.09,4.68
		c-3.29-0.32-6.48-1.02-9.39-2.66c-4.64-2.61-7.05-6.79-8.29-11.79c-0.81-3.27-1.1-6.62-1.12-9.97
		c-0.06-12.37-0.03-24.75-0.02-37.12c0-1.89,0-1.89,1.95-1.89c4.48,0,8.95,0,13.43,0c1.88,0,1.88,0,1.88,1.84
		c0.01,11.73,0,23.47,0.03,35.2c0,2.16,0.35,4.29,1.02,6.36c1.21,3.73,3.7,6.03,7.66,6.47c4.31,0.48,8.44,0.06,11.58-3.41
		c2.09-2.32,2.75-5.26,3.21-8.25c0.24-1.55,0.27-3.1,0.27-4.65c0-10.58,0-21.15,0-31.73c0-1.82,0.01-1.82,1.78-1.82
		c4.64,0,9.27,0.03,13.91-0.02c1.17-0.01,1.62,0.31,1.61,1.55c-0.03,19.6-0.02,39.2-0.02,58.79c0,1.5-0.06,1.56-1.55,1.56
		c-4.44,0.01-8.87-0.03-13.31,0.02c-1.16,0.01-1.54-0.39-1.51-1.52C284.25,59.97,284.2,57.71,284.2,55.45z"/>
	<path class="st0" d="M319.33,43.54c2.28,0,4.56,0.01,6.84-0.01c0.74-0.01,1.19,0.15,1.27,1.03c0.39,4.18,2.73,6.9,6.61,8.28
		c4.09,1.46,8.24,1.5,12.33-0.02c2.31-0.86,4.09-2.34,4.74-4.85c0.69-2.64-0.09-4.71-2.38-6.22c-2.31-1.52-4.93-2.25-7.55-2.98
		c-4.89-1.37-9.93-2.1-14.79-3.6c-3.65-1.13-7.16-2.56-9.96-5.29c-2.62-2.55-3.87-5.68-3.94-9.33c-0.08-3.88,0.59-7.55,2.68-10.88
		c2.36-3.76,5.85-6.16,10-7.42c9.74-2.96,19.56-3.17,29.18,0.4c7.22,2.68,11.22,8.18,12.36,15.76c0.22,1.46,0.01,1.69-1.47,1.69
		c-4.4,0.01-8.79-0.02-13.19,0.02c-1.06,0.01-1.54-0.28-1.72-1.42c-0.5-3.17-2.36-5.3-5.45-6.2c-3.84-1.11-7.72-1.18-11.57,0.02
		c-2.16,0.67-3.45,2.13-3.64,4.41c-0.18,2.08,0.84,3.59,2.5,4.72c1.71,1.16,3.67,1.76,5.64,2.29c5.06,1.36,10.26,2.1,15.29,3.58
		c4.01,1.18,7.89,2.62,11.02,5.56c2.79,2.63,4.21,5.83,4.35,9.66c0.15,4.02-0.42,7.88-2.4,11.45c-2.55,4.57-6.62,7.28-11.4,9.01
		c-6.17,2.23-12.57,2.51-19.04,2.04c-4.79-0.35-9.41-1.4-13.67-3.68c-6.62-3.55-10.12-9.16-10.86-16.58
		c-0.11-1.11,0.31-1.48,1.41-1.45C314.77,43.58,317.05,43.54,319.33,43.54z"/>
	<path class="st0" d="M403.71,13.21c-0.01,5.39-4.58,10.05-9.83,10.03c-5.38-0.02-9.9-4.66-9.87-10.13
		c0.03-5.59,4.64-10.29,10.06-10.26C399.32,2.87,403.72,7.6,403.71,13.21z"/>
	<path class="st0" d="M403.71,52.51c0,5.28-4.65,10.23-9.59,10.22c-5.47-0.01-10.13-4.72-10.11-10.22c0.02-5.6,4.5-10.18,9.95-10.18
		C399.34,42.34,403.71,46.91,403.71,52.51z"/>
	<path class="st0" d="M114.19,94.35c-0.31,1.23-0.62,2.45-0.94,3.68c-1.08,4.25-2.2,8.49-3.22,12.76c-0.27,1.12-0.85,1.32-1.86,1.33
		c-1.02,0.01-1.49-0.33-1.73-1.34c-1.29-5.27-2.65-10.52-3.99-15.78c-0.1-0.37-0.21-0.74-0.48-1.1c0,2.1,0,4.19,0,6.29
		c0,3.51-0.04,7.02,0.02,10.53c0.02,1.18-0.5,1.39-1.52,1.39c-0.99,0-1.45-0.25-1.44-1.34c0.04-6.54,0.03-13.08,0-19.63
		c-0.01-1.04,0.36-1.41,1.4-1.38c3.92,0.13,3.21-0.68,4.22,3.22c1.08,4.17,2.11,8.35,3.16,12.53c0.09,0.38,0.22,0.74,0.43,1.45
		c0.21-0.71,0.34-1.1,0.44-1.5c1.19-4.72,2.41-9.43,3.54-14.16c0.27-1.13,0.77-1.57,1.96-1.54c3.68,0.11,3.14-0.44,3.16,3.21
		c0.03,5.86,0.01,11.73,0,17.59c0,1.37-1.32,2.12-2.51,1.43c-0.57-0.33-0.4-0.91-0.4-1.41c-0.01-4.95-0.01-9.89-0.01-14.84
		c0-0.44,0-0.87,0-1.31C114.34,94.4,114.27,94.37,114.19,94.35z"/>
	<path class="st0" d="M261.33,106.43c1.21-4.75,2.42-9.5,3.64-14.25c0.7-2.74,0.33-2.37,3.03-2.39c2.33-0.02,2.33,0,2.33,2.34
		c0,6.15,0,12.29,0,18.44c0,1.37-1.34,2.12-2.51,1.42c-0.56-0.34-0.38-0.92-0.38-1.41c-0.01-5.11-0.01-10.22-0.01-15.33
		c0-0.44,0-0.87,0-1.31c-0.05-0.01-0.1-0.03-0.16-0.04c-0.11,0.35-0.22,0.7-0.31,1.05c-1.33,5.26-2.68,10.52-3.96,15.79
		c-0.26,1.07-0.76,1.39-1.82,1.39c-1.04,0-1.57-0.28-1.84-1.37c-1.25-5.12-2.57-10.22-3.88-15.32c-0.09-0.37-0.08-0.79-0.5-1.19
		c0,1.15,0,2.18,0,3.21c0,4.47-0.02,8.94,0.01,13.41c0.01,1.06-0.5,1.26-1.41,1.25c-0.88-0.02-1.54-0.05-1.54-1.24
		c0.04-6.63,0.03-13.25,0.01-19.88c0-0.86,0.32-1.19,1.19-1.22c3.5-0.14,3.5-0.16,4.34,3.18c0.97,3.87,1.94,7.74,2.92,11.61
		c0.16,0.64,0.37,1.28,0.55,1.92C261.14,106.45,261.23,106.44,261.33,106.43z"/>
	<path class="st0" d="M34.3,95.3c0,3.74,0,7.49,0,11.23c0,1.4-0.06,2.8,0.02,4.19c0.06,1.17-0.49,1.4-1.52,1.4
		c-1.01,0-1.43-0.28-1.42-1.36c0.05-3.79,0.02-7.58,0.02-11.37c0-2.71,0.05-5.43-0.02-8.14c-0.03-1.18,0.42-1.52,1.54-1.49
		c2.11,0.05,2.11,0,2.9,2c2.03,5.11,4.06,10.22,6.16,15.5c0.35-0.52,0.24-0.95,0.24-1.34c0.01-4.87,0-9.73,0.01-14.6
		c0-1.37,1.32-2.1,2.52-1.42c0.38,0.22,0.39,0.58,0.39,0.94c0,6.74,0,13.48,0.01,20.23c0,0.68-0.27,1.06-0.99,1.03
		c-0.04,0-0.08,0-0.12,0c-2.7,0.16-2.71,0.16-3.71-2.36c-1.77-4.45-3.53-8.9-5.3-13.35c-0.15-0.37-0.31-0.73-0.47-1.09
		C34.46,95.28,34.38,95.29,34.3,95.3z"/>
	<path class="st0" d="M399.37,107.27c0-2.94,0-5.89,0-8.83c0-2.47,0.04-4.95-0.01-7.42c-0.03-1.18,0.64-1.24,1.53-1.25
		c0.91-0.01,1.4,0.2,1.4,1.26c-0.03,6.62-0.02,13.25-0.01,19.87c0,0.86-0.3,1.19-1.19,1.22c-2.65,0.07-2.65,0.1-3.62-2.33
		c-1.78-4.49-3.56-8.97-5.35-13.46c-0.14-0.35-0.19-0.77-0.56-1.05c-0.22,0.47-0.11,0.95-0.11,1.41c-0.01,4.63,0,9.26-0.01,13.88
		c0,1.36-1.33,2.1-2.53,1.42c-0.38-0.22-0.38-0.58-0.38-0.94c0-6.74,0-13.49-0.01-20.23c0-0.69,0.29-1.05,1-1.03
		c0.2,0.01,0.4,0,0.6-0.01c2.01-0.02,2.01-0.02,2.74,1.83c1.94,4.89,3.89,9.79,5.83,14.68c0.13,0.33,0.28,0.66,0.42,0.98
		C399.2,107.27,399.28,107.27,399.37,107.27z"/>
	<path class="st0" d="M64.53,100.9c0-3.23,0.03-6.46-0.02-9.69c-0.02-1.08,0.35-1.49,1.45-1.46c1.95,0.07,3.91,0.01,5.87,0.02
		c2.78,0.02,4.9,1.3,5.46,3.61c0.64,2.64,0.39,5.7-1.92,7.15c-0.53,0.33-0.63,0.53-0.01,0.87c1.29,0.69,1.82,1.84,1.91,3.24
		c0.11,1.67,0.2,3.34,0.35,5c0.04,0.47,0.1,1,0.36,1.37c0.8,1.17,0.02,1.06-0.76,1.07c-2.27,0-2.48-0.21-2.65-2.48
		c-0.12-1.71-0.22-3.42-0.47-5.11c-0.23-1.56-1.05-2.18-2.63-2.24c-0.96-0.03-1.92,0.02-2.87-0.02c-0.9-0.04-1.18,0.37-1.17,1.22
		c0.03,2.35-0.03,4.71,0.03,7.06c0.02,1.06-0.19,1.66-1.43,1.58c-1.4-0.08-1.48-0.09-1.49-1.64
		C64.52,107.28,64.52,104.09,64.53,100.9z M67.43,95.98c0,0.96,0,1.91,0,2.87c0,0.54,0.14,0.97,0.78,0.96
		c1.31-0.01,2.64,0.16,3.93-0.21c1.52-0.43,2.41-1.79,2.42-3.7c0.02-1.78-0.82-3.01-2.36-3.47c-1.33-0.39-2.69-0.22-4.05-0.21
		c-0.57,0-0.73,0.4-0.73,0.89C67.43,94.07,67.44,95.02,67.43,95.98z"/>
	<path class="st0" d="M171.63,101.05c2.03,0.97,2.46,2.6,2.57,4.52c0.11,1.97-0.09,4,0.76,5.88c0.18,0.41,0.08,0.55-0.35,0.63
		c-2.19,0.44-2.85-0.02-3.23-2.25c-0.28-1.66,0.01-3.35-0.34-5c-0.38-1.83-1.15-2.52-3.02-2.57c-3.69-0.1-3.69-0.1-3.69,3.59
		c0,1.71-0.03,3.43,0.01,5.14c0.03,1.18-0.75,1.09-1.53,1.1c-0.79,0.02-1.4-0.05-1.4-1.11c0.02-6.7,0.02-13.4,0-20.1
		c0-0.84,0.38-1.12,1.17-1.11c2.08,0.02,4.15-0.01,6.23,0.01c2.65,0.03,4.65,1.36,5.33,3.49c0.88,2.78,0.04,5.87-2,7.36
		C172,100.72,171.88,100.83,171.63,101.05z M164.32,96.01c-0.01,4.18,0.16,4.34,3.93,3.77c0.12-0.02,0.24-0.04,0.35-0.07
		c1.83-0.43,2.81-1.8,2.83-3.91c0.02-1.82-0.88-2.98-2.71-3.44c-1.22-0.31-2.46-0.15-3.7-0.13c-0.58,0.01-0.7,0.43-0.71,0.91
		C164.32,94.1,164.32,95.05,164.32,96.01z"/>
	<path class="st0" d="M318.12,100.02c1.67-2.32,3.34-4.65,5.01-6.97c0.42-0.58,0.92-1.13,1.24-1.76c0.68-1.37,1.8-1.64,3.19-1.52
		c0.84,0.07,1.01,0.27,0.49,0.98c-1.68,2.28-3.26,4.64-5.02,6.86c-0.91,1.14-0.85,2.03-0.15,3.21c1.96,3.34,3.82,6.73,5.72,10.11
		c0.56,0.99,0.47,1.07-0.65,1.19c-1.34,0.14-2.2-0.27-2.86-1.55c-1.39-2.7-2.97-5.29-4.42-7.95c-0.45-0.82-0.64-0.98-1.34-0.14
		c-1.16,1.41-1.68,2.91-1.5,4.73c0.11,1.11-0.03,2.24,0.03,3.35c0.06,1.09-0.24,1.59-1.45,1.58c-1.16-0.01-1.51-0.41-1.5-1.54
		c0.04-5.35,0.02-10.7,0.02-16.04c0-1.2,0.04-2.4-0.01-3.59c-0.05-1.12,0.62-1.19,1.47-1.19c0.83,0.01,1.5,0.04,1.48,1.17
		c-0.04,2.71-0.01,5.43-0.01,8.14c0,0.28,0.03,0.55,0.04,0.83C317.96,99.94,318.04,99.98,318.12,100.02z"/>
	<path class="st0" d="M191.62,89.77c1.92,0,1.94-0.01,2.43,1.81c1.75,6.43,3.47,12.86,5.22,19.29c0.24,0.87,0.07,1.24-0.91,1.24
		c-1.83,0-1.83,0.04-2.28-1.68c-0.28-1.08-0.61-2.15-0.85-3.24c-0.18-0.8-0.58-1.14-1.41-1.12c-1.56,0.04-3.12,0.04-4.67,0
		c-0.81-0.02-1.25,0.27-1.44,1.08c-0.32,1.36-0.71,2.7-1.11,4.04c-0.23,0.78-2.38,1.34-2.96,0.77c-0.36-0.36-0.06-0.76,0.04-1.12
		c1.44-5.02,2.88-10.04,4.33-15.06c0.41-1.42,0.82-2.83,1.24-4.25C189.76,89.77,189.76,89.78,191.62,89.77z M191.73,93.8
		c-0.1-0.01-0.19-0.02-0.29-0.03c-0.86,3.01-1.72,6.02-2.59,9.03c-0.15,0.53-0.06,0.85,0.58,0.84c1.31-0.01,2.63-0.01,3.94,0
		c0.6,0,0.91-0.21,0.73-0.87C193.31,99.78,192.52,96.79,191.73,93.8z"/>
	<path class="st0" d="M342.65,100.06c1.23-1.71,2.46-3.41,3.68-5.12c1.02-1.43,2.03-2.86,3.05-4.29c0.54-0.76,2.46-1.27,3.23-0.81
		c0.64,0.38,0.07,0.77-0.13,1.06c-1.71,2.4-3.43,4.8-5.21,7.16c-0.56,0.74-0.64,1.31-0.16,2.14c2.04,3.52,4,7.08,5.99,10.63
		c0.67,1.19,0.64,1.15-0.65,1.27c-1.44,0.14-2.23-0.41-2.89-1.7c-1.39-2.73-2.98-5.37-4.47-8.05c-0.32-0.58-0.54-0.68-1.01-0.12
		c-1.14,1.39-2.04,2.8-1.78,4.75c0.16,1.22-0.01,2.47,0.04,3.7c0.05,1.01-0.29,1.43-1.36,1.42c-1.03-0.01-1.41-0.34-1.4-1.39
		c0.04-4.47,0.02-8.93,0.02-13.4c0-2.11,0.04-4.23-0.01-6.34c-0.03-1.08,0.55-1.23,1.43-1.23c0.87,0,1.34,0.23,1.33,1.21
		c-0.04,2.75-0.01,5.5-0.01,8.25c0,0.23,0.04,0.47,0.05,0.7C342.47,99.97,342.56,100.02,342.65,100.06z"/>
	<path class="st0" d="M228.56,100.81c0-3.23,0.02-6.47-0.01-9.7c-0.01-0.96,0.3-1.37,1.3-1.35c3,0.04,6,0.04,8.99,0
		c1.01-0.01,1.3,0.4,1.31,1.36c0.01,1.01-0.39,1.33-1.35,1.31c-2.04-0.04-4.08,0.01-6.12-0.02c-0.86-0.01-1.24,0.31-1.21,1.19
		c0.04,1.4,0.05,2.8,0,4.19c-0.04,0.97,0.31,1.37,1.31,1.34c1.88-0.05,3.76,0.03,5.64-0.03c1.06-0.03,1.25,0.5,1.25,1.4
		c0,0.91-0.31,1.3-1.25,1.28c-1.88-0.04-3.76,0.03-5.64-0.02c-1-0.03-1.34,0.36-1.31,1.34c0.05,1.75,0.05,3.51,0,5.27
		c-0.02,0.93,0.32,1.28,1.26,1.26c2.2-0.04,4.4,0.01,6.6-0.02c0.91-0.01,1.29,0.31,1.29,1.25c0,0.95-0.39,1.25-1.29,1.24
		c-3.16-0.03-6.32-0.04-9.47,0c-1.02,0.01-1.31-0.4-1.3-1.35C228.58,107.44,228.56,104.12,228.56,100.81z"/>
	<path class="st0" d="M16.26,100.8c0-3.23,0.02-6.46-0.01-9.7c-0.01-0.97,0.32-1.36,1.32-1.35c3,0.04,5.99,0.04,8.99,0
		c1.02-0.01,1.29,0.42,1.3,1.36c0.01,1.01-0.4,1.33-1.36,1.31c-2.08-0.04-4.16,0.02-6.23-0.02c-0.92-0.02-1.31,0.3-1.28,1.25
		c0.05,1.39,0.06,2.79,0,4.19c-0.04,1.03,0.41,1.31,1.36,1.28c1.88-0.05,3.76,0.03,5.63-0.03c1.03-0.03,1.42,0.34,1.41,1.38
		c-0.01,1-0.4,1.33-1.36,1.31c-1.92-0.05-3.84,0.02-5.75-0.02c-0.91-0.02-1.31,0.29-1.28,1.24c0.05,1.75,0.05,3.51,0,5.27
		c-0.03,1.07,0.43,1.38,1.44,1.36c2.12-0.05,4.24,0.02,6.35-0.02c0.96-0.02,1.36,0.31,1.36,1.31c-0.01,1.01-0.51,1.19-1.36,1.18
		c-3.04-0.02-6.07-0.05-9.11,0.01c-1.15,0.02-1.43-0.45-1.42-1.49C16.29,107.35,16.26,104.08,16.26,100.8z"/>
	<path class="st0" d="M129.96,100.93c0-3.27,0.02-6.54-0.01-9.81c-0.01-0.96,0.3-1.37,1.31-1.35c3.04,0.04,6.07,0.04,9.11,0
		c0.99-0.01,1.2,0.47,1.2,1.33c0,0.87-0.22,1.35-1.2,1.33c-2.04-0.04-4.08,0.03-6.11-0.02c-1.06-0.03-1.42,0.38-1.38,1.4
		c0.06,1.35,0.05,2.71,0,4.07c-0.03,0.94,0.36,1.27,1.28,1.25c1.76-0.04,3.52,0.02,5.27-0.02c0.99-0.02,1.66,0.06,1.66,1.37
		c0,1.38-0.8,1.31-1.73,1.3c-1.72-0.02-3.44,0.03-5.15-0.02c-0.97-0.03-1.36,0.31-1.34,1.31c0.04,2.55-0.02,5.11,0.03,7.66
		c0.02,1.05-0.39,1.4-1.41,1.38c-0.98-0.02-1.57-0.16-1.55-1.37C130,107.48,129.96,104.2,129.96,100.93z"/>
	<path class="st0" d="M217.31,102.12c0-2.79-0.03-5.59,0.01-8.38c0.01-0.98-0.33-1.38-1.33-1.33c-1.04,0.05-2.08-0.02-3.12,0.01
		c-0.95,0.03-1.13-0.5-1.11-1.29c0.02-0.73,0.04-1.36,1.04-1.36c4.04,0.02,8.07,0.02,12.11,0c0.91,0,1.02,0.54,1.02,1.26
		c0,0.74-0.08,1.38-1.05,1.38c-1.08,0-2.16,0.07-3.24-0.01c-1.12-0.07-1.45,0.38-1.44,1.46c0.04,5.55,0.02,11.09,0.02,16.64
		c0,1.53-0.11,1.57-1.64,1.6c-1.03,0.02-1.3-0.43-1.29-1.37C217.34,107.87,217.32,104.99,217.31,102.12z"/>
	<path class="st0" d="M53.46,102.25c0-2.63,0-5.26,0-7.89c0-1.93,0-1.93-2-1.93c-0.84,0-1.68-0.02-2.52,0
		c-1,0.02-1.02-0.64-1.03-1.37c0-0.71,0.1-1.27,1.01-1.26c3.99,0.01,7.99,0.01,11.98,0c0.92,0,1.01,0.55,1.01,1.26
		c0,0.72,0,1.39-1.01,1.38c-1.04-0.02-2.08,0.06-3.11-0.01c-1.11-0.07-1.45,0.38-1.44,1.46c0.04,5.54,0.02,11.08,0.01,16.63
		c0,1.53-0.11,1.58-1.63,1.61c-1.03,0.02-1.3-0.42-1.28-1.36C53.49,107.91,53.46,105.08,53.46,102.25z"/>
	<path class="st0" d="M201.71,100.93c0-3.27,0.04-6.54-0.02-9.8c-0.02-1.2,0.55-1.36,1.54-1.37c1.03-0.01,1.41,0.34,1.4,1.39
		c-0.04,5.62-0.02,11.24-0.01,16.86c0,1.6,0.01,1.62,1.59,1.62c2.08,0.01,4.15,0.03,6.23-0.01c0.91-0.02,1.29,0.31,1.3,1.25
		c0,0.94-0.37,1.26-1.29,1.25c-3.15-0.03-6.31-0.04-9.46,0c-1.03,0.01-1.29-0.44-1.28-1.37
		C201.73,107.47,201.71,104.2,201.71,100.93z"/>
	<path class="st0" d="M373.91,100.88c0-3.23,0.04-6.46-0.02-9.69c-0.02-1.11,0.39-1.45,1.46-1.45c1.04,0.01,1.5,0.28,1.5,1.42
		c-0.04,5.62-0.02,11.24-0.02,16.87c0,1.56,0.02,1.58,1.63,1.58c2,0,3.99,0.03,5.99-0.01c0.89-0.01,1.31,0.28,1.31,1.23
		c0,0.94-0.36,1.27-1.28,1.26c-3.11-0.03-6.23-0.04-9.34,0c-0.96,0.01-1.24-0.39-1.23-1.29
		C373.93,107.5,373.91,104.19,373.91,100.88z"/>
	<path class="st0" d="M310.66,101.05c0,3.23-0.04,6.46,0.02,9.69c0.02,1.19-0.53,1.37-1.53,1.38c-1.01,0.01-1.43-0.29-1.43-1.36
		c0.03-6.54,0.03-13.08,0-19.62c-0.01-1.05,0.38-1.4,1.41-1.38c0.98,0.02,1.57,0.15,1.55,1.37
		C310.62,94.43,310.66,97.74,310.66,101.05z"/>
	<path class="st0" d="M147.03,86.16c-0.16-1,0.2-1.45,1.35-1.46c1.39-0.02,1.26,0.83,1.29,1.73c0.04,1.01-0.21,1.52-1.39,1.52
		C146.92,87.95,146.98,87.13,147.03,86.16z"/>
	<path class="st0" d="M154.69,86.35c0.11,0.97-0.06,1.58-1.28,1.6c-1.32,0.02-1.36-0.7-1.36-1.67c0-0.93,0.06-1.58,1.31-1.59
		C154.67,84.69,154.79,85.37,154.69,86.35z"/>
	<path class="st0" d="M361.49,86.5c0.09,0.81-0.05,1.43-1.22,1.44c-1.42,0.01-1.21-0.9-1.25-1.77c-0.05-0.95,0.19-1.47,1.31-1.47
		C361.67,84.71,361.49,85.58,361.49,86.5z"/>
	<path class="st0" d="M364.07,86.19c-0.09-0.87,0.05-1.47,1.23-1.49c1.31-0.02,1.23,0.76,1.25,1.64c0.02,0.93-0.04,1.62-1.3,1.6
		C363.9,87.92,364.05,87.08,364.07,86.19z"/>
</g>
</svg>
