
<svg xmlns="http://www.w3.org/2000/svg" viewBox="0 0 208.92 112.54">
<defs>
<style>.cls-1{fill:#ffe08a;}.cls-2{fill:#000000;}.cls-3{fill:#4476bb;}.cls-4{fill:#fed500;}
</style>
</defs>
<g id="Layer_2" data-name="Layer 2">
<g id="Layer_1-2" data-name="Layer 1">
<path class="cls-1" d="M186.58,19.55c0,3.31-.14,6.64.14,9.93.24,2.85,2.29,4.8,4.44,6.45,3.24,2.49,7.25,3,11.07,3.92,1.58.38,3.21.6,5,.92-2.18,4.71-1.09,9.46-1,14.12s.75,9,.7,13.55c0,1.91-.45,3.47,1.73,4.38.24.11.38,1.24.14,1.62-2.41,3.8-1.81,8.11-2,12.23-.36,8-.46,16.07-.62,24.1,0,.87-.37,1.23-1.1,1.33-1.3.17-2.6.28-4.13.44-.16-1.74-.37-3.31-.44-4.88-.23-5.18-.4-10.36-.61-15.54-.17-4.29-.24-8.6-.64-12.87-.1-1.08-1.25-2.08-1.95-3.1-1.5-2.2-3.54-1-5.36-.73-2.88.41-5.74,1-8.59,1.59-5.48,1.16-10.94,2.4-16.41,3.59a218.91,218.91,0,0,0-33.06,9.89c-5.53,2.16-11,4.47-16.44,6.84-3.75,1.64-7.43,3.46-11.11,5.27a4.17,4.17,0,0,1-3.91-.23c-4.25-2-8.45-4.19-12.77-6.07-4.93-2.13-9.94-4.09-15-6-4.45-1.68-8.92-3.38-13.49-4.7-6.88-2-13.8-3.82-20.78-5.42-7.79-1.8-15.69-3.14-23.48-5a6.45,6.45,0,0,0-5.49,1.12A4.24,4.24,0,0,0,10,79.29c-.46,10-.78,20.11-1.14,30.17,0,.33,0,.66,0,1,0,1-.35,1.86-1.63,1.79a3.6,3.6,0,0,0-.56.08c-3.28.24-3.4.11-3.5-3.12Q2.8,97.42,2.38,85.67C2.29,83.12,2.1,80.58,1.9,78A3.23,3.23,0,0,0,.67,75.23c-1.1-.77-.79-2.35.54-3a1.85,1.85,0,0,0,1.15-2c.24-6.73.58-13.45.89-20.18a20.08,20.08,0,0,0-.87-7.55C2,41.43,2.4,41,3.5,40.67,7,39.79,10.57,39,14,37.9c3.73-1.22,6.74-3.47,8-7.42a11.72,11.72,0,0,0,.47-3.34c.06-3.16,0-6.34,0-9.5a3.91,3.91,0,0,1,2.25-3.78A51.25,51.25,0,0,1,37.66,8.75c7-1.49,14-3.16,21-4.44S72.84,2,79.94,1.12C84.38.55,88.86.39,93.33,0a8.62,8.62,0,0,1,5.19,1.57c3.78,2.28,7.65,1.86,11.56.44a.8.8,0,0,0,.43-.35C111.4-.15,113.05,0,114.65.12c7.08.57,14.23.79,21.23,1.85,10.62,1.62,21.17,3.67,31.68,5.88a127.81,127.81,0,0,1,14.17,4.35c2.33.78,4.35,2.09,4.69,4.92C186.42,17.12,186.58,19.26,186.58,19.55ZM177.45,63.9a3.45,3.45,0,0,0-3.15-.62c-2.08.34-4.19.53-6.29.78a40.8,40.8,0,0,0-4.56.53c-1.52.34-1.81,1.32-.85,2.5.83,1,1.8,1.92,2.69,2.9,1.32,1.46,3.52,2.07,4.11,4.26,0,.14.4.32.58.28,1.51-.31,3-.68,4.53-1l.07-.56c-1.64-1.87-3.24-3.77-4.91-5.61-1.13-1.23-1.14-1.59.18-2.64,1,1,1.87,2.07,2.84,3.08A31.68,31.68,0,0,1,176,71.19c1.32,1.83,2.9,1.87,4.75,1.25.74-.24,1.47-.52,2.61-.93-1.39-1.48-2.49-2.61-3.54-3.79s-2.7-1.9-2.45-3.86a5.53,5.53,0,0,1,1.1.66,80.49,80.49,0,0,1,6,5.68c1.34,1.52,2.77,1.51,4.44,1.17a10.22,10.22,0,0,0,1.38-.28,2.11,2.11,0,0,0,1.11-.68c.11-.19-.23-.78-.51-1-1.83-1.76-3.66-3.53-5.58-5.2a5.36,5.36,0,0,0-2.69-1.57,33.37,33.37,0,0,0-5.43.38Zm-35-54.09c-.77.18-1.41.31-2,.5-2.26.67-4.5,1.39-6.77,2-4.47,1.31-9,2.57-13.44,3.9-4.73,1.4-9.45,2.88-14.19,4.28-1.93.58-3.67-.29-5.47-.82-6.82-2-13.66-4-20.49-6-4-1.17-7.92-2.43-11.92-3.55-2-.54-2-.43-2,1.57q0,26.53,0,53.08a7.84,7.84,0,0,1-.45,2.76,24.24,24.24,0,0,1-6.89,10.25c2.12.45,4.21.93,6.31,1.31a1.36,1.36,0,0,0,1.09-.55c1.77-2.58,3.49-5.2,5.32-8l1.79.74-5.23,8.47c1.91.55,3.67,1,5.4,1.59a1.58,1.58,0,0,0,2-.79c1.22-1.79,2.46-3.56,3.69-5.34s2.61-1.84,4.33-.16c-1.57,2.64-3.17,5.32-4.86,8.14l5.93,2.34c.68-2.92,2.77-4.67,4.28-6.77.26-.35,1-.33,1.55-.49l.19.43a30.08,30.08,0,0,0-2.28,3.36,37.06,37.06,0,0,0-1.52,4.08l4.73,2c1.32-2.75,1.35-6,4.2-8.16-.25,3-.39,5.71-.74,8.36a1.32,1.32,0,0,0,.84,1.65c1.41.66,2.83,1.3,4.24,1.94.8.36,1.28.19,1.31-.77a24.28,24.28,0,0,0,.13-2.68c-.18-2.15,1.65-2.47,2.93-3.06.56-.26,1.68.29,2.34.77A4.25,4.25,0,0,1,108,88.21c.48,1.2.83,2.45,1.27,3.79,1.37-.62,2.56-1.19,3.77-1.7a2.16,2.16,0,0,0,1.52-2.61,58.52,58.52,0,0,1-.46-5.92c0-.4.41-.82.64-1.22.3.3.73.55.9.91a18.48,18.48,0,0,1,.85,2.4c.42,1.43.8,2.86,1.21,4.36l4.92-1.87c-.94-2.64-1.81-5.11-2.73-7.71.54,0,1.05-.12,1.13,0,1.32,2.25,2.58,4.53,3.91,6.9l5.62-1.81c-1.89-3.1-3.83-6-4.37-9.37a1.62,1.62,0,0,1,2.63.07c1.06,1.17,2.12,2.35,3.08,3.6A37.43,37.43,0,0,1,134,81.26c.52.84,1.34.68,1.53,0,.43-1.44,1.27-1.07,2.19-.81a4,4,0,0,0,3.89-.42c-2-3-3.92-5.94-5.94-9l1.81-.48c.2.27.4.52.6.78,1.7,2.28,3.38,4.59,5.14,6.83.36.47,1.09,1,1.57,1,1.74-.26,3.44-.77,5.41-1.25L144,67.7a1.57,1.57,0,0,1,2.24.73c2,2.92,4.21,5.74,6.35,8.58a.77.77,0,0,0,.63.24c1.93-.29,3.86-.61,6.08-1l-4.9-8.87c.92-1,1.63-1.28,2.4.13.41.75,1.26,1.25,1.86,1.92a31,31,0,0,1,3.46,4c1.46,2.32,1.07,2,4,1.69a14.27,14.27,0,0,0,1.48-.37c-1.48-1.92-2.87-3.76-4.31-5.56-1-1.22-2.75-2.06-1.59-4.25L142.49,67.2Zm-107,63.48a3.1,3.1,0,0,0,.55.37c2,.58,3.91,1.19,5.88,1.69a1.49,1.49,0,0,0,1.19-.43c1.5-1.57,3-3.18,4.39-4.8,1.14-1.28,2.25-2.59,3.37-3.89A1.8,1.8,0,0,1,51,69c-.54.66-1.15,1.26-1.68,1.93-1.28,1.63-2.54,3.28-3.82,4.94a1.5,1.5,0,0,0,2.27-.34c2-2.18,4-4.31,6-6.46,1.4.89.3,1.62-.05,2.16C52.55,73,51.28,74.63,50,76.38c1.18.75,2,.72,2.75-.27a7.27,7.27,0,0,1,1.79-1.23l.26.32-.62,1.85c2.29.77,3.15-2,5.11-1.93,0,0,.08-.16.13-.24l5-7.83c-7.38-1.21-14.67-1.7-21.87-2.88ZM24.68,71.66c1.75.42,3.43.86,5.13,1.2a1.59,1.59,0,0,0,1.21-.4c2-2,3.84-4.14,5.85-6.13a25.68,25.68,0,0,1,3-2.24c.11,0,0,0-.13-.06C36,63.53,32.34,63,28.65,62.6c-1.48-.15-3.12-.64-4.41.7-.67.7-1.35,1.4-2,2.12C20.61,67.17,19,68.94,17.08,71c1.91.3,3.43.57,5,.75.26,0,.61-.3.83-.54,1.69-1.82,3.35-3.68,5.06-5.49.75-.79,1.62-1.46,2.55-2.29.24.51.51.89.44,1C28.89,66.82,26.83,69.18,24.68,71.66ZM104.84,94.8l.38,0c.44-1.78,1-3.55,1.25-5.36,0-.39-.87-1.26-1.41-1.32a1.19,1.19,0,0,0-1.34,1.52c.2,1.34.34,2.69.58,4A4.88,4.88,0,0,0,104.84,94.8Z"/>
<path class="cls-2" d="M142.49,9.81V67.2L161.62,65c-1.16,2.19.61,3,1.59,4.25,1.44,1.8,2.83,3.64,4.31,5.56a14.27,14.27,0,0,1-1.48.37c-2.9.31-2.51.63-4-1.69a31,31,0,0,0-3.46-4c-.6-.67-1.45-1.17-1.86-1.92-.77-1.41-1.48-1.15-2.4-.13l4.9,8.87c-2.22.36-4.15.68-6.08,1a.77.77,0,0,1-.63-.24c-2.14-2.84-4.33-5.66-6.35-8.58A1.57,1.57,0,0,0,144,67.7l6.21,10.22c-2,.48-3.67,1-5.41,1.25-.48.08-1.21-.48-1.57-1-1.76-2.24-3.44-4.55-5.14-6.83-.2-.26-.4-.51-.6-.78l-1.81.48c2,3,4,6,5.94,9a4,4,0,0,1-3.89.42c-.92-.26-1.76-.63-2.19.81-.19.64-1,.8-1.53,0a37.43,37.43,0,0,0-2.08-3.21c-1-1.25-2-2.43-3.08-3.6a1.62,1.62,0,0,0-2.63-.07c.54,3.42,2.48,6.27,4.37,9.37l-5.62,1.81c-1.33-2.37-2.59-4.65-3.91-6.9-.08-.14-.59,0-1.13,0,.92,2.6,1.79,5.07,2.73,7.71l-4.92,1.87c-.41-1.5-.79-2.93-1.21-4.36a18.48,18.48,0,0,0-.85-2.4c-.17-.36-.6-.61-.9-.91-.23.4-.65.82-.64,1.22a58.52,58.52,0,0,0,.46,5.92A2.16,2.16,0,0,1,113,90.3c-1.21.51-2.4,1.08-3.77,1.7-.44-1.34-.79-2.59-1.27-3.79a4.25,4.25,0,0,0-1.17-1.88c-.66-.48-1.78-1-2.34-.77-1.28.59-3.11.91-2.93,3.06a24.28,24.28,0,0,1-.13,2.68c0,1-.51,1.13-1.31.77-1.41-.64-2.83-1.28-4.24-1.94A1.32,1.32,0,0,1,95,88.48c.35-2.65.49-5.33.74-8.36-2.85,2.17-2.88,5.41-4.2,8.16l-4.73-2a37.06,37.06,0,0,1,1.52-4.08,30.08,30.08,0,0,1,2.28-3.36l-.19-.43c-.53.16-1.29.14-1.55.49-1.51,2.1-3.6,3.85-4.28,6.77l-5.93-2.34c1.69-2.82,3.29-5.5,4.86-8.14-1.72-1.68-3.12-1.57-4.33.16s-2.47,3.55-3.69,5.34a1.58,1.58,0,0,1-2,.79c-1.73-.56-3.49-1-5.4-1.59l5.23-8.47-1.79-.74c-1.83,2.75-3.55,5.37-5.32,8a1.36,1.36,0,0,1-1.09.55c-2.1-.38-4.19-.86-6.31-1.31a24.24,24.24,0,0,0,6.89-10.25,7.84,7.84,0,0,0,.45-2.76q0-26.53,0-53.08c0-2,0-2.11,2-1.57,4,1.12,8,2.38,11.92,3.55,6.83,2,13.67,4,20.49,6,1.8.53,3.54,1.4,5.47.82,4.74-1.4,9.46-2.88,14.19-4.28,4.48-1.33,9-2.59,13.44-3.9,2.27-.66,4.51-1.38,6.77-2C141.08,10.12,141.72,10,142.49,9.81Zm-73.2,3.77c0,.57-.08.94-.08,1.31,0,8.61,0,17.22,0,25.83q0,12.35-.13,24.7a1.87,1.87,0,0,0,1.46,2.16c2.41.82,4.7,2,7.12,2.73,5.93,1.83,11.1,5.15,16.48,8.06,3.23,1.74,6.33,3.74,9.51,5.57.48.27,1.28.55,1.66.34,2.41-1.36,4.68-3,7.11-4.27,5.29-2.87,10.58-5.77,16-8.38,3.3-1.6,6.83-2.71,10.28-4a1.6,1.6,0,0,0,1.17-1.8q-.13-25.54-.22-51.09c0-.4-.07-.8-.11-1.28-3,.92-5.87,1.81-8.74,2.66q-11.25,3.33-22.49,6.63c-2,.6-3.92,1.23-6.26.48-7.53-2.43-15.18-4.5-22.78-6.72C76,15.56,72.68,14.58,69.29,13.58Z"/>
<path class="cls-2" d="M35.52,73.29l7.07-9.12c7.2,1.18,14.49,1.67,21.87,2.88l-5,7.83c0,.08-.09.24-.13.24-2-.09-2.82,2.7-5.11,1.93l.62-1.85-.26-.32a7.27,7.27,0,0,0-1.79,1.23c-.79,1-1.57,1-2.75.27,1.26-1.75,2.53-3.4,3.64-5.15.35-.54,1.45-1.27.05-2.16-2,2.15-4,4.28-6,6.46a1.5,1.5,0,0,1-2.27.34c1.28-1.66,2.54-3.31,3.82-4.94.53-.67,1.14-1.27,1.68-1.93a1.8,1.8,0,0,0-.05-2.77c-1.12,1.3-2.23,2.61-3.37,3.89-1.44,1.62-2.89,3.23-4.39,4.8a1.49,1.49,0,0,1-1.19.43c-2-.5-3.92-1.11-5.88-1.69A3.1,3.1,0,0,1,35.52,73.29Z"/>
<path class="cls-2" d="M177.41,63.86c-.25,2,1.43,2.71,2.45,3.86S182,70,183.4,71.51c-1.14.41-1.87.69-2.61.93-1.85.62-3.43.58-4.75-1.25a31.68,31.68,0,0,0-3.35-3.41c-1-1-1.89-2-2.84-3.08-1.32,1-1.31,1.41-.18,2.64,1.67,1.84,3.27,3.74,4.91,5.61l-.07.56c-1.51.34-3,.71-4.53,1-.18,0-.55-.14-.58-.28-.59-2.19-2.79-2.8-4.11-4.26-.89-1-1.86-1.88-2.69-2.9-1-1.18-.67-2.16.85-2.5a40.8,40.8,0,0,1,4.56-.53c2.1-.25,4.21-.44,6.29-.78a3.45,3.45,0,0,1,3.15.62Z"/>
<path class="cls-2" d="M24.68,71.66c2.15-2.48,4.21-4.84,6.23-7.23.07-.09-.2-.47-.44-1-.93.83-1.8,1.5-2.55,2.29-1.71,1.81-3.37,3.67-5.06,5.49-.22.24-.57.57-.83.54-1.52-.18-3-.45-5-.75,1.91-2.08,3.53-3.85,5.15-5.6.66-.72,1.34-1.42,2-2.12,1.29-1.34,2.93-.85,4.41-.7C32.34,63,36,63.53,39.71,64c.12,0,.24.11.13.06a25.68,25.68,0,0,0-3,2.24c-2,2-3.88,4.11-5.85,6.13a1.59,1.59,0,0,1-1.21.4C28.11,72.52,26.43,72.08,24.68,71.66Z"/>
<path class="cls-2" d="M177.45,63.9l-.23-.92a33.37,33.37,0,0,1,5.43-.38,5.36,5.36,0,0,1,2.69,1.57c1.92,1.67,3.75,3.44,5.58,5.2.28.26.62.85.51,1a2.11,2.11,0,0,1-1.11.68,10.22,10.22,0,0,1-1.38.28c-1.67.34-3.1.35-4.44-1.17a80.49,80.49,0,0,0-6-5.68,5.53,5.53,0,0,0-1.1-.66Z"/>
<path class="cls-2" d="M104.84,94.8a4.88,4.88,0,0,1-.54-1.16c-.24-1.33-.38-2.68-.58-4a1.19,1.19,0,0,1,1.34-1.52c.54.06,1.46.93,1.41,1.32-.26,1.81-.81,3.58-1.25,5.36Z"/>
<path class="cls-3" d="M69.29,13.58c3.39,1,6.68,2,10,2.94,7.6,2.22,15.25,4.29,22.78,6.72,2.34.75,4.22.12,6.26-.48q11.25-3.28,22.49-6.63c2.87-.85,5.73-1.74,8.74-2.66,0,.48.11.88.11,1.28q.11,25.55.22,51.09a1.6,1.6,0,0,1-1.17,1.8c-3.45,1.28-7,2.39-10.28,4-5.42,2.61-10.71,5.51-16,8.38-2.43,1.32-4.7,2.91-7.11,4.27-.38.21-1.18-.07-1.66-.34-3.18-1.83-6.28-3.83-9.51-5.57-5.38-2.91-10.55-6.23-16.48-8.06-2.42-.74-4.71-1.91-7.12-2.73a1.87,1.87,0,0,1-1.46-2.16q.12-12.36.13-24.7c0-8.61,0-17.22,0-25.83C69.21,14.52,69.25,14.15,69.29,13.58Z"/>
</g>
<g id="Layer_4" data-name="Layer 4">
<path class="cls-4" d="M107.29,36.32a31.06,31.06,0,0,0,6.08,19.58c5.93,8.23,3.5,18.73-5.72,24.68A8,8,0,0,0,104.71,83a8,8,0,0,0-2.95-2.45c-9.21-6-11.64-16.45-5.72-24.68a31.06,31.06,0,0,0,6.08-19.58l-.69-2.87a9.38,9.38,0,0,1,3.28-7.36A9.44,9.44,0,0,1,108,33.45Zm-.42,40.12c6-5.07,7.12-12.73,2.76-18.79a36.15,36.15,0,0,1-4.92-9.48,36.18,36.18,0,0,1-4.93,9.48c-4.36,6.06-3.23,13.72,2.76,18.79V65.56h4.33Z"/>
<path id="a" class="cls-4" d="M116.72,35.05c1-7,6.21-13.26,13.92-16.66V69.06H104.71l-2.17-3.5c0-3.68,3.16-6.86,7.6-7.67l6.32-1.15c2.33-.42,3.8-2.29,3.27-4.18s-2.84-3.06-5.17-2.64h0Zm2.59,12c4.29,1.7,6.07,5.88,4,9.35a8.59,8.59,0,0,1-5.87,3.75l-6.32,1.15c-2.47.45-4.22,2.22-4.22,4.26h19.45V25.64a16.93,16.93,0,0,0-5.31,9.8Zm3.55,4.53h4.33v3.5h-4.33Z"/>
<path id="a-2" data-name="a" class="cls-4" d="M92.7,35.05c-1-7-6.22-13.26-13.93-16.66V69.06h25.94l2.16-3.5c0-3.68-3.16-6.86-7.59-7.67L93,56.74c-2.33-.42-3.79-2.29-3.27-4.18s2.84-3.06,5.17-2.64h0Zm-2.6,12c-4.29,1.7-6.07,5.88-4,9.35A8.59,8.59,0,0,0,92,60.15l6.33,1.15c2.46.45,4.21,2.22,4.21,4.26H83.09V25.64a16.93,16.93,0,0,1,5.31,9.8Zm-3.55,4.53H82.23v3.5h4.32Z"/>
</g>
</g>
</svg>
